<?xml version="1.0" standalone="no"?>
<!DOCTYPE svg PUBLIC "-//W3C//DTD SVG 20010904//EN"
 "http://www.w3.org/TR/2001/REC-SVG-20010904/DTD/svg10.dtd">
<svg version="1.0" xmlns="http://www.w3.org/2000/svg"
 width="960.000000pt" height="960.000000pt" viewBox="0 0 960.000000 960.000000"
 preserveAspectRatio="xMidYMid meet">
<metadata>
Created by potrace 1.15, written by Peter Selinger 2001-2017
</metadata>
<g transform="translate(0.000000,960.000000) scale(0.100000,-0.100000)"
fill="#000000" stroke="none">
<path d="M3820 9590 c-25 -8 -25 -8 -3 -15 15 -5 22 -14 20 -29 -1 -16 6 -23
30 -30 34 -11 46 -27 37 -51 -7 -17 -34 -21 -34 -5 0 6 5 10 10 10 6 0 10 5
10 10 0 6 -6 10 -14 10 -8 0 -17 6 -20 13 -3 8 -8 7 -16 -5 -6 -10 -19 -18
-28 -18 -15 -1 -15 -2 2 -15 18 -13 18 -15 2 -21 -16 -6 -14 -9 9 -29 24 -18
26 -24 16 -43 -9 -18 -8 -25 8 -41 11 -11 22 -37 26 -58 5 -34 4 -35 -6 -13
-22 49 -27 55 -44 52 -14 -3 -17 2 -13 22 3 17 1 26 -7 26 -8 0 -12 -12 -11
-32 2 -25 6 -32 19 -30 9 2 17 -2 17 -8 0 -5 -7 -10 -15 -10 -8 0 -15 -7 -15
-17 0 -15 1 -15 18 0 27 25 32 21 32 -24 0 -22 5 -49 10 -60 7 -11 7 -19 1
-19 -5 0 -18 -3 -28 -7 -16 -6 -16 -5 -4 10 16 20 11 30 -12 21 -21 -8 -44
-53 -39 -77 5 -25 28 -15 25 12 -3 23 12 29 20 9 4 -10 8 -9 16 2 9 12 11 10
11 -11 0 -14 -7 -34 -15 -45 -8 -10 -17 -41 -21 -67 -6 -46 -8 -48 -33 -43
-21 5 -23 4 -8 -4 9 -6 17 -22 17 -35 0 -25 19 -36 21 -12 1 6 2 19 3 27 0 8
6 14 11 13 7 -1 9 12 7 33 -5 37 -1 40 28 22 16 -10 24 -10 40 0 24 15 26 7 3
-16 -16 -16 -16 -17 0 -20 9 -2 17 -7 17 -12 0 -5 -7 -7 -15 -4 -10 4 -15 0
-15 -15 0 -12 -4 -21 -10 -21 -5 0 -10 7 -10 15 0 17 -2 18 -24 9 -9 -3 -16
-14 -16 -23 0 -14 2 -14 10 -1 15 23 13 -6 -2 -32 -7 -13 -19 -28 -27 -34 -12
-10 -11 -13 9 -24 18 -10 20 -14 9 -21 -9 -6 -1 -7 24 -4 41 5 45 0 20 -27
-23 -25 -3 -49 27 -31 16 11 20 9 25 -7 4 -11 11 -20 16 -20 6 0 8 -4 5 -9 -3
-5 -15 -7 -26 -4 -11 3 -20 0 -20 -6 0 -6 11 -11 25 -11 14 0 25 -5 25 -11 0
-6 -7 -9 -15 -5 -8 3 -22 3 -30 0 -12 -5 -13 -10 -4 -20 9 -11 8 -14 -5 -14
-9 0 -16 -4 -16 -10 0 -14 23 -12 39 3 11 10 14 10 18 0 3 -7 9 -13 14 -13 9
0 49 -36 49 -44 0 -3 -8 -7 -17 -9 -15 -4 -15 -5 -2 -6 11 -1 16 -11 16 -31 0
-34 7 -45 23 -35 8 5 5 12 -7 22 -13 11 -15 16 -5 20 10 4 10 8 1 19 -15 19
15 31 36 14 12 -10 16 -8 25 14 5 15 17 26 27 25 17 -1 17 -2 1 -6 -22 -5 -24
-29 -3 -37 8 -3 15 -14 15 -25 0 -11 5 -23 10 -26 6 -3 10 -13 10 -21 0 -11
-6 -13 -20 -9 -15 5 -18 3 -14 -9 7 -18 20 -21 29 -6 3 5 12 7 20 3 18 -6 20
-60 3 -65 -9 -3 -9 -6 1 -12 8 -5 14 -1 18 13 6 25 25 27 43 6 9 -10 9 -15 1
-15 -6 0 -11 -4 -11 -10 0 -5 9 -10 20 -10 11 0 20 -4 20 -9 0 -5 -9 -11 -20
-14 -27 -7 -25 -25 2 -29 16 -2 25 -12 29 -33 6 -29 8 -27 23 18 10 33 21 17
21 -33 0 -40 -3 -50 -16 -50 -9 0 -19 -9 -22 -21 -3 -12 -10 -18 -16 -14 -7 3
-11 -2 -11 -14 0 -11 -8 -27 -17 -36 -14 -14 -14 -20 -4 -37 7 -11 10 -23 6
-26 -3 -4 -10 0 -14 7 -5 7 -14 10 -20 7 -6 -4 -9 -12 -6 -17 7 -11 -23 -25
-33 -15 -3 4 0 11 8 16 12 8 12 10 1 10 -7 0 -25 -12 -38 -26 -19 -21 -23 -34
-19 -58 3 -17 1 -38 -4 -46 -8 -13 -10 -13 -10 1 0 23 -32 49 -37 32 -3 -7
-11 -13 -18 -13 -7 0 -16 -6 -18 -12 -4 -9 -6 -10 -6 -1 -1 6 6 18 14 27 10
10 12 17 4 21 -24 15 -51 -57 -30 -81 4 -5 0 -16 -10 -26 -20 -19 -22 -15 -20
32 1 30 -23 65 -38 55 -16 -9 -14 -26 6 -47 13 -14 14 -21 5 -30 -9 -9 -12 -9
-12 1 0 16 -29 40 -47 41 -7 0 -13 -7 -13 -15 0 -9 9 -15 22 -15 17 0 19 -3
10 -12 -7 -7 -33 -11 -62 -9 -31 1 -50 -2 -50 -8 0 -6 14 -11 31 -11 24 0 30
-4 27 -17 -3 -14 -13 -18 -41 -17 l-37 1 0 -48 c0 -42 3 -49 20 -49 24 0 27
25 3 34 -15 6 -14 9 5 28 24 24 43 18 22 -7 -11 -13 -10 -19 8 -36 13 -12 21
-31 21 -47 l-2 -27 -4 28 c-7 45 -32 34 -30 -14 1 -30 -2 -43 -13 -46 -12 -4
-12 -3 -1 5 16 12 1 69 -18 64 -6 -1 -11 2 -11 8 0 5 -12 10 -27 9 -16 0 -22
-3 -14 -6 22 -9 51 -42 51 -58 0 -8 -3 -14 -7 -14 -5 1 -15 1 -23 0 -12 -1
-11 -4 4 -16 10 -7 16 -18 15 -24 -2 -6 -17 0 -34 13 l-30 25 24 9 c15 5 20
11 13 16 -6 3 -26 -3 -44 -14 -18 -11 -27 -20 -20 -20 6 0 12 -5 12 -11 0 -6
10 -19 22 -29 20 -16 21 -19 6 -34 -9 -9 -24 -16 -32 -16 -9 0 -16 -8 -16 -19
0 -16 5 -18 40 -14 26 4 40 2 40 -6 0 -6 -13 -11 -28 -11 -37 0 -52 -17 -52
-57 0 -38 9 -41 35 -13 19 21 45 27 45 10 0 -5 -9 -14 -19 -19 -11 -6 -24 -31
-32 -61 -7 -28 -19 -50 -26 -50 -20 0 -16 -16 10 -34 12 -8 15 -13 6 -10 -10
3 -20 1 -24 -5 -3 -6 0 -12 7 -12 49 -5 59 -7 65 -13 4 -4 -9 -6 -28 -5 -19 2
-40 -1 -47 -5 -6 -4 -21 -2 -32 4 -18 10 -20 8 -20 -20 0 -28 2 -30 20 -20 14
7 26 8 39 0 14 -7 21 -6 24 3 3 7 6 5 6 -5 1 -22 31 -24 31 -3 0 8 7 15 16 15
24 0 11 -23 -20 -39 -22 -10 -30 -10 -36 -1 -4 6 -18 10 -31 8 l-24 -3 21 -21
c18 -18 20 -28 14 -55 -4 -19 -8 -28 -9 -21 -1 7 -7 20 -15 27 -11 12 -15 6
-20 -38 -5 -32 -10 -46 -15 -38 -6 10 -10 9 -15 -4 -9 -24 -7 -55 3 -55 5 0
12 8 14 18 4 13 5 12 6 -5 1 -21 -2 -22 -46 -18 -27 2 -39 2 -28 -1 11 -3 24
-10 30 -15 5 -5 21 -9 37 -9 20 0 26 -4 22 -15 -4 -8 -1 -15 4 -15 13 0 5 -91
-10 -105 -7 -7 -9 0 -6 23 4 25 1 32 -9 27 -8 -3 -26 -5 -39 -5 -13 0 -24 -5
-24 -11 0 -6 12 -9 27 -7 14 2 28 -2 30 -9 3 -7 -10 -13 -34 -16 -33 -3 -35
-5 -15 -12 12 -4 22 -14 22 -21 0 -8 5 -14 10 -14 6 0 10 5 10 12 0 9 3 9 11
1 14 -14 -10 -76 -26 -69 -6 2 -9 -14 -6 -40 2 -28 -1 -44 -8 -44 -6 0 -11 14
-11 31 0 17 -4 28 -10 24 -5 -3 -10 -19 -10 -36 0 -16 5 -29 10 -29 6 0 10 -4
10 -10 0 -5 -6 -10 -14 -10 -8 0 -17 -6 -20 -12 -4 -7 -4 5 -1 27 l4 40 -17
-28 c-17 -27 -17 -27 -122 -25 l-105 3 0 -54 c0 -38 5 -56 15 -62 45 -24 85
-39 104 -39 12 0 34 -7 50 -15 16 -9 36 -13 43 -11 7 3 13 1 13 -5 0 -6 6 -9
14 -6 18 7 30 -34 13 -45 -7 -4 -13 -2 -15 7 -5 22 -19 18 -26 -7 -7 -31 6
-41 37 -29 32 12 57 5 57 -16 0 -8 9 -17 19 -20 58 -15 17 -113 -47 -113 -10
0 -22 -3 -26 -7 -4 -4 -22 -8 -40 -8 -20 0 -46 -10 -65 -24 -17 -13 -45 -26
-62 -28 -33 -3 -73 13 -64 27 13 20 -15 18 -30 -2 l-17 -23 7 24 c5 16 4 21
-4 17 -6 -4 -12 -31 -12 -59 -2 -49 -2 -50 -9 -17 -4 20 -8 27 -9 15 -1 -11
-4 -41 -7 -67 -3 -32 -1 -48 7 -48 9 0 9 -3 0 -14 -9 -11 -6 -15 14 -20 14 -4
25 -11 25 -16 0 -6 11 -10 25 -10 13 0 50 -7 82 -15 32 -8 99 -22 148 -31 52
-8 95 -21 101 -30 9 -11 3 -44 -27 -142 -21 -70 -45 -153 -54 -184 -19 -66
-48 -108 -76 -108 -12 0 -17 -5 -14 -10 4 -6 15 -8 25 -5 26 8 33 -10 19 -52
l-12 -36 -106 8 c-95 7 -164 8 -198 3 -18 -2 -16 19 -62 -653 -11 -148 -19
-277 -19 -285 0 -8 -3 -29 -7 -46 -6 -26 -4 -32 14 -37 26 -6 28 -27 2 -27
-17 0 -20 -11 -26 -93 -3 -50 -13 -173 -20 -272 -25 -311 -29 -453 -16 -468 9
-12 8 -16 -4 -21 -9 -3 -15 -17 -14 -33 0 -15 3 -22 6 -15 6 14 33 16 33 2 0
-5 4 -10 9 -10 10 0 121 145 121 159 0 5 5 13 12 17 8 5 9 1 5 -12 -4 -10 11
1 32 25 21 23 54 53 74 65 19 11 61 39 93 61 31 22 62 43 68 47 21 13 281 127
306 133 14 4 48 25 77 46 47 35 91 58 196 103 l37 16 -6 54 c-6 54 -6 55 20
62 40 10 137 -4 158 -23 12 -10 16 -24 12 -36 -4 -14 -3 -18 7 -12 8 3 4 -3
-9 -14 -18 -16 -21 -24 -13 -38 9 -17 10 -17 16 0 16 40 21 10 20 -120 0 -115
3 -166 14 -245 1 -4 7 -5 15 -2 16 6 30 -11 21 -26 -5 -8 -11 -7 -21 1 -11 9
-14 8 -14 -4 0 -9 10 -17 23 -19 14 -2 22 -10 22 -23 0 -11 4 -26 8 -33 5 -7
6 -21 2 -31 -3 -11 -1 -22 5 -26 6 -4 8 -15 5 -26 -4 -12 -1 -21 9 -25 20 -8
29 -36 14 -45 -7 -4 -9 -11 -5 -16 5 -4 12 -1 16 6 12 19 30 5 24 -18 -3 -13
2 -20 18 -24 13 -4 25 -4 28 -1 3 3 -5 7 -17 11 -24 6 -30 23 -9 23 18 0 58
-30 53 -39 -3 -4 8 -22 24 -40 17 -18 30 -38 30 -46 0 -7 6 -20 13 -27 17 -17
42 -61 39 -70 -1 -3 5 -9 13 -12 10 -3 12 0 8 11 -8 20 85 -42 107 -72 33 -44
10 -92 -31 -67 -10 6 -21 8 -24 3 -6 -10 -44 -3 -62 11 -18 15 -33 0 -33 -32
0 -35 -13 -45 -30 -25 -10 12 -10 18 0 30 10 12 8 23 -9 56 -12 23 -28 48 -36
56 -8 8 -15 25 -15 39 0 14 -7 27 -15 30 -8 3 -17 14 -20 25 -7 20 -30 26 -40
9 -3 -6 -8 -36 -11 -68 -4 -52 -8 -60 -44 -92 -25 -22 -40 -44 -40 -58 0 -16
-5 -23 -17 -21 -34 3 -43 -1 -43 -21 0 -22 10 -26 28 -8 8 8 15 8 27 -2 11 -9
18 -10 29 -1 9 8 16 8 20 2 4 -5 19 -8 34 -7 23 3 27 8 27 37 0 24 5 34 15 34
10 0 15 -11 15 -35 0 -32 2 -35 30 -35 28 0 30 -2 31 -40 0 -22 5 -39 10 -37
5 2 8 16 7 32 -2 18 3 30 13 34 26 10 36 -4 30 -39 -4 -19 -2 -36 4 -40 5 -3
11 -1 11 4 1 6 3 23 5 39 2 15 5 39 6 54 4 35 14 44 33 28 9 -8 13 -21 9 -36
-4 -14 -2 -24 4 -24 6 0 18 -3 27 -7 15 -5 16 -1 10 27 -5 23 -4 30 4 26 6 -4
11 -15 11 -25 0 -10 9 -26 19 -35 18 -16 20 -16 40 6 l22 22 -21 8 c-30 11
-17 26 18 20 25 -3 38 6 103 75 41 44 107 101 147 128 41 27 80 62 89 79 22
41 90 141 107 155 7 6 40 64 71 129 32 64 64 124 70 132 66 78 190 425 164
457 -6 7 -7 13 -3 13 10 0 29 41 38 85 4 17 9 38 12 48 8 27 -11 20 -26 -10
-18 -36 -68 -82 -97 -89 -13 -4 -23 -12 -23 -20 0 -14 -12 -18 -38 -15 -6 1
-17 -10 -22 -24 -11 -30 -24 -34 -15 -4 5 15 4 19 -4 15 -17 -11 -13 36 5 62
9 14 16 46 17 78 1 42 5 55 19 60 23 7 23 20 1 29 -15 5 -12 9 14 20 25 10 33
22 39 49 3 21 12 36 20 36 8 0 14 5 14 10 0 6 -11 10 -25 10 -14 0 -25 -5 -25
-11 0 -6 -5 -9 -11 -7 -6 2 -10 7 -9 12 3 15 -24 25 -37 15 -7 -6 -18 -7 -24
-3 -7 4 -9 3 -5 -4 3 -6 2 -13 -4 -17 -5 -3 -7 -17 -4 -31 4 -17 1 -26 -11
-30 -9 -4 -14 -13 -10 -22 8 -21 -12 -41 -35 -35 -15 4 -22 -2 -30 -22 -8 -20
-15 -26 -30 -22 -11 3 -23 1 -26 -4 -3 -5 -13 -5 -24 1 -10 6 -30 11 -44 12
-13 1 -22 6 -20 10 3 4 -2 8 -10 8 -9 0 -13 6 -10 14 3 8 1 24 -6 35 -12 23
-8 26 21 11 12 -7 19 -7 19 -1 0 5 6 12 13 14 6 2 0 3 -15 1 -28 -4 -40 17
-18 31 15 10 12 35 -5 35 -8 0 -15 7 -15 15 0 16 25 29 70 39 26 5 70 40 70
56 0 20 -134 30 -153 11 -13 -13 -41 -15 -33 -3 3 5 -9 6 -27 4 -26 -4 -30 -2
-21 9 6 8 11 24 12 37 1 21 -9 26 -46 25 -7 -1 -11 5 -8 13 3 9 -2 14 -14 14
-11 0 -20 7 -20 15 0 20 -8 19 -58 -5 -48 -23 -68 -23 -94 3 -19 18 -24 32 -8
22 6 -3 10 1 10 9 0 8 8 16 18 18 19 4 62 -13 62 -24 0 -5 7 -8 16 -8 12 0 14
4 7 13 -20 25 -22 45 -5 43 10 -1 16 6 16 17 -1 9 4 17 11 17 6 0 19 8 27 18
17 19 44 92 39 107 -9 30 -9 45 1 45 6 0 8 3 5 6 -7 8 36 44 52 44 16 0 80
-60 96 -89 8 -14 28 -42 44 -61 28 -32 31 -33 31 -12 0 27 15 28 58 2 17 -11
32 -16 32 -12 0 4 5 0 10 -8 5 -8 14 -16 20 -16 5 -1 15 -2 20 -3 6 0 10 -8
10 -16 0 -11 7 -14 23 -10 15 4 28 1 36 -9 7 -9 18 -13 23 -10 6 4 5 9 -2 14
-9 6 -3 13 19 24 17 9 31 23 31 30 0 8 14 23 31 34 l31 19 -26 7 -25 6 20 34
c23 40 39 48 79 40 16 -4 37 -4 46 0 13 5 12 10 -10 37 -14 17 -26 35 -26 40
0 5 -7 9 -15 9 -18 0 -20 16 -2 23 11 5 -37 11 -57 8 -5 -1 -4 4 2 12 7 8 10
22 6 31 -7 17 -34 22 -34 6 0 -5 7 -10 15 -10 8 0 15 -4 15 -10 0 -5 -12 -10
-26 -10 -20 0 -24 4 -19 19 3 12 0 21 -10 25 -13 5 -14 8 -3 20 11 12 17 12
42 -1 26 -13 30 -13 51 7 13 12 28 19 33 16 13 -8 36 20 27 34 -9 14 -45 13
-45 -2 0 -7 -5 -5 -12 4 -12 15 -79 34 -105 29 -7 -1 -13 2 -13 7 0 13 -97 30
-142 26 -93 -8 -126 -94 -37 -94 11 0 19 -7 19 -16 0 -8 -4 -13 -8 -10 -4 3
-25 1 -46 -4 l-37 -8 3 31 c2 23 -1 31 -11 29 -7 -1 -19 2 -27 9 -7 6 -17 8
-22 5 -13 -8 -38 22 -57 67 -14 33 -14 37 0 37 8 0 15 9 15 21 0 28 19 61 30
54 6 -3 7 1 4 9 -3 9 -1 16 6 16 6 0 8 5 5 10 -10 17 25 11 43 -6 11 -11 17
-13 20 -5 6 17 22 3 22 -20 0 -31 33 -23 49 12 10 23 16 27 22 18 6 -11 11
-11 20 -2 10 10 8 18 -9 36 -12 13 -22 28 -22 34 0 7 -15 9 -40 6 -38 -5 -57
9 -27 20 6 3 -4 6 -24 6 -30 1 -38 -4 -49 -26 l-13 -28 -6 30 c-4 17 -9 25
-13 20 -4 -6 -21 -12 -38 -13 -19 -2 -29 1 -25 8 3 5 16 10 28 11 20 1 20 2
-3 8 -14 4 -26 4 -28 1 -4 -10 -52 1 -52 11 0 5 -18 9 -40 9 -29 0 -40 4 -40
15 0 9 -11 20 -25 25 -14 5 -28 18 -32 27 -3 10 -20 31 -37 46 -17 16 -30 33
-29 38 2 5 -4 9 -13 9 -9 0 -21 13 -27 29 -6 16 -20 32 -31 35 -16 5 -18 8 -8
14 10 7 8 14 -8 34 -12 15 -20 41 -20 62 0 30 5 38 26 46 14 6 22 14 19 20 -3
5 -2 10 3 10 5 0 12 10 15 21 5 17 11 20 31 17 14 -3 23 -1 20 3 -6 10 56 -10
74 -24 8 -6 12 -6 12 1 0 6 -6 13 -12 16 -10 3 -9 8 2 18 8 7 17 22 18 33 2
11 15 30 28 42 l25 23 10 -27 c8 -20 12 -24 18 -14 5 8 14 10 20 7 6 -4 11 0
11 8 0 9 9 16 20 16 13 0 18 -5 14 -15 -4 -8 -1 -15 6 -15 7 0 10 -8 7 -20 -7
-26 14 -26 31 0 8 14 20 19 42 16 16 -2 27 1 24 5 -3 5 6 13 19 18 14 6 28 15
32 20 9 16 25 14 25 -3 0 -7 7 -19 15 -26 8 -7 15 -22 16 -34 0 -21 0 -21 9 2
12 28 18 28 47 0 19 -18 35 -22 78 -22 50 1 55 -1 66 -27 11 -29 33 -42 23
-14 -4 9 0 15 10 15 9 0 16 -5 16 -11 0 -5 5 -7 10 -4 6 3 14 -5 20 -19 5 -14
16 -26 23 -26 8 0 27 -11 43 -25 16 -14 37 -25 47 -25 9 0 17 -4 17 -9 0 -5
10 -13 21 -16 17 -6 19 -9 8 -16 -12 -8 -12 -11 1 -19 8 -5 11 -10 6 -10 -6 0
0 -9 12 -20 12 -11 26 -39 32 -63 6 -23 16 -56 21 -73 5 -18 11 -51 13 -75 2
-24 7 -51 10 -59 11 -26 -1 -203 -18 -262 -8 -31 -17 -74 -20 -94 -3 -32 -2
-35 9 -21 14 20 48 22 62 5 6 -8 7 -39 3 -73 -7 -59 -14 -67 -10 -12 2 29 -11
35 -28 15 -5 -7 -12 -59 -14 -116 l-5 -102 18 52 c9 29 19 62 22 73 4 16 5 14
6 -6 1 -34 -45 -195 -64 -222 -8 -12 -15 -31 -15 -42 0 -11 -10 -45 -21 -75
-25 -64 -67 -217 -76 -275 -3 -22 -11 -47 -18 -55 -17 -21 -29 -74 -15 -65 6
4 17 1 25 -5 12 -10 18 -10 29 -1 16 14 29 0 21 -22 -5 -11 8 -15 62 -20 37
-4 95 -15 128 -26 55 -17 61 -18 66 -2 3 9 9 90 13 181 4 91 13 302 21 470 8
168 19 409 25 535 5 127 12 277 15 335 6 119 30 628 45 950 6 118 19 393 30
610 11 217 22 449 25 515 3 66 10 192 15 280 5 88 12 223 15 300 3 77 7 176
10 220 10 173 25 435 30 540 l6 110 -28 11 c-134 55 -191 77 -254 100 -41 14
-87 32 -104 39 -102 42 -145 60 -182 76 -24 11 -49 19 -56 19 -7 0 -17 4 -23
8 -5 5 -45 23 -89 41 l-81 31 -759 -1 c-418 -1 -771 -5 -785 -9z m1373 -257
c-28 -11 -11 -21 27 -16 35 5 39 3 34 -11 -4 -11 -1 -16 11 -16 9 0 13 -4 10
-10 -3 -5 -1 -10 5 -10 6 0 8 -4 5 -10 -3 -6 1 -7 9 -4 11 4 16 0 16 -12 0 -9
3 -14 7 -11 9 9 32 -24 33 -46 0 -11 5 -16 13 -12 6 4 -3 -8 -22 -25 -20 -19
-40 -30 -51 -27 -11 3 -17 -1 -16 -12 1 -11 -8 -16 -28 -16 -20 -1 -32 -7 -37
-20 -4 -11 -8 -15 -8 -9 -1 7 -12 15 -26 18 -15 4 -22 11 -19 20 3 9 -3 17
-16 21 -12 4 -19 12 -16 20 2 7 -2 16 -10 19 -8 3 -14 12 -14 21 0 8 -4 15
-10 15 -5 0 -10 7 -10 15 0 8 -6 15 -12 15 -7 0 2 10 20 23 18 12 35 31 38 43
5 18 42 41 69 42 6 0 4 -2 -2 -5z m-23 -2094 c0 -25 22 -25 38 1 7 11 16 20
20 20 10 0 46 -63 44 -77 -2 -6 2 -14 8 -18 5 -3 10 -1 10 6 0 7 9 3 20 -9 22
-24 17 -57 -8 -47 -8 3 -19 0 -24 -7 -12 -20 -10 -24 18 -23 17 0 30 7 35 20
7 18 8 17 8 -6 1 -23 -4 -28 -36 -34 -24 -4 -32 -9 -24 -15 10 -5 7 -12 -10
-25 -15 -11 -18 -15 -6 -12 10 4 17 1 17 -7 0 -8 -14 -13 -42 -13 -24 0 -60
-4 -80 -8 -34 -6 -36 -5 -31 14 3 12 2 21 -3 20 -5 -1 -20 -1 -33 0 -19 1 -23
5 -19 26 3 13 2 22 -2 20 -4 -3 -13 1 -19 9 -12 14 -5 46 10 46 14 0 11 -18
-3 -23 -7 -2 -10 -7 -7 -11 7 -7 49 31 49 45 0 6 -9 8 -20 4 -23 -7 -28 13 -5
21 9 4 14 14 13 23 -2 10 3 15 15 15 9 -1 17 4 17 12 0 8 6 13 13 12 7 -2 13
9 15 25 4 30 22 27 22 -4z m466 -25 c20 -9 48 -13 61 -9 14 3 22 2 19 -4 -3
-5 0 -11 7 -14 9 -3 14 -25 15 -61 2 -69 -7 -75 -86 -52 -125 38 -173 68 -171
109 0 12 3 16 6 9 2 -7 13 -17 24 -22 15 -8 17 -7 13 4 -4 11 0 13 17 9 24 -7
21 4 -9 39 -13 16 -11 17 26 12 23 -2 58 -12 78 -20z m-41 -224 c128 -35 143
-43 138 -75 -6 -31 -17 -30 -153 15 -47 15 -94 30 -105 32 -11 2 -20 9 -19 16
1 6 2 24 3 38 1 24 2 25 29 11 15 -9 63 -25 107 -37z m-75 -87 c14 -2 34 -8
45 -13 11 -5 53 -18 93 -30 69 -20 72 -22 72 -50 0 -36 -12 -38 -96 -11 -32
11 -87 27 -121 38 -61 17 -63 19 -63 52 0 30 2 33 23 26 12 -3 33 -9 47 -12z
m-1106 -68 c48 -4 77 -17 66 -30 -7 -9 -6 -16 5 -25 9 -7 13 -21 10 -31 -4
-11 -2 -19 4 -19 6 0 8 -6 5 -14 -6 -17 -48 -36 -77 -36 -30 0 -73 24 -69 39
2 8 -3 9 -16 2 -14 -8 -18 -6 -19 10 -1 11 2 17 8 14 5 -4 9 2 9 13 0 10 3 22
7 26 4 3 8 14 9 22 5 31 14 45 26 38 6 -4 21 -8 32 -9z m1286 -407 c0 -17 7
-39 15 -48 16 -17 11 -50 -7 -50 -5 0 -7 -4 -3 -9 3 -5 -2 -16 -10 -24 -8 -9
-15 -20 -15 -26 0 -20 -48 -11 -78 14 -28 24 -29 26 -18 67 14 52 62 108 93
108 19 0 23 -5 23 -32z m-1744 -973 c-7 -18 10 -20 18 -2 3 6 3 2 1 -10 -3
-12 -2 -24 3 -27 14 -8 81 19 96 40 8 10 18 15 22 11 5 -4 2 -12 -6 -17 -23
-14 -23 -57 0 -80 27 -27 27 -64 0 -57 -14 3 -28 -5 -47 -27 -16 -18 -36 -30
-46 -28 -9 2 -15 8 -12 13 4 5 1 9 -5 9 -6 0 -8 5 -5 10 5 8 11 7 21 -1 11 -9
14 -7 14 10 0 17 -4 21 -19 16 -11 -3 -23 0 -27 6 -5 9 -9 7 -15 -7 -4 -12 -1
-26 9 -37 14 -16 13 -17 -14 -12 -16 2 -58 7 -94 10 -83 8 -97 15 -70 40 11
10 20 24 20 30 0 21 81 105 100 105 10 0 22 5 25 10 10 16 38 12 31 -5z m275
-87 c5 -100 10 -133 19 -136 13 -5 13 -42 0 -42 -5 0 -10 7 -10 16 0 8 -4 13
-9 9 -6 -3 -6 -18 -1 -36 9 -29 5 -96 -7 -129 -2 -8 -6 -33 -8 -55 -2 -22 -6
-58 -8 -80 -3 -22 0 -65 5 -95 10 -56 -2 -117 -20 -106 -13 8 -14 172 -2 416
9 216 15 260 31 260 5 0 10 -10 10 -22z m-745 -404 c13 -9 42 -18 63 -19 25
-1 49 -12 70 -31 29 -26 31 -31 25 -73 -9 -72 -13 -81 -39 -81 -18 0 -24 7
-29 36 -5 24 -12 34 -20 31 -8 -3 -19 5 -26 19 -7 13 -21 26 -32 30 -10 3 -18
10 -18 16 0 7 -4 7 -12 1 -23 -16 -42 -9 -53 21 -8 24 -6 31 14 47 28 23 26
23 57 3z m1643 -755 c-12 -7 -12 -9 0 -9 9 0 12 -8 9 -25 -4 -17 -1 -25 8 -25
8 0 14 5 14 11 0 6 9 9 20 6 22 -6 29 18 8 27 -7 2 3 3 22 1 62 -6 85 -25 88
-73 2 -23 -1 -49 -8 -57 -6 -8 -9 -19 -5 -25 3 -5 0 -10 -7 -10 -79 -3 -133
-12 -140 -25 -10 -17 -38 -9 -38 11 0 8 10 14 25 14 14 0 25 5 25 10 0 13 -47
13 -55 0 -5 -8 -11 -7 -21 1 -12 10 -11 14 6 29 19 16 18 17 -33 14 -33 -2
-45 -1 -32 4 70 29 105 46 105 54 0 4 -5 8 -11 8 -5 0 -7 5 -4 10 3 6 2 10 -2
10 -5 0 -14 -9 -21 -20 -16 -25 -43 -26 -65 0 -25 30 -11 47 51 63 57 14 86
12 61 -4z"/>
<path d="M7933 9581 c2 -10 12 -15 25 -14 26 3 28 -4 5 -29 -14 -16 -15 -23
-5 -39 10 -16 9 -22 -8 -39 -11 -11 -22 -20 -24 -20 -3 0 -4 21 -2 48 1 26 1
55 -2 65 -4 16 -7 16 -38 -4 -30 -18 -37 -19 -51 -7 -14 11 -16 11 -8 -2 9
-15 11 -19 13 -52 2 -21 32 -13 32 8 0 15 38 39 48 30 3 -3 0 -6 -7 -6 -7 0
-9 -5 -6 -10 3 -6 -3 -23 -15 -39 -19 -27 -19 -30 -3 -34 16 -4 16 -5 -1 -6
-12 -1 -16 -6 -12 -17 3 -9 6 -20 6 -26 0 -7 4 -7 13 0 14 12 53 6 74 -11 9
-6 15 -5 18 5 4 10 16 13 36 10 37 -5 49 -22 15 -22 -52 0 -32 -15 22 -17 40
-1 51 1 37 7 -11 5 -14 9 -7 9 8 1 12 9 10 19 -2 12 -11 16 -33 14 -22 -2 -26
0 -15 7 8 5 18 7 22 5 4 -3 8 4 8 15 0 20 -23 23 -62 6 -21 -8 -38 1 -38 22 0
10 5 13 18 8 30 -12 36 -10 40 10 5 23 21 45 33 45 4 0 11 -20 15 -45 3 -25
10 -47 14 -50 9 -6 30 48 30 76 0 11 5 19 12 19 9 0 9 3 1 11 -14 14 -55 2
-47 -14 3 -7 -1 -4 -9 6 -10 12 -17 14 -22 8 -3 -6 -11 -11 -17 -11 -6 0 -3 9
6 19 24 26 12 44 -25 36 -22 -5 -29 -3 -29 8 0 11 -10 15 -35 14 -27 -1 -35
-5 -32 -16z"/>
<path d="M8130 9583 c0 -11 -6 -14 -25 -9 -18 5 -25 2 -25 -9 0 -10 10 -15 28
-15 47 0 54 -11 38 -58 -9 -23 -13 -49 -10 -57 4 -8 2 -15 -3 -15 -4 0 -7 -20
-5 -45 3 -37 1 -44 -11 -39 -8 3 -18 0 -23 -7 -4 -7 -2 -15 4 -17 7 -2 12 -21
12 -42 0 -21 5 -42 10 -45 6 -4 10 7 10 26 0 45 24 22 25 -25 1 -29 -1 -33
-19 -29 -16 4 -18 2 -7 -5 8 -6 11 -17 7 -27 -4 -13 -2 -16 9 -11 8 3 15 1 15
-4 0 -6 6 -10 14 -10 8 0 16 -7 20 -15 6 -17 51 -20 61 -5 3 6 19 10 35 10 28
0 33 -11 16 -38 -5 -8 -1 -21 10 -33 21 -23 40 -25 48 -4 3 8 12 15 21 15 8 0
15 5 15 11 0 6 -7 8 -16 5 -11 -4 -14 -1 -12 11 4 24 38 26 38 2 0 -10 4 -19
9 -19 14 0 19 48 7 60 -8 8 -7 13 3 20 12 7 12 12 3 23 -10 12 -9 16 3 21 8 3
15 1 15 -5 0 -6 5 -7 10 -4 32 20 -16 91 -54 79 -19 -6 -19 -6 -3 11 14 14 20
15 32 5 13 -10 15 -8 15 12 0 13 6 30 13 37 10 10 9 15 -5 25 -22 16 -23 27
-3 20 9 -4 15 0 15 9 0 8 -7 20 -15 27 -8 7 -15 17 -15 22 0 6 7 5 15 -2 18
-15 20 1 3 29 -14 22 -3 55 14 45 8 -5 8 -1 -1 10 -13 15 -13 19 0 27 12 8 12
10 -1 19 -22 14 -28 12 -35 -11 -5 -15 -10 -18 -18 -10 -7 7 -3 16 14 30 l24
20 -33 1 c-20 0 -31 -4 -27 -10 3 -5 -1 -10 -9 -10 -9 0 -16 4 -16 9 0 6 -52
10 -120 10 -101 0 -120 -3 -120 -16z"/>
<path d="M6787 8944 c5 -42 3 -54 -8 -54 -11 0 -11 -2 1 -11 12 -9 11 -10 -7
-6 -22 5 -23 3 -22 -61 1 -52 3 -60 9 -37 7 28 8 27 9 -12 0 -24 -3 -43 -9
-43 -5 0 -10 -7 -10 -16 0 -21 49 -64 72 -64 9 0 20 -9 23 -20 5 -17 10 -18
27 -9 18 10 19 8 13 -11 -6 -20 -4 -21 23 -15 22 4 31 2 35 -9 4 -9 11 -16 17
-16 6 0 8 5 5 10 -3 6 2 10 11 10 14 0 15 -3 6 -12 -15 -15 -16 -38 -2 -38 6
0 10 7 10 15 0 17 16 20 25 5 4 -6 10 -8 14 -6 4 3 13 0 21 -5 12 -8 12 -12 3
-16 -7 -2 -13 -11 -13 -19 0 -16 26 -19 35 -4 11 18 26 10 40 -22 l14 -33 1
33 c0 17 4 32 8 32 15 0 30 -22 25 -36 -3 -8 1 -14 11 -14 9 0 16 5 16 10 0 6
4 10 8 10 5 0 7 -15 5 -32 -3 -29 -2 -30 7 -10 11 25 30 30 30 7 0 -8 9 -15
20 -15 22 0 27 16 8 23 -7 2 -9 8 -5 13 4 5 11 4 15 -2 4 -6 16 -14 27 -19 19
-8 19 -9 -2 -12 -13 -3 -23 -9 -23 -15 0 -7 16 -9 45 -5 25 4 47 2 50 -3 3 -6
-3 -10 -14 -10 -12 0 -21 -4 -21 -10 0 -5 5 -10 10 -10 6 0 10 -7 10 -15 0 -8
5 -15 10 -15 6 0 10 9 10 20 0 26 25 36 53 22 12 -6 36 -13 52 -14 26 -3 30
-6 27 -30 -1 -16 2 -28 7 -28 6 0 8 6 5 13 -6 17 21 41 37 32 8 -6 8 -10 -2
-16 -7 -4 -10 -11 -6 -16 4 -4 16 -2 27 5 15 9 25 8 47 -3 15 -8 22 -15 14
-15 -8 0 -11 -6 -7 -15 4 -11 -2 -15 -24 -15 -17 0 -30 -4 -30 -9 0 -16 40
-23 55 -11 8 7 20 8 27 4 7 -5 19 -9 27 -11 17 -2 32 -24 24 -36 -3 -4 -11 -6
-19 -3 -8 3 -14 1 -14 -4 0 -6 9 -10 19 -10 17 0 18 -4 10 -42 -13 -56 -22
-68 -29 -39 -3 14 -11 26 -18 29 -9 3 -7 -7 5 -32 9 -20 24 -36 32 -36 14 0
14 -2 1 -9 -8 -6 -17 -8 -20 -6 -3 2 -5 -14 -5 -35 0 -21 3 -36 7 -34 5 3 8
-7 8 -21 0 -15 5 -35 10 -46 12 -21 1 -26 -17 -8 -8 8 -13 8 -17 0 -4 -6 -25
-11 -47 -11 -21 0 -39 -5 -39 -11 0 -6 6 -9 13 -6 6 2 20 0 31 -5 12 -7 22 -6
29 1 16 16 27 13 27 -8 0 -15 -5 -18 -21 -14 -18 5 -20 3 -14 -16 5 -15 2 -21
-9 -21 -21 0 -21 -39 1 -47 28 -11 48 -37 45 -57 -3 -11 0 -16 7 -12 6 4 11 1
11 -8 0 -8 -4 -17 -10 -21 -5 -3 -7 -12 -4 -20 3 -7 -3 -19 -14 -26 -11 -7
-18 -19 -15 -26 3 -8 -2 -13 -13 -11 -36 3 -55 -2 -49 -12 8 -12 -5 -13 -24
-1 -9 6 -10 11 -2 15 6 4 11 14 11 22 0 20 -29 49 -38 39 -4 -4 -1 -10 6 -12
15 -6 16 -36 0 -31 -24 8 -34 37 -20 59 8 12 9 18 4 15 -5 -3 -12 2 -14 12 -4
15 1 17 34 14 36 -4 55 -22 22 -22 -8 0 -12 -4 -9 -10 10 -17 32 -11 38 10 5
21 37 28 37 9 0 -12 -20 -34 -36 -40 -6 -2 0 -15 13 -29 25 -25 25 -25 18 -2
-4 13 -2 22 4 22 6 0 8 7 4 16 -5 13 -2 15 15 9 26 -7 28 0 7 21 -8 8 -19 23
-24 32 -8 14 -12 15 -22 5 -7 -7 -23 -13 -34 -13 -22 0 -65 38 -65 57 0 6 -7
14 -16 17 -16 6 -16 6 3 -41 3 -7 0 -13 -7 -13 -6 0 -8 -5 -5 -10 4 -6 -7 -13
-24 -16 -37 -8 -39 -16 -9 -29 30 -13 35 -41 9 -50 -29 -9 -26 -23 6 -31 23
-6 24 -8 10 -19 -10 -7 -17 -17 -17 -23 0 -19 -36 -33 -48 -19 -15 18 -12 67
4 67 8 0 14 9 14 19 0 11 6 22 13 24 10 4 10 6 0 6 -7 1 -13 8 -13 17 0 22
-58 42 -106 37 l-41 -5 5 -49 c3 -30 1 -49 -6 -49 -6 0 -14 -14 -17 -32 -6
-24 -3 -35 10 -44 9 -7 14 -17 10 -23 -11 -19 -20 -12 -32 26 -8 28 -9 41 0
51 8 10 8 15 -1 21 -7 4 -10 15 -6 24 4 13 1 17 -14 17 -12 0 -24 5 -28 12 -5
7 -3 8 6 3 10 -6 12 -4 7 9 -4 10 -7 20 -7 22 0 2 -17 4 -37 4 -42 0 -57 7
-66 30 -5 10 -6 9 -4 -5 1 -11 12 -24 24 -30 11 -6 27 -16 35 -23 8 -6 18 -9
21 -5 4 3 7 -3 7 -15 0 -12 6 -22 13 -22 8 0 13 -15 14 -40 2 -44 -22 -58 -30
-17 -3 20 -4 20 -12 3 -4 -10 -4 -21 2 -25 19 -12 34 -49 22 -56 -5 -4 -14
-18 -20 -32 -10 -27 -29 -22 -29 8 0 11 -7 19 -17 19 -15 0 -16 2 -3 10 13 8
13 10 -1 10 -9 0 -19 -7 -23 -15 -3 -8 -15 -14 -27 -12 -12 1 -24 -4 -26 -10
-3 -9 6 -13 26 -13 17 0 31 5 31 12 0 9 3 9 12 0 9 -9 9 -15 0 -24 -9 -9 -3
-15 25 -24 20 -7 40 -11 45 -8 4 3 8 2 9 -3 0 -4 3 -20 5 -35 5 -33 -10 -37
-26 -8 -13 25 -62 24 -70 -2 -4 -14 -10 -13 -40 12 -29 25 -32 31 -20 40 11 7
11 10 2 10 -7 0 -16 -8 -19 -17 -4 -9 -16 -26 -27 -37 -22 -22 -6 -37 18 -17
10 8 17 7 26 -4 7 -8 19 -15 26 -15 8 0 14 -4 14 -10 0 -16 -22 -12 -36 8 -13
16 -14 15 -20 -6 -5 -16 -12 -21 -25 -17 -22 7 -26 -10 -4 -19 25 -9 17 -26
-12 -27 -25 0 -26 -1 -8 -9 18 -7 18 -9 3 -15 -9 -4 -21 -4 -26 -1 -16 10 -37
-23 -24 -36 9 -9 12 -9 12 0 0 7 9 12 20 12 28 0 25 -14 -5 -28 -17 -8 -25
-19 -24 -34 l2 -23 4 23 c4 18 11 22 44 22 29 0 39 -4 39 -16 0 -13 3 -14 13
-5 8 6 17 8 20 4 13 -13 7 -23 -14 -23 -16 0 -19 -3 -12 -12 13 -17 14 -58 2
-58 -19 0 -8 -19 14 -22 12 -2 21 -9 19 -16 -1 -6 2 -12 7 -12 4 0 6 -10 4
-23 -5 -24 29 -72 41 -60 4 4 11 1 16 -7 14 -22 12 -30 -6 -30 -11 0 -14 -5
-10 -16 3 -9 6 -20 6 -25 0 -4 6 -6 14 -3 8 3 12 13 9 24 -3 12 2 20 16 25 12
3 21 10 21 15 0 5 6 7 14 4 22 -9 30 16 10 31 -14 10 -21 10 -26 2 -5 -8 -10
-9 -17 -2 -8 8 -5 16 9 28 11 9 20 12 20 7 0 -6 4 -10 10 -10 17 0 50 -34 50
-52 0 -9 -7 -21 -16 -26 -11 -6 -15 -17 -12 -30 3 -11 2 -26 -3 -33 -7 -11 -9
-10 -9 4 0 9 -7 17 -15 17 -8 0 -15 5 -15 11 0 5 -5 7 -11 3 -8 -4 -8 -9 0
-17 16 -16 13 -35 -8 -56 -12 -12 -16 -23 -10 -32 8 -12 10 -12 18 0 7 11 10
9 14 -10 3 -15 5 -8 6 19 0 23 6 42 11 42 9 0 15 -46 12 -97 -1 -21 4 -23 51
-23 l52 0 -25 -20 c-14 -11 -33 -17 -43 -14 -11 3 -28 -6 -48 -25 -36 -36 -49
-39 -56 -11 -3 11 -9 20 -13 20 -5 0 -6 -10 -3 -21 5 -18 3 -20 -16 -14 -13 4
-21 2 -21 -5 0 -6 -8 -10 -17 -8 -11 2 -25 -7 -35 -24 -11 -18 -26 -28 -41
-28 -26 0 -103 -35 -125 -56 -7 -8 -24 -14 -36 -14 -13 0 -29 -7 -36 -15 -7
-8 -24 -15 -37 -15 -17 0 -27 -7 -30 -21 -4 -16 -12 -20 -29 -16 -19 3 -24 0
-24 -16 0 -16 3 -17 15 -7 8 7 25 10 39 6 14 -3 28 -1 31 4 4 6 10 8 15 5 5
-3 11 -1 15 4 3 6 33 13 66 17 39 4 64 13 72 24 7 9 19 17 27 18 43 5 60 9 74
21 8 7 20 10 26 6 6 -4 17 -2 24 4 9 8 18 7 32 -4 10 -8 26 -15 34 -15 9 0 23
-9 32 -20 10 -11 30 -23 45 -26 15 -4 30 -10 33 -15 3 -4 22 -9 43 -10 33 -3
41 0 57 26 17 28 17 32 2 64 -23 46 -42 52 -42 12 0 -21 5 -31 15 -31 9 0 15
-9 15 -22 l0 -21 -19 21 c-10 12 -26 22 -35 22 -11 0 -16 9 -16 30 0 17 -4 30
-10 30 -5 0 -10 -7 -10 -15 0 -22 -37 -18 -43 5 -4 15 0 20 16 21 22 1 28 1
61 -9 15 -4 17 -1 11 17 -6 21 -5 21 53 15 53 -5 61 -3 65 13 3 13 6 9 12 -14
9 -38 49 -52 96 -33 41 17 45 8 8 -19 -26 -19 -38 -22 -80 -16 -50 7 -71 21
-49 35 9 5 8 9 -3 13 -9 3 -21 -1 -28 -10 -11 -12 -10 -17 3 -27 8 -6 19 -27
23 -46 4 -19 10 -29 12 -22 3 6 13 12 23 12 19 0 30 -17 23 -37 -6 -16 -45
-17 -60 -2 -9 9 -16 8 -27 -4 -9 -9 -16 -20 -16 -26 0 -16 -51 -25 -71 -12
-10 6 -27 11 -36 11 -14 0 -15 -2 -5 -9 11 -7 10 -10 -3 -15 -9 -3 -26 -6 -38
-6 -12 0 -34 -6 -49 -14 -24 -12 -29 -12 -47 5 -12 11 -22 15 -26 9 -3 -6 -1
-10 4 -10 19 0 12 -17 -9 -23 -13 -3 -20 0 -20 9 0 16 -16 19 -24 5 -4 -5 0
-11 6 -14 7 -2 0 -8 -17 -12 -16 -4 -35 -14 -42 -22 -13 -17 -48 -10 -38 8 7
11 0 8 -55 -21 -14 -7 -36 -15 -50 -16 -69 -7 -170 -40 -170 -56 0 -11 123 1
130 13 8 11 141 39 210 44 30 3 73 7 95 11 37 6 39 5 25 -11 -14 -17 -13 -18
19 -12 l34 7 -21 -19 -22 -18 31 -7 c18 -3 29 -11 27 -18 -7 -20 -50 -39 -79
-35 -18 2 -25 -1 -22 -9 3 -7 -4 -10 -20 -7 -23 4 -46 -12 -34 -23 8 -8 40 -8
70 -1 15 4 27 3 27 -2 0 -5 -10 -11 -22 -14 -17 -3 -11 -6 20 -12 23 -4 42
-11 42 -16 0 -4 19 -10 43 -12 30 -2 24 -4 -25 -5 -37 -1 -69 -6 -72 -11 -3
-5 -27 -12 -52 -16 -46 -7 -84 -23 -84 -36 0 -4 8 -5 18 -2 12 3 22 -3 29 -19
19 -42 -7 -66 -33 -30 -12 16 -14 16 -27 -2 -10 -13 -16 -15 -21 -8 -10 16
-36 15 -36 0 0 -12 -9 -13 -78 -9 -7 1 -11 5 -8 10 3 4 -6 6 -21 3 -18 -3 -24
-1 -19 7 5 7 -1 11 -16 11 -19 0 -20 -2 -8 -11 15 -10 -16 -9 -117 7 -32 4
-44 3 -47 -7 -3 -8 -7 -78 -11 -156 l-6 -143 33 0 c19 0 43 -7 54 -15 19 -15
19 -15 0 -30 -11 -8 -34 -15 -52 -15 -31 0 -31 -1 -38 -60 -4 -33 -7 -110 -7
-172 0 -62 -2 -183 -5 -268 -4 -109 -2 -151 5 -140 15 21 13 8 -3 -26 -9 -18
-17 -82 -21 -171 l-7 -141 31 -17 c36 -18 33 -36 -4 -29 -24 4 -25 2 -26 -48
0 -29 -2 -81 -4 -115 l-4 -63 39 -6 c39 -6 59 -29 41 -47 -11 -11 -73 1 -65
14 3 5 0 9 -5 9 -6 0 -11 -6 -11 -12 0 -7 -3 -79 -7 -159 l-6 -146 24 -7 24
-6 -22 -18 c-18 -13 -23 -29 -25 -76 l-3 -58 80 -44 c44 -23 103 -54 130 -68
28 -14 87 -45 133 -70 96 -53 105 -49 77 39 -19 63 -16 80 33 154 27 41 35 63
35 97 l0 45 106 -6 c58 -4 111 -11 117 -15 5 -5 26 -7 45 -4 44 6 68 -8 50
-30 -9 -10 -11 -25 -6 -43 14 -48 14 -57 3 -70 -5 -7 -11 -46 -11 -88 -2 -59
-5 -75 -17 -75 -8 0 -24 -7 -34 -15 -18 -13 -16 -14 17 -10 57 7 79 -6 84 -48
2 -25 -1 -37 -9 -38 -32 -3 -146 2 -180 7 -26 4 -44 1 -60 -10 -12 -9 -32 -16
-44 -16 -29 0 -25 -21 11 -62 52 -58 158 -269 172 -341 3 -18 13 -45 21 -62 9
-16 19 -50 23 -75 37 -217 48 -263 71 -287 22 -24 22 -25 4 -38 -15 -11 -17
-21 -12 -50 8 -40 33 -55 92 -55 19 0 37 -6 39 -12 3 -7 7 -74 9 -148 2 -74 6
-144 8 -154 5 -21 44 -40 53 -26 3 5 12 7 20 3 8 -3 15 0 15 6 0 6 7 11 15 11
20 0 19 -20 -2 -37 -17 -14 -17 -14 2 -8 91 32 122 46 140 63 11 10 34 21 52
24 27 4 34 1 42 -21 14 -36 22 -250 10 -273 -9 -17 -11 -17 -41 4 -22 16 -32
19 -35 11 -3 -7 -14 -13 -25 -13 -18 0 -20 4 -14 33 4 23 3 28 -4 17 -6 -9
-10 -10 -10 -3 0 16 -44 10 -62 -8 -8 -8 -13 -20 -10 -27 2 -6 -2 -12 -9 -12
-10 0 -10 -3 -1 -12 18 -18 14 -33 -13 -48 -20 -11 -27 -11 -40 0 -12 10 -15
10 -15 -3 0 -11 -9 -15 -30 -15 -48 2 -48 7 -11 128 4 15 3 33 -3 43 -9 14 -7
20 7 28 9 6 17 17 17 26 0 13 -3 14 -12 5 -7 -7 -20 -12 -30 -12 -10 0 -18 -3
-19 -7 0 -5 -2 -26 -4 -48 -3 -22 -7 -70 -9 -108 -3 -37 -8 -73 -13 -79 -4 -7
-6 -27 -4 -45 3 -43 -11 -67 -20 -33 -7 24 -7 24 -8 -4 -1 -16 6 -38 16 -48
20 -22 22 -91 3 -133 -7 -16 -14 -33 -14 -37 -1 -3 -4 -10 -8 -14 -15 -14 -8
-179 13 -314 11 -74 22 -148 23 -165 12 -108 52 -259 66 -250 13 8 32 -43 23
-58 -5 -7 -10 0 -14 18 -5 21 -7 12 -6 -29 1 -49 -2 -61 -21 -76 -12 -10 -22
-25 -22 -33 0 -20 -26 -41 -35 -27 -3 5 -1 10 4 10 6 0 11 4 11 9 0 5 -9 7
-20 4 -20 -5 -29 -33 -10 -33 6 0 10 -8 10 -17 -1 -17 -1 -17 -11 0 -5 9 -14
17 -18 17 -14 0 -27 -80 -26 -152 0 -37 -2 -63 -6 -57 -9 16 -26 -11 -34 -55
-7 -36 -6 -38 14 -32 11 3 30 9 42 12 17 5 20 11 15 35 -3 16 -1 29 4 29 6 0
10 -9 10 -20 0 -11 5 -20 10 -20 6 0 10 5 10 10 0 6 8 10 18 9 10 0 12 -3 4
-6 -6 -2 -10 -9 -6 -14 3 -5 12 -5 22 0 9 5 34 12 55 15 21 3 48 11 60 18 12
6 51 11 87 12 36 1 71 5 78 10 7 4 16 6 19 3 2 -3 26 1 51 9 26 7 58 14 72 14
15 0 31 5 37 11 9 9 41 16 81 18 8 1 12 13 11 34 -1 17 6 60 15 93 9 34 16 78
16 97 0 46 36 124 60 132 13 4 21 16 22 36 1 16 2 41 3 57 2 15 5 122 9 237 4
116 9 235 11 265 3 30 7 156 10 280 3 124 7 277 10 340 3 63 7 167 10 230 2
63 7 198 10 300 3 102 8 214 10 250 3 36 7 169 10 295 3 127 7 286 10 355 17
429 17 540 1 540 -19 0 -38 34 -30 54 3 9 14 16 24 16 25 0 29 37 35 395 4
171 8 316 10 322 3 7 5 102 6 210 1 109 5 254 9 323 5 69 11 222 14 340 4 118
14 368 21 555 8 187 17 403 20 480 3 77 7 192 10 255 3 63 7 210 10 325 3 116
8 248 12 295 4 47 7 132 8 190 3 221 18 525 25 534 5 5 16 6 25 2 16 -6 17
-28 12 -244 -3 -130 -1 -217 3 -192 4 25 9 133 11 240 l4 194 -25 12 c-14 7
-56 25 -95 40 -38 14 -83 32 -100 40 -41 18 -162 64 -169 64 -3 0 -30 11 -60
25 -30 14 -58 25 -61 25 -7 0 -43 15 -123 51 -23 10 -47 19 -52 19 -5 0 -35
12 -67 26 -32 15 -87 37 -123 50 -64 22 -159 59 -234 92 -22 9 -44 17 -50 17
-6 0 -27 8 -46 17 -19 9 -55 24 -80 33 -25 9 -63 25 -85 35 -22 9 -55 21 -73
25 -18 3 -52 18 -76 31 -24 14 -60 25 -79 26 -20 1 -35 6 -34 12 1 6 -7 11
-18 12 -11 0 -28 3 -37 7 -47 18 -47 19 -41 -39z m241 -3598 c57 -8 106 -17
109 -20 14 -13 -77 -183 -96 -178 -6 1 -23 -10 -36 -25 -21 -24 -26 -26 -35
-13 -6 10 -10 11 -10 3 0 -19 -46 -16 -66 4 -12 12 -34 17 -80 18 -34 0 -66 3
-69 7 -8 8 11 44 44 84 14 17 38 54 53 83 32 59 27 58 186 37z"/>
<path d="M7410 8009 c0 -5 5 -9 10 -9 6 0 10 -9 10 -21 0 -15 -5 -19 -15 -15
-20 7 -19 -1 4 -25 18 -20 18 -69 -1 -69 -5 0 -6 -15 -2 -35 6 -32 4 -35 -17
-35 -21 0 -22 1 -5 13 15 11 17 17 7 35 -20 37 -36 25 -34 -26 1 -7 -7 -11
-16 -10 -12 2 -16 -4 -16 -24 1 -16 -5 -28 -12 -28 -8 0 -13 13 -13 33 0 42
-10 77 -21 77 -5 0 -6 -18 -3 -39 4 -23 2 -46 -6 -57 -8 -14 -10 -15 -7 -3 3
10 -6 28 -22 43 -23 22 -30 24 -39 13 -8 -10 -6 -16 9 -25 10 -7 19 -17 19
-22 0 -17 -28 -11 -39 7 -5 10 -13 14 -17 10 -20 -20 80 -64 103 -45 9 7 17 7
28 -2 12 -10 20 -9 40 4 22 14 25 15 25 1 0 -24 17 -17 41 18 13 17 27 35 33
39 6 4 6 16 -2 33 -18 40 -15 45 28 45 22 0 40 4 40 10 0 5 11 12 25 16 14 3
25 10 25 15 0 5 7 9 15 9 8 0 15 7 15 15 0 12 -4 14 -19 5 -24 -12 -38 4 -22
24 9 10 8 15 -4 20 -10 3 -15 -1 -15 -13 0 -23 -24 -71 -41 -82 -7 -4 -23 -2
-35 3 -21 10 -23 16 -19 57 4 41 2 47 -15 48 -11 1 -20 -2 -20 -8z"/>
<path d="M6990 7456 c0 -16 -30 -26 -78 -26 -29 0 -32 -3 -27 -20 6 -18 2 -20
-37 -20 -39 0 -45 -3 -57 -32 -11 -24 -11 -33 -3 -36 19 -6 14 -22 -7 -22 -15
0 -20 -10 -25 -45 -4 -25 -13 -45 -19 -45 -8 0 -8 -3 1 -9 11 -7 11 -11 -2
-24 -16 -16 -21 -37 -9 -37 18 0 73 54 73 72 0 16 5 19 20 15 17 -4 20 -2 15
14 -4 11 -2 19 5 19 6 0 33 23 61 51 27 27 53 47 59 44 6 -3 7 1 4 9 -3 9 -1
16 5 16 7 0 19 16 27 35 17 40 18 55 4 55 -5 0 -10 -6 -10 -14z"/>
<path d="M5267 4804 c-3 -3 -3 -12 0 -20 3 -8 0 -21 -7 -29 -6 -8 -9 -19 -5
-26 5 -8 1 -9 -15 -4 -12 4 -21 3 -18 -1 2 -5 13 -29 25 -54 12 -25 32 -56 45
-70 13 -14 27 -33 31 -42 3 -10 13 -18 22 -18 8 0 15 -4 15 -9 0 -14 41 -24
52 -13 6 6 4 20 -6 40 -15 30 -15 31 10 51 32 25 22 45 -17 37 -16 -3 -29 -1
-29 4 0 6 -4 10 -9 10 -17 0 -63 49 -57 59 4 5 -3 15 -15 21 -20 11 -20 12 -2
25 17 13 17 14 1 20 -10 4 -15 11 -12 16 6 10 0 12 -9 3z"/>
<path d="M4145 3958 c-2 -7 -3 -22 -2 -33 1 -15 -4 -20 -22 -20 -14 0 -26 -6
-29 -13 -2 -6 3 -12 12 -12 22 0 20 -22 -5 -75 -22 -47 -20 -75 6 -75 17 0 21
-25 5 -35 -6 -4 -8 -15 -5 -26 4 -12 1 -21 -10 -25 -25 -10 -29 3 -11 30 15
24 13 56 -5 56 -5 0 -12 -12 -15 -27 -4 -16 -11 -34 -16 -40 -6 -7 -8 -19 -5
-27 3 -8 -1 -20 -9 -27 -8 -6 -12 -20 -9 -29 3 -11 -1 -20 -10 -24 -18 -6 -21
-50 -3 -44 7 3 15 15 18 28 3 13 11 25 18 28 16 5 27 -25 14 -41 -5 -6 -13
-25 -17 -42 -5 -16 -10 -34 -11 -40 -13 -39 -15 -65 -5 -65 6 0 11 11 11 24 0
14 5 28 10 31 6 3 10 17 10 30 0 12 6 25 14 28 9 4 12 14 9 25 -2 11 0 23 6
26 6 4 11 18 11 32 0 13 5 24 10 24 6 0 10 13 10 29 0 17 5 33 10 36 6 3 10
15 10 26 0 23 29 37 40 19 6 -9 11 -7 20 10 11 20 10 21 -9 15 -25 -7 -41 19
-22 38 6 6 11 21 11 33 0 13 5 26 10 29 15 10 12 35 -5 35 -8 0 -15 5 -15 10
0 10 7 12 44 14 11 1 21 7 24 14 3 10 -5 13 -29 10 -21 -2 -34 2 -37 11 -3 10
2 12 21 8 17 -5 29 -2 38 10 13 15 11 16 -18 10 -18 -3 -35 -2 -38 3 -9 14
-25 12 -30 -2z"/>
<path d="M3904 3693 c-11 -16 -19 -39 -19 -53 0 -15 -6 -26 -17 -28 -21 -4
-25 27 -7 45 13 13 3 36 -12 28 -5 -4 -9 -17 -9 -30 0 -13 -4 -26 -9 -29 -8
-5 -23 -55 -25 -83 -1 -6 -5 -15 -9 -19 -4 -4 -7 -22 -7 -41 0 -19 -6 -36 -14
-39 -8 -3 -11 -14 -9 -28 3 -13 0 -27 -6 -30 -16 -10 -13 -36 4 -36 9 0 15 9
15 24 0 14 5 28 10 31 6 3 10 19 10 35 0 16 5 32 11 36 6 3 9 15 6 25 -3 11 1
26 9 33 8 8 12 21 9 29 -3 7 1 20 9 27 13 10 17 9 22 -4 3 -9 0 -24 -7 -33 -8
-9 -12 -25 -11 -36 2 -11 -1 -23 -7 -27 -7 -3 -9 -14 -5 -24 9 -23 34 -2 34
30 0 12 5 26 10 29 6 4 8 11 5 16 -7 10 13 77 27 94 4 5 8 19 8 31 0 13 5 26
10 29 6 3 10 10 10 16 0 18 -18 9 -36 -18z"/>
<path d="M3387 2734 c-3 -3 -2 -17 3 -30 7 -18 6 -24 -5 -24 -7 0 -17 5 -20
10 -9 15 -25 12 -25 -5 0 -8 9 -15 20 -15 23 0 23 4 9 -77 -7 -37 -16 -63 -23
-63 -19 0 -27 12 -16 24 6 8 3 16 -9 23 -16 10 -18 7 -15 -45 1 -32 6 -68 10
-81 6 -19 4 -23 -7 -19 -8 3 -25 8 -39 12 -22 5 -23 5 -5 -4 19 -10 50 -80 35
-80 -7 0 -2 -98 6 -120 5 -12 8 -11 14 5 4 11 3 25 -2 32 -6 7 -5 14 2 18 28
18 35 -40 9 -74 -20 -25 -25 -56 -10 -65 5 -3 12 1 15 10 8 20 26 8 26 -17 0
-16 -6 -20 -27 -17 -20 2 -29 -2 -31 -14 -2 -13 3 -18 17 -18 11 0 23 -4 26
-10 10 -16 -14 -50 -30 -44 -8 4 -15 2 -15 -4 0 -5 10 -12 21 -15 15 -4 20
-11 15 -23 -5 -13 -2 -15 19 -10 27 7 33 -5 12 -23 -9 -7 -13 -30 -13 -63 1
-48 3 -53 23 -50 21 3 22 0 17 -55 -2 -32 -7 -71 -9 -88 -3 -16 -7 -46 -9 -65
-3 -19 -7 -44 -11 -55 -5 -17 -1 -20 32 -22 20 -1 44 3 51 10 12 9 14 8 10 -8
-2 -11 -11 -20 -19 -20 -21 0 -50 -25 -43 -36 3 -5 14 -4 26 2 19 10 20 9 13
-17 -4 -16 -7 -41 -6 -56 1 -16 -4 -29 -11 -30 -7 0 -17 -2 -23 -2 -20 -3 -35
-17 -35 -34 0 -13 2 -13 14 4 19 26 32 11 18 -21 -7 -14 -8 -34 -3 -46 6 -19
9 -20 14 -6 9 25 29 21 25 -5 -2 -13 -10 -23 -18 -23 -8 0 -16 -7 -18 -16 -2
-11 4 -15 20 -15 17 1 24 -5 26 -22 3 -20 0 -23 -15 -18 -19 6 -63 -32 -63
-54 0 -20 31 -9 42 15 6 14 15 25 20 25 11 0 10 -14 -2 -26 -7 -7 -8 -25 -1
-55 5 -24 8 -46 5 -48 -2 -3 -21 -5 -41 -6 -20 0 -38 -6 -41 -13 -2 -8 2 -10
13 -5 15 5 17 1 13 -31 -3 -31 0 -41 19 -53 25 -17 31 -43 10 -43 -7 0 -18 5
-24 11 -6 6 -67 16 -135 21 -67 5 -130 13 -138 16 -24 9 -104 12 -94 3 18 -17
194 -45 270 -43 27 0 31 -3 26 -20 -2 -11 -11 -22 -18 -25 -22 -8 -17 -35 5
-28 11 3 22 1 26 -5 3 -6 11 -8 16 -5 5 4 9 1 9 -5 0 -7 -8 -9 -19 -5 -28 9
-35 -12 -11 -32 11 -10 20 -23 20 -29 0 -7 13 -25 28 -42 16 -16 34 -49 42
-72 12 -36 12 -43 -1 -51 -22 -14 -28 -11 -22 11 4 15 1 18 -16 15 -12 -2 -21
0 -21 6 0 11 -37 12 -44 1 -2 -4 2 -16 10 -27 8 -10 14 -13 14 -7 0 7 5 12 10
12 6 0 10 -7 10 -15 0 -8 -4 -15 -10 -15 -5 0 -10 -7 -10 -16 0 -10 6 -14 15
-10 8 3 14 2 14 -2 -3 -17 2 -32 9 -31 29 5 48 -24 21 -33 -7 -2 -11 -28 -10
-62 0 -63 8 -84 18 -48 3 12 9 22 14 22 12 0 12 -17 0 -24 -5 -3 -7 -16 -4
-29 4 -17 2 -19 -6 -7 -5 8 -13 12 -16 8 -7 -6 -7 -8 -5 -123 2 -135 0 -179
-7 -172 -3 4 -7 28 -7 54 -1 41 -4 48 -21 48 -13 0 -21 8 -23 23 -3 17 -8 21
-22 17 -13 -4 -24 3 -39 27 -39 62 -52 70 -206 130 -33 13 -83 21 -145 24
l-95 4 65 -14 c78 -15 190 -65 190 -84 0 -7 4 -11 9 -8 5 4 16 3 25 0 13 -5
14 -9 5 -20 -12 -14 2 -19 41 -15 12 2 12 0 1 -7 -10 -7 -11 -14 -2 -31 9 -15
9 -27 1 -41 -9 -17 -8 -20 10 -20 12 0 19 -4 16 -9 -3 -5 -15 -7 -27 -4 -19 5
-20 3 -14 -30 4 -21 3 -37 -4 -41 -6 -4 -11 -20 -11 -37 l0 -29 997 0 c548 0
993 3 989 8 -4 4 -24 7 -44 7 -31 0 -38 4 -40 23 -3 17 -10 22 -32 22 -16 0
-32 4 -35 10 -3 5 -21 9 -38 7 -29 -2 -32 1 -32 25 -1 33 -21 59 -30 37 -5
-14 -58 -20 -70 -7 -4 4 -13 4 -21 1 -23 -9 -46 18 -41 46 5 22 2 26 -19 27
-24 2 -34 -21 -12 -28 14 -5 3 -38 -12 -38 -12 0 -13 2 -31 82 -13 62 -32 79
-27 26 3 -28 0 -32 -17 -30 -11 2 -23 9 -27 15 -5 8 -8 4 -9 -8 0 -12 -3 -15
-6 -7 -3 7 3 22 13 33 17 18 17 20 -1 33 -14 10 -19 27 -19 77 -2 105 -40 159
-114 162 -20 1 -41 7 -45 12 -6 7 -10 6 -13 -2 -7 -15 -34 -5 -34 12 0 7 -7
18 -15 25 -12 10 -15 9 -15 -5 0 -16 -2 -17 -17 -3 -12 10 -33 15 -61 13 -23
-1 -45 2 -48 6 -3 5 -16 9 -29 9 -12 0 -25 7 -29 15 -3 8 -13 15 -21 15 -9 0
-32 12 -50 26 -28 21 -33 30 -29 54 7 30 -13 51 -26 29 -7 -10 -12 -6 -21 13
-14 32 -5 68 13 50 17 -17 38 -15 32 3 -4 8 -17 15 -29 15 -13 0 -27 5 -30 10
-4 6 -10 8 -15 5 -4 -3 -13 2 -20 10 -7 8 -16 12 -21 9 -5 -3 -12 2 -15 11 -4
9 -13 14 -20 11 -12 -5 -44 28 -44 45 0 12 34 3 38 -9 9 -27 24 -10 18 19 -6
29 -4 31 18 25 27 -7 46 11 26 24 -8 5 -11 19 -7 37 7 35 -7 63 -23 47 -8 -8
-8 -18 1 -38 14 -30 7 -42 -18 -31 -10 5 -31 9 -46 10 -24 2 -28 -1 -24 -16 6
-22 6 -22 -27 -10 -17 7 -26 7 -29 -2 -3 -9 -8 -9 -18 1 -11 10 -11 12 0 12 7
0 11 6 8 15 -4 8 -2 17 3 20 6 4 10 15 10 25 0 15 -6 19 -22 17 -17 -1 -23 3
-24 18 -1 11 -2 25 -4 30 -1 6 -3 17 -4 25 0 8 -11 16 -23 18 -18 3 -23 10
-23 33 0 20 -9 39 -27 55 -31 28 -27 39 11 25 33 -13 33 -2 1 33 -24 26 -35
63 -15 51 16 -10 12 18 -6 43 -12 17 -13 26 -4 37 7 9 8 15 0 20 -5 3 -10 26
-10 51 0 32 -4 44 -15 44 -10 0 -15 10 -15 28 0 21 2 24 10 12 8 -13 10 -12
10 3 0 9 -4 17 -10 17 -5 0 -10 7 -10 16 0 10 -7 14 -22 12 -15 -2 -23 2 -23
12 0 8 8 14 18 14 18 -2 21 5 11 30 -5 13 -9 14 -20 5 -11 -9 -14 -7 -14 9 0
15 5 20 15 16 23 -9 19 24 -5 38 -21 14 -28 48 -8 48 7 0 5 7 -5 18 -8 9 -17
40 -20 68 -2 27 -9 59 -15 70 -6 10 -21 60 -32 109 -12 50 -28 104 -35 120
-36 81 -41 127 -30 290 15 222 16 265 7 265 -5 0 -11 -3 -15 -6z m204 -1751
c0 -11 3 -13 6 -5 2 6 11 12 18 12 33 0 109 -34 131 -57 22 -24 24 -34 24
-128 0 -107 -7 -165 -20 -165 -4 0 -10 9 -13 21 -7 27 -60 23 -65 -4 -3 -16
-1 -17 15 -8 23 12 66 -13 71 -41 2 -14 -4 -18 -28 -18 -18 0 -29 -4 -25 -10
10 -16 -15 -11 -33 7 -12 12 -13 18 -4 21 6 2 12 8 12 14 0 6 -8 7 -17 3 -47
-19 -48 -19 -29 3 23 26 14 42 -9 18 -18 -17 -35 -21 -35 -8 0 5 9 17 20 27
11 10 18 21 15 24 -2 4 1 13 6 21 8 13 11 12 20 -3 11 -19 42 -16 89 9 l25 13
-25 0 c-14 1 -31 -3 -39 -8 -10 -6 -24 -5 -40 4 -18 9 -34 10 -51 3 -16 -6
-26 -6 -28 1 -6 18 -31 12 -43 -10 -8 -15 -13 -18 -19 -10 -5 9 -9 8 -13 -4
-4 -9 -3 -13 3 -10 16 10 11 -22 -6 -40 -18 -18 -35 -16 -43 6 -3 12 -1 12 14
-1 17 -14 18 -13 13 7 -4 13 -2 26 3 29 5 3 9 13 9 22 0 9 6 29 14 43 7 14 11
40 8 57 -3 21 0 32 7 32 7 0 11 8 10 18 -4 22 10 91 22 114 12 23 29 23 30 1z"/>
<path d="M6269 1868 c-1 -7 -2 -34 -4 -60 -3 -57 -22 -108 -42 -108 -20 0 -46
-27 -33 -35 5 -3 10 -1 10 4 0 6 5 11 10 11 6 0 10 -7 10 -15 0 -8 -6 -15 -14
-15 -20 0 -27 -26 -16 -56 6 -14 10 -47 10 -74 0 -43 -2 -48 -26 -54 -22 -6
-25 -11 -20 -32 4 -14 2 -32 -4 -39 -7 -9 -8 -15 -1 -19 11 -7 3 -105 -10
-122 -9 -11 8 -86 21 -94 5 -3 15 -24 23 -47 11 -33 13 -61 6 -125 -9 -86 -5
-376 5 -386 3 -3 6 5 6 17 0 26 27 89 48 110 36 37 40 55 31 126 -5 39 -11
115 -12 170 -3 90 -6 104 -30 140 -31 45 -33 71 -12 121 10 25 20 34 30 30 16
-6 16 -3 20 69 6 106 6 153 0 186 -5 26 -1 49 14 82 26 56 28 142 5 175 -9 13
-13 29 -10 37 3 8 1 15 -4 15 -6 0 -11 -6 -11 -12z"/>
<path d="M537 1217 c-3 -8 -18 -13 -35 -12 -21 1 -29 -2 -25 -12 3 -9 -3 -13
-21 -13 -15 0 -30 -8 -36 -20 -6 -11 -16 -20 -23 -20 -7 0 -6 4 3 10 13 8 13
10 -1 10 -23 0 -41 -24 -33 -46 6 -16 5 -17 -7 -6 -11 10 -11 16 -1 32 11 18
10 20 -12 20 -13 0 -26 5 -28 11 -2 6 -14 5 -33 -5 -17 -9 -38 -16 -49 -16
-12 0 -16 -5 -13 -15 5 -11 1 -12 -19 -5 -34 13 -53 13 -34 -1 12 -8 11 -9 -5
-6 -11 2 -33 -3 -50 -11 -20 -10 -30 -11 -33 -3 -4 13 -32 15 -32 3 0 -5 -11
-14 -25 -20 -22 -10 -24 -17 -22 -59 2 -45 4 -48 27 -45 14 1 30 8 35 15 6 6
17 12 25 12 8 0 14 6 12 14 -2 10 4 12 20 7 13 -3 26 -6 31 -6 15 0 7 -19 -10
-23 -10 -3 -3 -5 15 -6 21 -1 32 4 32 13 0 7 9 16 20 19 25 6 26 -8 3 -22 -23
-12 -13 -22 15 -14 12 3 22 12 22 20 0 8 5 11 10 8 6 -4 8 -11 4 -16 -3 -6 3
-13 14 -16 15 -4 20 -13 20 -40 0 -20 6 -39 13 -44 11 -6 10 -11 -6 -23 -18
-14 -17 -14 12 -4 20 8 28 15 21 19 -9 6 -8 12 3 25 12 15 12 16 -9 10 -17 -6
-22 -3 -22 9 0 9 5 13 11 9 8 -4 8 -1 1 13 -15 27 3 53 37 53 15 0 36 9 46 20
10 11 26 20 36 20 13 0 16 5 12 17 -5 12 -2 15 10 10 11 -4 17 -1 17 8 0 9 6
12 15 8 9 -3 15 -2 14 3 -4 23 3 32 20 27 14 -3 20 2 23 21 3 15 2 29 -2 31
-5 3 -6 14 -3 25 6 22 -2 27 -10 7z"/>
<path d="M6184 562 c-8 -12 -8 -22 0 -35 9 -15 7 -21 -9 -32 -11 -8 -28 -22
-38 -32 -15 -15 -19 -15 -27 -3 -7 11 -11 8 -21 -13 -6 -14 -16 -24 -20 -21
-5 3 -9 0 -9 -5 0 -6 5 -11 10 -11 7 0 7 -7 -1 -21 -8 -15 -14 -18 -22 -10 -7
7 -14 6 -22 -6 -7 -9 -29 -17 -54 -18 -24 -1 -47 -8 -51 -15 -6 -9 -10 -8 -18
5 -9 17 -10 17 -20 -2 -9 -16 -26 -22 -74 -27 -34 -4 -70 -12 -80 -17 -12 -6
-18 -6 -18 1 0 5 -9 10 -20 10 -16 0 -19 -5 -14 -24 3 -13 1 -27 -5 -30 -10
-7 -15 12 -12 41 1 6 -4 15 -11 19 -18 11 -97 10 -95 -1 1 -5 -5 -10 -13 -10
-8 0 -14 6 -12 13 4 22 -18 12 -30 -14 -10 -21 -8 -31 6 -57 10 -18 24 -37 32
-43 15 -12 84 -6 84 7 0 6 9 5 20 -1 11 -6 20 -16 20 -22 0 -5 -9 -8 -20 -5
-24 6 -28 -18 -4 -27 22 -9 24 -8 24 10 0 12 7 15 26 11 15 -3 39 -1 54 3 15
4 34 4 41 -1 11 -7 10 -9 -5 -9 -14 0 -17 -3 -9 -11 7 -7 27 -7 69 0 57 11 58
11 85 -19 26 -28 29 -29 56 -15 15 8 35 15 44 15 20 0 39 19 33 35 -3 8 5 10
28 8 23 -3 29 -1 19 5 -16 11 3 27 20 17 6 -4 13 2 16 14 3 11 10 18 15 15 12
-8 37 25 38 50 0 10 10 34 22 54 12 19 22 54 24 76 2 53 14 96 25 96 14 0 11
30 -3 31 -7 1 -22 2 -33 3 -13 1 -19 7 -17 19 4 22 -10 22 -24 -1z"/>
<path d="M2717 409 c-9 -5 -22 -7 -27 -4 -12 8 -64 -9 -150 -48 -138 -62 -210
-130 -226 -212 -8 -40 -8 -50 -5 -112 l1 -33 104 0 c100 0 104 1 99 20 -3 12
1 28 9 38 24 28 29 50 10 46 -9 -2 -28 5 -42 17 -24 20 -24 21 -2 15 12 -3 31
-9 42 -12 28 -9 26 14 -2 26 -13 5 -17 9 -10 9 9 1 10 6 3 19 -9 17 12 128 29
145 4 5 22 9 39 9 21 1 30 5 27 14 -5 14 29 26 88 29 41 3 62 17 52 34 -9 13
-16 13 -39 0z"/>
<path d="M7868 353 c-19 -3 -25 -9 -21 -19 4 -10 0 -12 -11 -8 -19 7 -22 -16
-4 -34 9 -9 9 -15 3 -20 -6 -4 -10 -13 -9 -19 1 -7 2 -17 3 -23 3 -25 18 -7
18 21 0 18 7 37 16 44 10 7 17 17 17 24 0 19 27 12 33 -9 3 -11 2 -18 -3 -15
-4 3 -13 -2 -20 -10 -11 -13 -10 -18 6 -30 18 -14 18 -14 -3 -15 -12 0 -23 6
-26 13 -2 6 -8 9 -12 4 -5 -4 0 -13 10 -21 19 -14 12 -41 -9 -33 -6 3 -11 -6
-11 -23 0 -20 4 -26 17 -22 9 2 14 10 11 18 -3 8 0 14 7 14 7 0 10 -12 8 -32
-3 -27 0 -31 21 -33 13 -1 30 -10 37 -20 17 -23 21 -19 24 25 5 59 1 70 -20
70 -11 0 -20 5 -20 10 0 6 9 10 20 10 13 0 18 5 13 16 -4 11 -9 12 -16 5 -17
-17 -22 -13 -25 13 -1 18 5 26 26 31 l27 7 -27 10 c-29 10 -39 38 -13 38 8 0
15 5 15 10 0 10 -29 11 -82 3z"/>
<path d="M7746 313 c-4 -4 -13 -8 -19 -8 -7 -1 -40 -5 -75 -9 -80 -11 -94 -29
-18 -24 47 2 57 0 62 -15 7 -21 26 -12 22 10 -2 9 3 18 11 21 10 3 12 0 8 -12
-4 -10 -7 -27 -7 -37 0 -16 -4 -19 -21 -14 -15 5 -19 4 -15 -4 4 -6 13 -11 20
-11 14 0 42 -28 35 -34 -11 -11 -62 9 -66 25 -3 10 -9 16 -14 13 -5 -3 -14 -2
-21 2 -7 5 -5 11 7 21 18 12 18 13 1 13 -10 0 -20 -8 -23 -19 -4 -15 -12 -18
-48 -15 -37 4 -43 1 -49 -19 -5 -17 -8 -19 -15 -8 -5 8 -16 11 -30 6 -26 -8
-19 -25 8 -18 24 6 31 -6 20 -34 -10 -28 -29 -30 -29 -3 0 11 -7 20 -15 20
-18 0 -19 -18 -2 -45 12 -21 42 -26 66 -11 9 6 18 3 26 -7 14 -19 30 -23 19
-6 -3 6 6 22 22 34 37 30 27 40 -19 20 -46 -19 -47 -19 -47 3 0 20 45 46 61
37 5 -4 9 -1 9 6 0 7 6 4 14 -6 12 -16 16 -17 30 -6 11 9 16 10 16 2 0 -6 -7
-14 -16 -18 -8 -3 -13 -12 -9 -21 3 -8 0 -21 -6 -29 -16 -18 -3 -29 16 -13 8
7 15 24 15 37 0 25 1 25 23 9 12 -9 33 -21 47 -27 23 -9 23 -11 7 -20 -14 -8
-15 -14 -6 -31 l11 -21 19 24 c24 31 24 37 -7 65 -17 16 -20 24 -10 24 8 0 16
-4 18 -9 2 -4 14 -12 27 -16 20 -6 23 -5 17 11 -4 10 -2 21 5 25 7 4 9 15 5
25 -6 16 -7 16 -21 -2 -14 -18 -14 -18 -15 3 0 12 -6 23 -12 26 -7 2 -9 8 -5
13 4 5 12 2 17 -6 5 -8 12 -11 17 -7 12 13 -20 28 -45 22 -15 -4 -21 -2 -17 5
3 5 12 10 19 10 8 0 19 7 26 15 10 12 9 16 -6 22 -11 3 -22 10 -25 15 -3 5 -9
5 -13 1z"/>
</g>
</svg>
