<?xml version="1.0" standalone="no"?>
<!DOCTYPE svg PUBLIC "-//W3C//DTD SVG 20010904//EN"
 "http://www.w3.org/TR/2001/REC-SVG-20010904/DTD/svg10.dtd">
<svg version="1.0" xmlns="http://www.w3.org/2000/svg"
 width="800.000000pt" height="1200.000000pt" viewBox="0 0 800.000000 1200.000000"
 preserveAspectRatio="xMidYMid meet">
<metadata>
Created by potrace 1.15, written by Peter Selinger 2001-2017
</metadata>
<g transform="translate(0.000000,1200.000000) scale(0.100000,-0.100000)"
fill="#000000" stroke="none">
<path d="M4765 11963 c21 -32 23 -39 9 -41 -9 -2 -13 -10 -9 -20 3 -8 1 -19
-6 -22 -8 -6 -8 -13 0 -28 6 -11 11 -32 11 -46 0 -14 4 -27 9 -30 4 -3 6 -16
4 -30 -3 -13 0 -27 6 -30 6 -4 11 -18 11 -32 0 -13 5 -24 10 -24 6 0 10 -9 10
-20 0 -11 -4 -20 -10 -20 -5 0 -7 -12 -4 -27 3 -16 -2 -48 -11 -73 -9 -25 -19
-71 -22 -102 -5 -50 -3 -58 11 -58 21 0 20 -5 -6 -35 -19 -22 -29 -64 -29
-125 0 -421 1 -402 -18 -414 -11 -7 -11 -10 0 -17 12 -8 12 -11 -1 -18 -12 -9
-12 -11 2 -16 15 -6 16 -9 3 -29 -9 -13 -19 -68 -25 -125 -5 -56 -12 -107 -16
-112 -7 -12 15 -41 26 -34 5 3 15 -3 22 -12 16 -22 58 -28 58 -9 0 7 9 21 20
31 11 10 22 27 26 39 4 11 22 38 40 59 19 20 34 46 34 56 0 11 4 22 10 26 6 4
6 15 -1 32 -5 14 -7 35 -4 47 5 17 4 18 -5 6 -8 -11 -9 8 -5 78 6 70 4 92 -5
92 -9 0 -11 14 -8 50 4 40 2 53 -11 60 -15 8 -14 11 2 38 20 36 22 62 3 62
-10 0 -15 23 -20 84 -7 85 -1 136 17 147 6 4 5 20 -3 43 -6 19 -9 45 -5 56 5
14 2 20 -9 20 -12 0 -16 11 -16 51 0 31 4 48 10 44 6 -4 10 8 10 29 0 19 -6
37 -12 40 -10 5 -10 7 0 12 18 8 15 44 -4 44 -11 0 -14 6 -8 23 14 46 23 53
24 17 0 -26 3 -31 10 -20 13 20 13 80 0 80 -5 0 -10 10 -9 23 l0 22 11 -22 c6
-13 15 -23 21 -23 5 0 7 10 3 23 -3 12 -6 30 -6 40 0 9 -7 17 -15 17 -11 0
-15 11 -15 40 0 44 9 50 28 20 7 -11 21 -20 32 -20 18 0 20 7 20 60 0 33 -4
60 -10 60 -5 0 -10 -18 -10 -40 0 -29 -4 -40 -15 -40 -11 0 -15 11 -15 40 l0
40 -63 0 c-36 0 -68 -5 -75 -12 -9 -9 -12 -9 -12 0 0 7 -5 12 -10 12 -6 0 1
-17 15 -37z"/>
<path d="M3802 11600 c-28 -26 -30 -80 -4 -80 10 0 23 12 29 28 11 27 11 27
12 -12 1 -34 -1 -38 -19 -33 -17 4 -20 0 -20 -24 0 -21 4 -27 15 -23 18 7 50
-22 35 -31 -6 -4 -8 -15 -5 -26 4 -10 3 -24 -1 -31 -5 -7 -7 -28 -5 -47 2 -19
-3 -37 -10 -42 -10 -6 -10 -13 -1 -34 7 -14 12 -48 12 -75 0 -47 2 -50 25 -50
22 0 25 -4 25 -39 0 -28 5 -40 18 -44 9 -2 25 -8 35 -12 12 -5 17 -2 17 8 0
10 -7 13 -20 10 -23 -6 -27 16 -8 46 9 15 7 23 -10 42 -24 25 -27 35 -12 44 6
3 10 1 10 -4 0 -6 12 -11 26 -11 22 0 25 2 14 15 -7 8 -19 15 -27 15 -8 0 -11
5 -8 10 4 6 3 46 -1 89 -6 70 -8 78 -25 74 -20 -5 -21 -3 -23 47 -1 25 3 30
22 30 18 0 22 -4 17 -19 -3 -11 -2 -22 3 -25 6 -3 12 5 14 18 4 18 -2 27 -29
41 -23 13 -33 25 -32 39 5 61 -2 106 -16 106 -8 0 -15 5 -15 10 0 16 -14 12
-38 -10z"/>
<path d="M3865 10950 c4 -6 10 -8 15 -5 12 7 26 -16 34 -54 5 -31 5 -32 -12
-20 -9 8 -22 21 -29 29 -10 13 -12 13 -18 -2 -4 -11 2 -29 15 -48 17 -24 23
-48 25 -100 1 -38 -2 -67 -7 -64 -4 3 -8 12 -8 20 0 8 -7 14 -15 14 -8 0 -15
-9 -15 -20 0 -13 -5 -17 -14 -14 -8 3 -19 -3 -25 -15 -15 -28 -14 -31 14 -31
23 0 25 -4 24 -42 0 -33 -2 -38 -9 -23 -4 12 -15 27 -24 34 -13 11 -17 10 -24
-10 -11 -32 -3 -119 11 -119 7 0 6 -5 -2 -12 -11 -10 -14 -10 -18 0 -9 24 -23
12 -17 -14 4 -15 3 -25 -2 -21 -5 3 -10 -18 -10 -46 -1 -29 -5 -79 -9 -112 -4
-33 -8 -78 -9 -100 -1 -36 1 -40 26 -43 15 -2 43 4 63 14 30 14 42 15 75 5 36
-10 58 -9 113 6 10 3 16 7 14 9 -3 3 -1 21 3 40 7 32 -3 49 -13 22 -11 -33
-22 12 -20 84 2 61 -1 84 -13 95 -8 9 -13 22 -9 31 3 8 1 20 -3 26 -14 17 -24
96 -12 96 5 0 10 6 10 13 0 26 -21 87 -35 101 -13 12 -13 27 -5 83 5 37 10 98
10 136 l0 67 -41 0 c-25 0 -38 -4 -34 -10z"/>
<path d="M4254 9478 c-72 -23 -131 -35 -254 -52 -117 -17 -233 -8 -408 31
l-123 27 -21 -21 c-21 -21 -21 -29 -25 -464 -2 -243 -5 -445 -8 -447 -2 -3 -9
8 -15 24 l-11 29 -30 -33 c-32 -35 -39 -86 -17 -125 12 -22 20 -115 11 -130
-3 -4 -10 -3 -17 2 -10 8 -18 2 -31 -23 -15 -28 -16 -39 -7 -62 12 -28 16 -70
13 -123 -1 -19 -4 -21 -15 -12 -11 10 -22 5 -52 -21 -48 -42 -74 -99 -74 -165
0 -67 -13 -99 -43 -107 -13 -3 -36 -15 -50 -26 -26 -20 -26 -23 -12 -51 12
-21 23 -29 43 -29 16 0 34 6 41 13 10 10 11 -33 5 -223 -4 -143 -11 -240 -17
-249 -6 -7 -14 -47 -17 -90 l-5 -76 -79 -1 c-61 -1 -82 -5 -91 -18 -9 -11 -28
-16 -63 -16 -35 0 -65 -7 -93 -23 -42 -24 -79 -70 -66 -83 4 -4 62 11 130 34
67 22 150 44 185 47 34 4 65 11 68 16 3 6 24 -11 46 -36 23 -26 62 -61 88 -78
36 -25 46 -36 41 -50 -4 -10 -11 -19 -16 -19 -19 -2 -94 -65 -87 -73 4 -5 -1
-5 -10 -2 -10 4 -18 2 -18 -4 0 -5 -16 -19 -35 -30 -19 -12 -32 -26 -28 -32 3
-6 1 -7 -6 -3 -10 7 -57 -20 -89 -51 -11 -11 -11 -13 3 -13 22 0 -32 -46 -60
-51 -22 -5 -107 -105 -137 -163 -10 -21 -15 -35 -9 -31 6 3 11 1 11 -4 0 -6
-9 -16 -20 -23 -14 -9 -20 -24 -21 -48 0 -19 -4 -53 -9 -75 -8 -35 -9 -33 -5
20 3 36 2 55 -4 47 -5 -8 -41 -18 -87 -23 -72 -8 -194 -44 -194 -57 0 -12 140
8 188 27 29 12 55 21 57 21 9 0 5 -45 -12 -121 l-16 -77 -61 -13 c-34 -6 -92
-15 -131 -19 -98 -9 -238 -80 -220 -111 4 -5 60 -9 125 -9 109 0 120 -2 130
-20 8 -14 8 -26 0 -40 -9 -16 -6 -22 17 -37 15 -10 50 -20 77 -23 43 -4 51 -8
54 -27 3 -17 -2 -23 -15 -23 -20 0 -63 -34 -63 -50 0 -13 38 -93 53 -112 8
-10 19 -18 25 -18 12 0 20 -126 12 -187 -3 -22 -3 -75 1 -119 4 -43 4 -121 1
-172 -5 -90 -6 -93 -31 -98 -14 -3 -40 -12 -56 -19 -32 -14 -94 -7 -137 16
-23 12 -41 54 -39 90 1 15 -5 29 -11 32 -22 8 -71 -1 -79 -15 -19 -35 -65 -87
-76 -88 -7 0 -13 -6 -13 -13 0 -39 -93 -65 -119 -34 -8 11 0 24 36 61 l47 47
-49 42 c-51 44 -85 55 -171 56 -34 1 -56 -4 -64 -14 -17 -20 -46 -19 -78 4
-43 30 -122 61 -156 61 -17 0 -49 5 -71 10 -22 6 -110 15 -195 20 -85 6 -173
13 -195 15 -97 10 -362 5 -407 -8 -57 -16 -70 -27 -70 -62 -1 -43 28 -65 86
-65 33 0 62 -7 84 -20 18 -11 38 -20 44 -20 6 0 19 -6 27 -13 9 -8 42 -20 74
-27 34 -8 57 -18 57 -27 0 -7 6 -13 14 -13 7 0 19 -13 26 -30 7 -16 19 -30 26
-30 7 0 28 -9 46 -20 18 -11 39 -20 46 -20 8 0 26 -8 40 -19 15 -10 38 -21 52
-24 14 -3 35 -8 48 -11 20 -4 99 -14 177 -21 17 -2 53 -8 80 -13 46 -10 90 -8
280 13 17 2 80 8 140 14 135 14 216 26 275 42 52 14 101 14 222 4 l88 -8 6
-34 c9 -49 24 -50 25 -1 1 24 1 48 0 54 0 5 8 20 19 32 11 12 20 33 20 47 0
14 4 25 9 25 7 0 15 -134 13 -233 -1 -9 6 -17 14 -17 8 0 14 -4 14 -10 0 -5
-6 -10 -13 -10 -15 0 -13 -96 4 -140 5 -14 9 -34 9 -45 -1 -28 6 -180 14 -302
4 -70 2 -103 -5 -103 -6 0 -4 -7 4 -15 16 -16 15 -118 -3 -250 -10 -79 -19
-266 -25 -559 -2 -110 -7 -230 -11 -266 -5 -51 -2 -75 9 -101 9 -19 23 -63 32
-99 9 -36 25 -73 35 -82 11 -10 31 -38 46 -64 22 -38 26 -53 20 -90 -6 -49 7
-89 28 -81 7 3 18 -3 24 -13 11 -18 67 -57 167 -117 203 -120 436 -176 735
-175 212 0 329 17 495 73 173 58 372 173 339 196 -13 9 0 53 15 53 10 0 101
132 101 145 0 7 55 130 70 157 6 10 10 26 10 36 0 10 5 23 12 30 12 12 14 45
22 402 2 102 9 223 14 270 13 104 14 212 13 742 0 148 4 290 9 318 5 27 9 295
9 602 0 304 3 562 7 573 8 21 29 45 38 45 3 0 6 -12 6 -27 1 -24 2 -26 11 -10
6 10 7 31 4 47 -4 17 -2 30 3 30 14 0 22 -25 23 -73 0 -23 3 -36 6 -29 6 15
33 16 33 0 0 -9 3 -9 12 0 9 9 9 18 -1 39 -24 51 -29 58 -39 56 -10 -2 -18 55
-26 182 -6 114 -70 283 -132 351 -24 27 -54 66 -66 86 -12 21 -36 44 -54 53
-18 8 -56 37 -85 63 -28 26 -59 51 -68 56 -9 5 -29 21 -46 36 -16 15 -46 36
-66 48 -19 12 -41 33 -49 47 -8 14 -22 25 -34 25 -12 0 12 18 58 42 49 26 85
53 95 70 10 17 22 26 31 23 20 -6 80 48 80 73 0 22 27 79 41 87 5 4 9 15 9 27
0 17 -4 19 -26 14 -34 -9 -73 -37 -74 -53 0 -26 -20 -12 -20 15 0 15 -7 39
-15 55 -11 22 -15 100 -20 370 -7 337 -7 343 -32 399 -30 69 -79 120 -93 98
-5 -8 -7 -24 -5 -35 2 -11 4 -28 4 -37 1 -10 5 -17 10 -15 5 1 9 -2 9 -8 0 -5
-4 -9 -8 -8 -5 2 -11 -6 -15 -16 -5 -18 -55 -70 -55 -58 0 3 11 18 25 33 14
15 25 31 25 35 0 11 -30 0 -53 -19 -9 -8 -20 -13 -23 -10 -3 3 6 14 19 24 13
11 24 27 25 37 1 9 3 25 3 35 1 9 9 26 19 37 13 15 18 40 19 105 1 72 -2 89
-20 110 l-20 25 15 -32 c9 -18 16 -38 16 -46 0 -18 -65 -69 -110 -87 -19 -7
-39 -17 -44 -22 -6 -4 -27 -8 -47 -8 -34 0 -37 3 -41 31 -5 34 -9 31 110 79
12 5 22 14 22 20 0 5 6 10 13 10 8 0 24 11 37 25 19 20 24 38 27 99 l4 74 -38
-34 c-38 -35 -78 -49 -53 -19 7 8 16 15 21 15 15 0 69 59 69 76 0 23 -37 81
-56 88 -13 5 -15 34 -14 193 2 277 -3 634 -7 591 -2 -21 -8 -38 -14 -38 -5 0
-9 -66 -9 -157 0 -86 -2 -154 -5 -152 -2 3 -6 82 -8 177 -4 192 -8 204 -58
185 -37 -14 -36 -12 14 21 21 14 46 26 57 26 27 0 35 19 14 35 -31 23 -48 23
-110 3z m-243 -299 c55 -38 73 -121 42 -186 -26 -56 -81 -86 -160 -87 -82 -1
-102 12 -126 85 -10 30 -24 64 -29 76 -12 24 3 76 19 71 5 -2 24 9 44 24 63
49 154 56 210 17z m461 -2359 c10 0 22 -8 25 -17 4 -10 24 -38 44 -62 21 -23
37 -47 36 -52 -3 -13 34 -65 57 -79 14 -9 10 0 -12 24 -17 20 -32 40 -32 43 0
8 131 -116 150 -143 16 -22 62 -63 123 -107 47 -35 71 -71 74 -111 1 -17 7
-51 13 -76 19 -78 24 -134 12 -126 -7 4 -12 -6 -14 -26 -4 -41 -25 -48 -33
-11 -8 40 -56 130 -82 155 -25 24 -24 25 -43 -60 -11 -48 -10 -55 6 -73 18
-20 18 -21 -1 -38 -33 -28 -44 -57 -38 -97 4 -27 3 -35 -5 -30 -7 4 -12 14
-12 22 0 8 -7 14 -15 14 -8 0 -15 4 -15 9 0 21 13 41 26 41 8 0 14 2 14 4 0 2
3 11 6 19 4 12 0 14 -15 10 -12 -3 -21 -11 -21 -18 0 -7 -21 -23 -46 -36 -43
-23 -46 -23 -58 -6 -7 9 -22 17 -32 17 -10 0 -25 4 -32 9 -10 6 -10 10 2 20 8
7 13 18 10 24 -2 7 6 17 18 22 13 6 23 17 24 25 2 42 17 81 29 76 8 -3 26 11
41 32 16 20 32 39 36 40 4 2 8 15 8 28 0 14 4 22 10 19 6 -3 10 -15 10 -26 0
-12 5 -19 13 -16 6 2 11 15 9 28 -1 13 -3 30 -4 38 -2 17 -29 51 -41 51 -15 0
-77 52 -76 64 0 7 2 6 6 -1 2 -7 9 -13 15 -13 20 0 -15 30 -36 31 -20 0 -21 1
-1 9 19 8 19 9 -2 9 -16 1 -21 6 -17 16 4 9 0 15 -10 15 -9 0 -16 8 -16 19 0
11 -9 27 -21 35 -12 8 -18 19 -15 24 3 6 0 12 -8 15 -7 3 -16 19 -19 35 -5 25
-10 29 -31 25 -19 -4 -26 -1 -26 11 0 9 -5 16 -11 16 -6 0 -9 -7 -6 -15 3 -7
-3 -24 -14 -37 -15 -16 -19 -18 -15 -6 4 14 1 16 -18 8 -13 -5 -26 -7 -27 -5
-2 1 -28 5 -57 8 -30 3 -56 7 -58 10 -8 7 36 56 56 62 11 4 20 14 20 24 0 14
6 17 26 13 15 -3 23 -10 20 -17 -3 -9 8 -15 31 -20 41 -7 47 -4 38 25 -5 17
-9 19 -21 9 -8 -6 -15 -10 -17 -8 -26 46 -27 48 -8 54 10 3 21 16 25 28 4 17
8 19 18 9 6 -6 20 -12 30 -12z m-272 -125 c0 -9 -14 -17 -39 -21 -30 -5 -38
-10 -34 -22 4 -9 2 -13 -4 -9 -6 4 -16 0 -23 -8 -7 -8 -20 -15 -29 -16 -10 0
-12 -2 -3 -6 6 -2 10 -9 7 -14 -4 -5 0 -6 8 -3 8 3 18 1 21 -4 12 -20 -7 -42
-45 -53 -21 -7 -36 -16 -32 -22 4 -6 -3 -7 -18 -3 -13 4 -51 10 -84 12 -72 6
-84 15 -55 44 20 20 29 21 84 15 57 -6 62 -4 63 13 1 17 -5 20 -35 20 -61 1
-101 12 -95 28 3 7 15 13 26 13 12 0 51 7 87 16 36 9 81 13 100 10 21 -3 45 0
60 9 33 19 40 19 40 1z m-240 -461 c0 -10 8 -15 23 -14 56 5 77 0 77 -18 0
-10 7 -27 16 -38 8 -10 13 -14 10 -8 -13 26 73 24 94 -1 6 -8 18 -11 25 -9 8
3 20 -4 27 -15 7 -12 20 -21 28 -21 12 -1 12 -3 -2 -14 -14 -10 -15 -15 -5
-26 9 -10 9 -13 0 -17 -7 -3 -13 -11 -13 -19 0 -8 -10 -15 -22 -15 -13 -1 -30
-2 -38 -3 -8 -1 -21 -5 -28 -9 -7 -5 -19 -4 -26 3 -17 14 -66 3 -66 -15 0 -8
-8 -11 -20 -8 -12 3 -20 0 -20 -6 0 -7 -4 -10 -9 -7 -4 3 -22 0 -38 -6 -24 -9
-47 -8 -104 2 -41 8 -79 15 -86 15 -6 0 -23 11 -37 24 -16 15 -32 22 -46 18
-18 -5 -20 -1 -20 49 0 38 4 54 13 53 28 -5 67 14 67 32 0 10 4 19 8 19 5 0
19 9 31 20 16 13 32 17 51 13 21 -4 31 0 38 14 13 24 72 31 72 7z m328 -334
c7 -16 14 -44 14 -62 0 -18 7 -41 15 -50 21 -23 8 -78 -17 -78 -11 0 -23 -8
-29 -17 -7 -14 -12 -15 -25 -4 -10 9 -28 11 -56 6 -22 -4 -41 -5 -43 -3 -8 6
-37 -24 -31 -33 3 -5 -1 -9 -10 -9 -8 0 -23 -3 -33 -7 -12 -4 -10 0 7 15 21
18 22 21 7 22 -10 0 -20 7 -23 15 -4 8 -11 12 -16 9 -6 -4 -8 2 -3 15 4 12 2
21 -4 21 -6 0 -11 -11 -11 -25 0 -19 -5 -25 -21 -25 -29 0 -59 -18 -59 -35 0
-8 7 -15 15 -15 24 0 17 -18 -7 -22 -13 -2 -23 -9 -23 -15 0 -7 -3 -13 -7 -13
-5 0 -11 0 -15 0 -5 0 -15 5 -23 10 -12 7 -8 15 20 41 22 20 30 33 23 36 -14
5 -18 43 -5 43 4 0 13 9 19 20 10 15 10 22 -2 34 -14 13 -12 19 12 55 18 26
36 40 50 41 20 0 22 -5 21 -45 0 -25 2 -49 6 -52 3 -4 6 14 6 40 0 55 7 77 26
77 8 0 11 7 8 18 -5 15 -4 15 5 1 7 -11 19 -15 36 -12 18 4 31 -1 46 -18 11
-13 17 -18 13 -10 -9 18 13 31 54 31 22 0 32 5 32 15 0 24 14 17 28 -15z
m-113 -830 c-16 -7 -14 -9 15 -9 27 -1 31 2 20 9 -11 8 -7 9 15 4 38 -8 56
-24 30 -25 -11 0 -14 -3 -7 -6 19 -7 14 -31 -8 -38 -29 -9 -25 -28 5 -23 29 6
45 -9 21 -18 -9 -3 -16 -17 -16 -31 0 -23 -1 -23 -17 -7 -12 12 -18 13 -21 5
-6 -17 30 -48 48 -44 12 4 12 3 1 -5 -7 -5 -21 -8 -30 -5 -10 2 -23 -3 -30
-11 -11 -13 -11 -16 3 -16 23 0 20 -27 -4 -35 -11 -3 -20 -11 -20 -17 0 -5 7
-8 14 -5 10 4 13 1 9 -9 -3 -9 -13 -14 -22 -11 -12 3 -16 -4 -16 -27 0 -17 4
-34 9 -38 5 -3 10 -16 11 -27 1 -15 -4 -21 -18 -21 -12 0 -17 -5 -14 -13 4
-10 -1 -13 -17 -10 -19 4 -21 11 -21 63 0 32 3 62 7 66 4 4 0 13 -10 20 -12 8
-16 25 -16 56 1 23 -3 46 -8 49 -6 4 -5 15 4 28 11 18 11 23 -2 31 -12 8 -11
10 6 10 12 0 25 7 28 16 5 13 2 15 -14 11 -11 -3 -20 -1 -20 4 0 5 6 9 14 9 8
0 18 5 21 10 4 7 -3 9 -22 5 -28 -5 -28 -5 -3 6 15 7 20 13 13 16 -7 3 -13 11
-13 18 0 17 16 23 60 24 28 0 31 -2 15 -9z m20 -482 c5 -13 11 -34 15 -48 7
-24 8 -24 9 -2 1 26 16 29 25 5 7 -22 27 -54 42 -68 16 -14 26 -63 15 -69 -11
-7 -2 -48 13 -59 8 -6 7 -10 -2 -14 -6 -2 -9 -10 -5 -16 9 -15 14 -147 5 -147
-4 0 -7 -19 -8 -42 -2 -71 -13 -198 -18 -207 -3 -4 -6 -42 -7 -84 -2 -68 -4
-78 -25 -92 -13 -8 -29 -15 -36 -15 -20 0 -63 -54 -60 -74 5 -24 -14 -44 -29
-29 -6 6 -12 18 -13 27 -1 10 -7 21 -12 24 -13 10 -34 73 -28 84 3 5 1 15 -5
22 -6 7 -13 47 -16 87 -5 82 -20 129 -41 129 -8 0 -14 5 -14 10 0 6 7 10 15
10 8 0 15 -4 15 -10 0 -5 5 -10 10 -10 22 0 8 26 -20 37 -27 10 -29 14 -23 49
3 22 9 41 13 44 9 6 21 60 26 110 6 67 14 103 24 115 6 7 8 19 4 28 -3 8 -1
18 5 22 6 3 11 15 11 26 0 11 7 36 17 57 9 20 15 41 14 46 -1 5 4 13 11 17 10
7 9 9 -4 9 -21 0 -13 37 11 43 40 11 59 6 66 -15z m-49 -1308 c14 -23 23 -28
40 -24 16 4 34 -3 57 -20 38 -29 39 -40 10 -104 -10 -24 -11 -37 -4 -46 14
-17 2 -29 -16 -15 -9 8 -21 8 -40 1 -61 -23 -63 -22 -73 3 -5 14 -14 25 -20
25 -26 0 -41 108 -25 181 9 40 47 40 71 -1z"/>
<path d="M7200 9215 c-19 -7 -56 -14 -81 -14 -48 -1 -62 -10 -74 -49 -5 -18
-1 -30 16 -48 28 -30 57 -30 134 -3 56 19 62 25 73 61 10 30 10 43 1 54 -14
17 -23 17 -69 -1z"/>
<path d="M4642 8969 c-18 -22 -107 -69 -131 -69 -20 0 -81 -48 -81 -64 0 -8
-7 -19 -15 -26 -24 -20 -18 -40 13 -40 31 0 91 35 195 113 55 42 67 56 67 79
0 34 -23 37 -48 7z"/>
<path d="M2744 8952 c-40 -6 -63 -44 -70 -110 -4 -39 -3 -62 3 -62 25 0 70 32
87 62 11 18 26 39 33 46 33 33 0 73 -53 64z"/>
<path d="M6027 8892 c-94 -52 -125 -77 -113 -89 4 -4 41 -9 83 -12 72 -3 79
-2 157 38 81 42 143 87 133 98 -3 3 -43 7 -89 10 l-83 4 -88 -49z"/>
<path d="M6495 8851 c-87 -39 -169 -108 -155 -130 6 -11 19 -8 63 13 37 17 73
26 106 26 46 0 52 -3 65 -29 9 -16 29 -34 46 -39 40 -15 60 6 60 62 0 37 -5
46 -44 79 -51 42 -79 45 -141 18z"/>
<path d="M5305 8811 c-38 -15 -91 -31 -106 -31 -30 0 -124 -56 -139 -82 -13
-25 -13 -29 1 -44 15 -14 21 -14 65 -1 177 55 274 105 274 143 0 23 -54 31
-95 15z"/>
<path d="M4680 8742 c-109 -53 -190 -111 -190 -137 0 -29 35 -42 116 -43 l82
-1 58 65 c33 36 65 80 72 97 15 33 9 77 -11 76 -6 0 -64 -26 -127 -57z"/>
<path d="M3003 8440 c-41 -25 -52 -63 -28 -102 21 -36 14 -70 -20 -88 -26 -14
-35 -50 -12 -50 25 1 107 60 122 89 18 36 46 151 39 163 -9 15 -69 8 -101 -12z"/>
<path d="M7392 8389 c-54 -97 -69 -109 -135 -109 -38 0 -44 -4 -79 -51 -20
-27 -39 -39 -75 -48 -49 -13 -73 -27 -73 -42 0 -5 12 -4 26 1 58 22 124 -47
143 -149 4 -25 15 -39 39 -53 l32 -18 39 40 c45 47 74 50 161 20 41 -14 58
-16 68 -7 20 16 7 83 -23 119 -27 32 -33 68 -11 68 13 0 30 35 26 55 -1 6 -3
21 -4 35 -2 28 -83 157 -104 165 -7 3 -20 -8 -30 -26z"/>
<path d="M2170 8391 c-47 -9 -52 -13 -84 -60 -24 -34 -27 -46 -21 -80 4 -23
12 -41 19 -41 6 0 47 24 90 53 54 35 82 61 89 80 18 54 -4 65 -93 48z"/>
<path d="M5396 8329 c-15 -4 -36 -14 -45 -22 -9 -8 -27 -17 -41 -21 -48 -12
-55 -21 -36 -50 15 -24 22 -26 91 -26 52 0 78 4 89 15 8 8 19 15 26 15 6 0 16
11 22 25 10 22 9 29 -8 44 -24 23 -61 31 -98 20z"/>
<path d="M2215 8128 c-41 -23 -131 -83 -145 -98 -57 -56 -119 -154 -106 -168
3 -2 21 -1 42 2 27 6 58 28 123 90 47 46 105 93 128 105 43 21 76 58 67 73 -8
12 -86 9 -109 -4z"/>
<path d="M6055 8098 c-11 -6 -24 -16 -30 -22 -28 -32 -67 -46 -125 -46 -67 0
-78 -10 -63 -57 14 -41 52 -42 107 -4 25 17 48 31 51 31 18 0 66 44 61 56 -3
7 2 17 11 22 24 14 13 33 -12 20z"/>
<path d="M6975 8080 c-10 -11 -28 -20 -41 -20 -12 0 -29 -3 -38 -6 -18 -7 -22
-44 -5 -44 6 0 8 -7 5 -16 -4 -9 -1 -22 4 -30 9 -9 6 -15 -9 -23 -28 -15 -35
-14 -65 14 -29 26 -33 41 -13 48 6 3 3 6 -8 6 -11 1 -30 4 -41 7 -16 4 -33 -4
-60 -29 -22 -19 -57 -42 -79 -53 -22 -10 -70 -35 -106 -56 -44 -26 -78 -38
-104 -38 l-37 0 7 -57 c4 -32 14 -66 22 -75 23 -26 69 -22 108 7 18 14 47 30
65 35 27 8 37 5 65 -15 39 -30 54 -31 104 -6 45 23 57 37 96 110 46 87 84 89
192 11 35 -25 45 -29 67 -20 35 13 35 52 1 68 -34 16 -65 69 -65 113 0 20 -7
42 -15 49 -8 7 -15 19 -15 26 0 20 -14 17 -35 -6z"/>
<path d="M2425 8056 c-23 -35 -55 -122 -55 -149 0 -13 -13 -33 -32 -49 -33
-27 -33 -27 -16 -55 26 -44 52 -37 56 15 3 34 7 42 23 42 40 0 68 30 90 99 28
86 22 121 -21 121 -20 0 -35 -8 -45 -24z"/>
<path d="M5200 7700 c0 -16 -56 -40 -93 -40 -37 0 -83 -39 -74 -63 14 -37 190
-19 236 24 20 19 31 66 12 55 -4 -3 -19 3 -31 14 -25 21 -50 26 -50 10z"/>
<path d="M4868 7595 c-11 -14 -39 -30 -70 -39 -29 -8 -68 -28 -86 -43 -29 -23
-31 -28 -16 -33 22 -8 162 24 221 50 55 24 59 54 8 76 -42 17 -37 18 -57 -11z"/>
<path d="M2632 7520 c-28 -21 -53 -44 -57 -50 -4 -6 -37 -26 -75 -45 -91 -46
-109 -82 -58 -114 17 -11 27 -10 59 3 22 9 58 23 82 32 23 9 56 22 72 29 17 7
47 18 67 24 47 15 63 34 50 58 -6 10 -8 31 -5 46 13 68 -59 78 -135 17z"/>
<path d="M605 7499 c-27 -21 -54 -43 -60 -47 -57 -43 -106 -82 -138 -109 -21
-19 -61 -44 -90 -57 -59 -27 -137 -81 -137 -96 0 -27 70 2 164 68 30 22 81 47
113 56 32 9 91 34 132 54 61 31 79 45 99 81 28 52 24 91 -11 90 -12 0 -44 -18
-72 -40z"/>
<path d="M1584 7469 c-103 -72 -129 -118 -79 -141 45 -20 96 4 138 64 19 29
39 65 42 81 7 25 5 27 -26 26 -20 0 -51 -13 -75 -30z"/>
<path d="M2185 7381 c-65 -23 -84 -35 -104 -62 -27 -37 -62 -52 -122 -54 -46
-2 -137 -39 -192 -79 l-28 -21 25 -6 c14 -4 41 -4 60 1 24 5 41 4 52 -4 15
-11 10 -18 -40 -57 -62 -49 -57 -57 24 -40 90 19 117 36 154 94 20 30 51 64
70 76 42 26 136 127 136 147 0 15 -4 16 -35 5z"/>
<path d="M6692 7374 c-26 -18 -62 -84 -62 -112 0 -11 -8 -30 -18 -42 -14 -17
-16 -33 -12 -81 7 -67 20 -82 64 -74 48 9 54 20 50 87 -3 33 -6 64 -9 68 -2 3
4 20 14 36 9 16 22 43 28 61 10 27 9 34 -11 52 -20 19 -24 19 -44 5z"/>
<path d="M7613 7343 c-24 -5 -78 -77 -69 -92 5 -8 124 -51 141 -51 2 0 11 7
19 16 11 10 16 34 16 70 0 53 -1 54 -29 54 -16 0 -35 2 -43 4 -7 2 -23 1 -35
-1z"/>
<path d="M5413 7288 c-12 -13 -24 -44 -28 -71 -6 -41 -4 -53 14 -78 25 -33 19
-53 -24 -87 -24 -19 -25 -21 -6 -27 25 -8 206 11 248 25 34 12 89 82 78 99 -9
16 -52 13 -79 -4 -17 -11 -30 -13 -47 -6 -28 10 -39 26 -83 107 -17 32 -36 59
-42 61 -5 2 -20 -7 -31 -19z"/>
<path d="M6130 7175 c-14 -8 -37 -14 -52 -15 -32 0 -78 -51 -78 -86 0 -17 7
-25 25 -29 14 -3 36 -7 49 -10 41 -8 85 5 88 28 2 11 17 28 33 37 36 20 43 45
19 71 -20 22 -49 24 -84 4z"/>
<path d="M7805 6988 c-11 -6 -22 -14 -25 -18 -3 -3 -32 -17 -65 -31 -77 -33
-98 -65 -72 -110 9 -17 17 -39 17 -49 0 -26 14 -32 35 -16 16 12 17 17 6 44
-18 44 -9 52 57 46 l57 -6 21 45 c13 28 18 51 12 60 -5 10 -3 17 8 21 19 7 9
26 -14 26 -9 0 -26 -6 -37 -12z"/>
<path d="M6040 6910 c-13 -8 -13 -13 -1 -32 12 -20 11 -24 -10 -41 -18 -15
-35 -18 -79 -14 -82 6 -169 26 -219 49 -45 22 -64 19 -84 -13 -7 -11 -2 -27
17 -56 42 -63 34 -83 -44 -106 -36 -10 -66 -20 -66 -21 -1 0 -5 -15 -8 -32 -6
-26 -2 -36 23 -62 33 -37 66 -40 146 -18 102 29 130 43 135 68 5 20 12 23 62
26 54 3 57 5 114 66 116 123 125 137 122 164 -3 24 -8 27 -48 30 -25 1 -52 -2
-60 -8z"/>
<path d="M2203 6856 c-23 -13 -59 -29 -80 -36 -80 -26 -92 -60 -40 -115 l32
-35 55 16 c30 8 75 26 100 39 25 13 66 26 92 30 60 9 83 32 67 67 -8 19 -25
29 -70 42 -79 22 -106 20 -156 -8z"/>
<path d="M7212 6759 c-35 -10 -70 -24 -79 -31 -9 -7 -40 -12 -77 -11 -52 1
-70 -3 -121 -31 -57 -31 -59 -34 -61 -73 l-1 -41 81 3 c45 2 107 11 139 20 40
11 73 15 103 10 39 -6 46 -3 70 22 52 56 57 67 41 106 -8 19 -19 37 -23 39 -5
3 -37 -3 -72 -13z"/>
<path d="M6665 6564 c-122 -43 -125 -45 -125 -70 0 -39 42 -59 124 -57 126 2
194 46 144 93 -12 11 -27 20 -34 20 -6 0 -17 7 -24 15 -15 18 -33 18 -85 -1z"/>
<path d="M2112 6490 c-39 -33 -77 -60 -85 -60 -8 0 -27 14 -42 32 -15 18 -38
38 -51 45 -33 16 -41 -4 -25 -58 9 -31 20 -43 49 -57 20 -9 44 -21 52 -27 25
-18 119 -37 148 -30 15 4 34 12 42 19 24 21 61 26 105 14 35 -9 54 -8 106 6
35 10 80 18 99 18 104 -2 112 26 18 63 -56 22 -79 26 -117 21 -44 -6 -51 -4
-82 24 -41 38 -70 50 -114 50 -27 0 -48 -12 -103 -60z"/>
<path d="M1656 6409 c-38 -16 -98 -43 -132 -59 -35 -16 -95 -38 -133 -49 -38
-11 -78 -24 -89 -30 -10 -6 -66 -24 -122 -40 -57 -16 -107 -34 -112 -39 -32
-32 177 -27 512 13 201 24 249 44 183 74 -25 12 -26 12 -6 26 11 8 32 17 47
21 45 11 44 33 -4 76 -23 21 -50 38 -59 37 -9 0 -47 -14 -85 -30z"/>
<path d="M2200 6169 c-58 -16 -156 -40 -219 -54 -146 -31 -236 -59 -285 -89
l-38 -23 32 -1 c18 0 35 -3 38 -7 15 -14 -24 -26 -138 -41 -153 -20 -150 -19
-150 -43 0 -21 25 -31 78 -31 37 0 226 61 282 91 19 10 60 25 90 33 177 47
467 166 455 186 -9 14 -28 12 -145 -21z"/>
<path d="M6291 5994 c-16 -13 -38 -24 -48 -24 -23 0 -53 -30 -53 -53 0 -29 29
-47 78 -47 27 0 62 -8 83 -19 20 -11 58 -23 85 -27 27 -3 59 -10 71 -15 17 -6
32 0 72 33 28 23 51 49 51 58 0 19 -55 68 -96 86 -23 10 -40 10 -65 3 -28 -9
-45 -7 -92 9 l-57 21 -29 -25z"/>
<path d="M5466 5904 c-14 -14 -20 -36 -13 -48 1 -3 -9 -16 -21 -29 -34 -36
-67 -42 -106 -17 -34 20 -110 28 -120 11 -8 -13 56 -41 93 -41 18 0 59 -9 92
-20 54 -18 61 -19 75 -5 9 8 25 17 37 19 44 9 174 18 240 16 74 -2 97 9 97 45
0 29 -16 35 -103 35 -49 0 -97 8 -150 25 -91 29 -101 30 -121 9z"/>
<path d="M2142 5868 c-7 -7 -44 -12 -89 -13 -123 -3 -253 -23 -312 -50 -29
-14 -64 -25 -77 -25 -29 0 -32 -25 -5 -40 11 -5 53 -10 93 -10 40 0 93 -7 118
-16 61 -21 96 -25 155 -15 l50 8 -48 13 c-34 9 -45 16 -38 23 6 6 11 20 11 30
0 17 7 19 78 16 77 -4 77 -4 80 22 2 17 13 31 35 42 27 13 29 16 10 16 -12 1
-25 -4 -29 -11 -5 -8 -9 -7 -13 5 -5 14 -9 15 -19 5z"/>
<path d="M1535 5579 c-66 -6 -115 -23 -115 -39 0 -5 5 -10 10 -10 6 0 10 -5
10 -11 0 -6 -11 -8 -28 -4 -20 4 -36 0 -55 -15 -15 -12 -27 -25 -27 -30 0 -22
35 -38 95 -45 36 -3 89 -15 118 -25 48 -17 58 -17 93 -5 22 7 67 17 101 20 59
7 62 6 119 -32 41 -27 86 -46 147 -61 112 -28 125 -28 137 3 6 17 33 35 95 64
65 31 85 45 85 61 0 22 -10 25 -115 36 -111 12 -137 10 -145 -6 -3 -8 -14 -30
-24 -49 -15 -31 -15 -35 0 -52 18 -20 11 -39 -15 -39 -19 0 -41 38 -41 69 0
43 -46 55 -133 36 -10 -2 -30 8 -44 21 -15 13 -38 27 -52 30 -14 4 -40 22 -57
41 -37 40 -75 51 -159 42z"/>
<path d="M2485 5412 c-17 -11 -45 -60 -45 -76 0 -9 18 -25 41 -36 48 -25 137
-25 149 0 4 8 11 24 17 35 18 37 -50 85 -120 85 -18 0 -37 -4 -42 -8z"/>
</g>
</svg>
