<?xml version="1.0" encoding="UTF-8"?>
<svg viewBox="0 0 170 260" xmlns="http://www.w3.org/2000/svg" xmlns:xlink="http://www.w3.org/1999/xlink">
 <defs>
  <filter id="l">
   <feGaussianBlur stdDeviation="3.88418"/>
  </filter>
  <filter id="j">
   <feGaussianBlur stdDeviation=".85735"/>
  </filter>
  <filter id="i">
   <feGaussianBlur stdDeviation=".79955"/>
  </filter>
  <filter id="m" x="-.10148" y="-.04259" width="1.203" height="1.0852">
   <feGaussianBlur stdDeviation="2.22116"/>
  </filter>
  <filter id="k" x="-.18686" y="-.34191" width="1.3737" height="1.6838">
   <feGaussianBlur stdDeviation="11.83663"/>
  </filter>
  <linearGradient id="a">
   <stop stop-color="#babdb6" offset="0"/>
   <stop stop-color="#aaaaa2" stop-opacity="0" offset="1"/>
  </linearGradient>
  <linearGradient id="b">
   <stop stop-color="#3465a4" offset="0"/>
   <stop stop-color="#729fcf" offset=".5"/>
   <stop stop-color="#3465a4" offset="1"/>
  </linearGradient>
  <linearGradient id="h" x1="322.15" x2="326.23" y1="962.81" y2="1014.6" gradientUnits="userSpaceOnUse">
   <stop stop-color="#fff" offset="0"/>
   <stop stop-color="#fcf5ea" offset="1"/>
  </linearGradient>
  <linearGradient id="e" x1="6.5298" x2="165.85" y1="169.79" y2="174.34" gradientUnits="userSpaceOnUse">
   <stop stop-color="#eeeeec" offset="0"/>
   <stop stop-color="#d3d7cf" offset=".57919"/>
   <stop stop-color="#eeeeec" offset="1"/>
  </linearGradient>
  <linearGradient id="g" x1="12.338" x2="42.643" y1="91.366" y2="85.147" gradientUnits="userSpaceOnUse" xlink:href="#a"/>
  <linearGradient id="f" x1="29.162" x2="71.631" gradientUnits="userSpaceOnUse" xlink:href="#b"/>
  <radialGradient id="d" cx="398.84" cy="762.99" r="58.141" gradientTransform="matrix(-.76225 .90874 -1.1764 -.98681 1291.2 463.91)" gradientUnits="userSpaceOnUse" xlink:href="#a"/>
  <radialGradient id="c" cx="430.07" cy="936.83" r="82.799" gradientTransform="matrix(1 0 0 .58005 0 393.42)" gradientUnits="userSpaceOnUse" xlink:href="#b"/>
 </defs>
 <path d="m30.261 19.893c-10.107 26.81-23.045 52.394-21.25 111.41l1.5938 79.487c-0.80734 6.1574-1.9612 12.358 1.25 18.013 33.039 37.343 119.11 44.228 148.75-0.875l0.71875-19.125 2.6875-76.594c1.1221-10.38 2.1791-21.185-0.71875-31.25-10.555-36.661-28.736-70.265-91.25-77.5l-1.5938-3.5625h-40.188zm51.406 21.875c20.637 4.4859 56.836 23.456 55.312 43.938-10.647 20.772-55.833-18.505-64.156-29.562-2.0463-9.421 1.818-13.354 8.8438-14.375z" fill="url(#e)" stroke="#2e3436"/>
 <path d="m9.665 135.21c47.839 13.501 83.168 19.553 153.75 0.17857l-2.4849 78.929c-50.707 25.457-101.03 24.84-149.84-3.0357l-1.4286-76.071z" fill="#204a87" stroke="#173561" stroke-width=".5"/>
 <path transform="matrix(.962 0 0 .91945 -329.29 -680.46)" d="m456.84 905.38-102.78 26.264 13.132 46.72 135.87-13.89 3.0305-69.195-49.245 10.102z" fill="url(#c)" filter="url(#k)" opacity=".75"/>
 <path d="m147.42 173.35a24.345 59.942 77.995 1 1 -117.28 24.844 24.345 59.942 77.995 1 1 117.28 -24.844z" fill="none" filter="url(#j)" stroke="#ef2929" stroke-width="10"/>
 <path d="m144.22 174.85a21.945 56.686 78.803 1 1 -111.14 22.348 21.945 56.686 78.803 1 1 111.14 -22.348z" fill="none" filter="url(#i)" stroke="#fce94f" stroke-width="5"/>
 <g transform="matrix(.99373 -.11182 .11182 .99373 -343.81 -760.87)" fill="url(#h)" font-family="Impact" font-size="45" font-stretch="expanded" letter-spacing="1" stroke="#5d3a02">
  <path d="m253.01 970.52h9.2285c2.915 4e-5 5.1196 0.22709 6.6138 0.68116 1.5088 0.45413 2.7246 1.377 3.6475 2.7686 0.92283 1.377 1.3843 3.6035 1.3843 6.6797-2e-5 2.0801-0.32961 3.5303-0.98877 4.3506-0.64455 0.82034-1.9263 1.4502-3.8452 1.8896 2.1386 0.48342 3.5888 1.2891 4.3506 2.417 0.7617 1.1133 1.1426 2.8272 1.1426 5.1416v3.2959c-2e-5 2.4023-0.27834 4.1821-0.83496 5.3393-0.54201 1.1572-1.4136 1.9483-2.6148 2.3731s-3.6621 0.6372-7.3828 0.6372h-10.701v-35.574m9.2505 6.0864v7.9102l0.92285-0.022c0.90819 2e-5 1.4868-0.2197 1.7358-0.65918 0.24901-0.45408 0.37352-1.7358 0.37353-3.8452-1e-5 -1.1133-0.10255-1.8896-0.30762-2.3291-0.20509-0.45408-0.47608-0.73972-0.81298-0.85694-0.32228-0.11716-0.95949-0.18307-1.9116-0.19775m0 13.447v9.9536c1.3037-0.0439 2.1313-0.249 2.4829-0.61522 0.36619-0.3662 0.5493-1.2671 0.54931-2.7026v-3.3179c-1e-5 -1.5234-0.16114-2.4463-0.4834-2.7686s-1.1719-0.50535-2.5488-0.54932"/>
  <path d="m289.13 970.52v28.455h5.625v7.1192h-14.875v-35.574h9.2505"/>
  <path d="m299.02 970.52h15.425v7.1191h-6.1743v6.7456h5.7788v6.7676h-5.7788v7.8223h6.7896v7.1192h-16.04v-35.574"/>
  <path d="m335.71 970.52 5.2954 35.574h-9.4702l-0.46143-6.3941h-3.3179l-0.54932 6.3941h-9.5801l4.7022-35.574h13.381m-4.8999 22.874c-0.46876-4.0283-0.93751-9.0014-1.4062-14.919-0.93751 6.7969-1.5234 11.77-1.7578 14.919h3.1641"/>
  <path d="m366.19 986.04h-9.2505v-6.1963c-1e-5 -1.8017-0.10255-2.9223-0.30761-3.3618-0.19045-0.45407-0.62257-0.68112-1.2964-0.68115-0.76173 3e-5 -1.2451 0.27103-1.4502 0.81299s-0.30763 1.7139-0.30762 3.5156v16.523c-1e-5 1.7285 0.10253 2.8564 0.30762 3.3838s0.66649 0.791 1.3843 0.791c0.68847 0 1.1352-0.2636 1.3403-0.791 0.21972-0.52732 0.32958-1.7651 0.32959-3.7134v-4.4604h9.2505v1.3843c-2e-5 3.6768-0.26369 6.2842-0.79101 7.8222-0.51272 1.5381-1.6626 2.8858-3.4497 4.043-1.7725 1.1572-3.9624 1.7358-6.5698 1.7358-2.71 0-4.9439-0.4907-6.7017-1.4721s-2.9224-2.3364-3.4937-4.065c-0.57129-1.7431-0.85693-4.3579-0.85693-7.8442v-10.393c0-2.5634 0.0879-4.4824 0.26367-5.7568 0.17578-1.289 0.6958-2.5268 1.5601-3.7134 0.8789-1.1865 2.0874-2.1167 3.6255-2.7905 1.5527-0.68844 3.3325-1.0327 5.3394-1.0327 2.7246 4e-5 4.9731 0.52738 6.7456 1.582s2.937 2.3731 3.4936 3.9551c0.55662 1.5674 0.83494 4.0137 0.83496 7.3389v3.3838"/>
  <path d="m392.82 970.52v35.574h-9.2505v-14.941h-2.7686v14.941h-9.2505v-35.574h9.2505v12.722h2.7686v-12.722h9.2505"/>
 </g>
 <path d="m47.4 23.809c-7.0206 39.926 2.2557 72.429 38.036 92.857 30.532 14.39 57.853 15.937 76.071-18.929l-24.464-12.321-2.3214 3.9286c-17.767 8.585-27.405-6.5362-40-13.036l-21.607-19.821c-7.2297-7.9055-11.084-20.875-13.571-35.893l-12.143 3.2143z" fill="url(#d)" filter="url(#l)" opacity=".7"/>
 <path d="m29.43 18.956v-16.339c0.5377-0.26189 1.1183-0.39501 1.4286-1.3393h38.929c0.39976 0.52286 0.71767 1.1276 1.3393 1.4286v16.25h-41.696z" fill="url(#f)" stroke="#204a87"/>
 <path d="m35.572 22.565c4.6437 39.512 11.018 80.061 25.001 125.16-17.794-1.1635-35.404-4.2511-52.528-12.437 0.56719-65.934 11.308-83.485 20.203-109.82l7.3236-2.9108z" fill="url(#g)" filter="url(#m)" opacity=".3"/>
 <path d="m29.666 10.569h41.669" fill="none" opacity=".05" stroke="#000" stroke-dasharray="1.5, 1.5" stroke-width="15"/>
</svg>
