<?xml version="1.0" standalone="no"?>
<!DOCTYPE svg PUBLIC "-//W3C//DTD SVG 20010904//EN"
 "http://www.w3.org/TR/2001/REC-SVG-20010904/DTD/svg10.dtd">
<svg version="1.0" xmlns="http://www.w3.org/2000/svg"
 width="600.000000pt" height="600.000000pt" viewBox="0 0 600.000000 600.000000"
 preserveAspectRatio="xMidYMid meet">
<metadata>
Created by potrace 1.15, written by Peter Selinger 2001-2017
</metadata>
<g transform="translate(0.000000,600.000000) scale(0.100000,-0.100000)"
fill="#000000" stroke="none">
<path d="M3160 4285 c-7 -17 -4 -44 9 -92 19 -70 104 -297 119 -317 19 -25 45
-113 46 -153 1 -59 -22 -80 -104 -92 -53 -7 -68 -6 -82 6 -9 8 -21 12 -27 9
-5 -3 -18 4 -28 16 -13 17 -27 22 -48 20 -35 -3 -92 -28 -117 -49 -12 -11 -30
-14 -60 -10 -99 11 -118 18 -118 43 0 13 -13 19 -34 15 -5 -1 -6 16 -3 39 4
31 2 40 -9 40 -11 0 -12 4 -4 19 5 11 10 29 10 40 0 12 5 21 10 21 7 0 7 6 1
19 -6 10 -8 21 -4 24 15 16 21 181 9 240 -6 25 -5 37 3 37 6 0 11 -8 11 -17 0
-15 2 -16 10 -3 5 8 5 17 0 20 -5 3 -11 17 -15 31 -6 24 -9 25 -30 15 -31 -14
-40 -46 -14 -46 17 0 18 -3 9 -21 -15 -26 -29 -21 -50 19 l-18 32 -21 -35
c-11 -19 -27 -35 -36 -35 -8 0 -15 -9 -15 -20 0 -11 5 -20 12 -20 6 0 -6 -15
-28 -34 -22 -18 -77 -72 -124 -120 -47 -47 -92 -86 -102 -86 -10 0 -20 -10
-24 -24 -3 -14 -15 -27 -29 -30 -32 -8 -38 -33 -15 -63 24 -30 25 -43 6 -43
-8 0 -16 8 -18 17 -3 16 -6 15 -25 -4 -14 -14 -25 -18 -29 -12 -7 12 -72 3
-91 -13 -9 -7 -13 -7 -13 1 0 6 5 11 11 11 5 0 7 5 3 12 -13 21 -33 -21 -27
-58 4 -27 2 -34 -11 -34 -9 0 -16 6 -16 13 0 6 -11 -6 -25 -28 -13 -22 -25
-55 -25 -72 0 -18 -5 -33 -11 -33 -13 0 -2 -163 12 -168 5 -2 9 -12 9 -23 0
-12 7 -19 19 -19 11 0 23 -4 26 -10 4 -6 -7 -10 -25 -10 -40 0 -30 -16 18 -30
160 -46 504 -70 1007 -70 366 0 773 19 865 40 83 19 102 30 96 56 -5 17 -1 24
13 29 24 7 30 53 18 135 -4 30 -8 66 -8 78 -1 36 -29 58 -72 57 -33 -2 -37 1
-32 19 3 12 2 15 -1 9 -7 -17 -34 -16 -58 2 -14 10 -22 11 -36 3 -22 -14 -76
6 -91 34 -8 15 -17 18 -47 12 -50 -9 -58 -19 -31 -38 16 -11 19 -16 8 -16 -8
0 -24 7 -35 15 -10 8 -28 15 -39 15 -20 1 -107 101 -143 165 -9 16 -25 38 -35
50 -11 11 -28 39 -39 62 -14 30 -24 40 -35 36 -12 -5 -14 -1 -8 16 4 12 2 27
-3 34 -10 12 -35 92 -35 115 0 6 -4 12 -9 12 -4 0 -8 10 -8 23 0 12 -10 55
-22 94 -16 51 -27 71 -36 68 -8 -3 -16 4 -19 15 -7 28 -32 25 -43 -5z"/>
<path d="M3833 3038 l-53 -10 0 -161 c0 -235 -10 -244 -37 -33 -12 99 -26 183
-30 187 -4 4 -26 4 -48 -1 -22 -5 -54 -10 -71 -10 -34 0 -30 11 -69 -194 -8
-44 -20 -98 -26 -120 -11 -38 -12 -40 -22 -18 -9 19 -18 22 -62 22 -55 0 -80
-15 -69 -43 9 -25 -14 -57 -41 -57 l-25 0 2 123 c1 67 -1 128 -5 135 -5 7 -3
12 4 12 7 0 21 7 31 17 22 19 28 15 37 -29 7 -33 7 -33 66 -33 l60 0 3 39 c4
48 -22 110 -54 131 -33 21 -149 20 -194 -3 -59 -29 -74 -70 -79 -205 -4 -159
2 -198 42 -237 18 -18 43 -37 57 -42 l25 -11 -26 -10 c-20 -8 -28 -20 -37 -64
-6 -29 -9 -60 -5 -68 3 -8 1 -15 -4 -15 -10 0 -35 -90 -57 -200 -8 -41 -19
-86 -25 -100 -23 -58 -8 79 19 175 14 49 21 237 10 255 -8 13 -74 23 -101 14
-13 -3 -18 -23 -23 -87 -16 -196 -29 -214 -40 -56 -10 140 -10 140 -103 137
l-76 -3 -3 -40 c-1 -22 -5 -55 -9 -72 -5 -24 -4 -33 5 -33 10 0 10 -3 0 -15
-7 -9 -16 -54 -21 -102 -7 -83 -16 -102 -46 -103 -7 0 -13 5 -13 11 0 6 7 9
15 5 12 -4 15 5 16 52 2 75 0 84 -18 98 -19 13 -8 38 13 30 19 -7 18 13 -2 35
-12 13 -13 22 -5 37 6 11 8 22 5 25 -3 2 -7 20 -9 38 -3 18 -8 36 -12 39 -12
11 -91 21 -97 12 -9 -14 40 -441 55 -479 6 -18 5 -23 -6 -23 -9 0 -15 -10 -15
-25 0 -23 -3 -25 -52 -25 -58 0 -228 28 -241 40 -4 3 2 29 13 56 29 66 90 254
90 275 0 9 -8 27 -18 39 -16 19 -30 23 -108 27 -84 4 -91 3 -129 -22 -79 -52
-205 -302 -205 -405 0 -53 64 -80 190 -80 67 0 78 3 103 26 32 29 43 26 52
-16 8 -36 36 -56 90 -65 22 -3 52 -9 68 -11 15 -3 27 -1 27 4 0 5 -24 14 -52
20 -48 9 -44 10 47 7 55 -2 103 -4 108 -4 4 -1 7 -5 7 -11 0 -5 -21 -11 -47
-11 l-48 -1 38 -8 c20 -4 40 -10 44 -13 8 -8 -24 -164 -48 -236 -19 -55 -18
-71 7 -71 8 0 14 -5 14 -10 0 -6 -10 -10 -22 -9 -26 3 -88 -19 -88 -31 0 -10
182 -30 274 -30 56 0 75 4 80 15 3 8 -2 19 -12 24 -16 10 -15 12 6 15 24 3 44
40 45 83 1 28 7 48 15 51 9 3 11 -4 7 -25 l-5 -28 11 30 c15 38 22 42 82 50
34 5 45 10 36 16 -11 7 -10 9 4 9 9 0 17 -5 17 -11 0 -8 6 -7 17 2 11 10 17
10 20 3 3 -8 36 -10 102 -7 l99 4 17 -53 c20 -60 50 -98 77 -98 11 0 17 4 13
10 -3 5 9 7 30 5 19 -3 65 0 103 5 37 6 95 15 128 20 61 9 200 55 218 72 6 4
18 8 28 8 39 0 47 35 53 258 4 116 4 212 0 212 -3 0 -23 -9 -44 -19 -20 -11
-80 -29 -132 -41 -52 -11 -119 -27 -149 -35 -30 -7 -82 -16 -115 -19 -33 -3
-90 -8 -126 -12 -76 -7 -111 0 -102 22 3 7 0 14 -6 14 -6 0 -11 -4 -11 -10 0
-5 -16 -10 -36 -10 -21 0 -33 4 -29 10 3 6 14 10 24 10 25 0 46 28 43 56 -2
16 2 24 11 24 9 0 23 3 31 6 12 5 19 -2 27 -24 11 -33 28 -39 92 -33 29 2 38
8 43 27 l6 23 41 -26 c34 -21 48 -24 90 -20 27 4 59 14 70 24 53 48 74 182 39
253 -14 28 -26 37 -72 51 -60 18 -70 31 -45 59 17 18 18 18 39 -6 19 -23 25
-25 56 -17 34 9 35 11 32 54 -1 24 -11 56 -22 70 -21 30 -17 39 17 39 18 0 23
-5 23 -27 1 -16 0 -123 0 -239 -1 -234 0 -237 59 -208 31 15 31 16 31 99 0 46
5 87 10 90 12 7 13 0 11 -80 -2 -78 8 -94 43 -71 26 16 26 17 27 159 3 327 9
576 15 642 3 39 2 86 -3 105 -11 40 -31 45 -120 28z m-338 -524 c13 -3 34 -3
47 1 23 7 23 7 -3 -21 -49 -53 -64 -104 -31 -104 15 -1 15 -2 1 -13 -25 -19
-30 -46 -15 -80 16 -37 49 -63 124 -97 19 -8 23 -17 20 -42 -4 -41 -33 -50
-42 -14 -7 28 -16 30 -83 17 -49 -9 -42 -25 -73 163 -12 71 -25 139 -30 152
-7 18 -3 29 23 57 31 33 32 33 35 10 2 -14 12 -25 27 -29z m-1174 -216 c26 17
34 15 63 -11 28 -26 31 -40 21 -83 -8 -35 -38 -58 -66 -49 -31 10 -22 30 14
30 26 0 33 4 35 23 7 50 -54 96 -76 57 -10 -19 1 -114 14 -123 6 -4 11 -34 11
-67 1 -38 -1 -53 -6 -40 -6 15 -9 11 -14 -23 -14 -83 -89 -93 -122 -16 -17 41
-19 91 -6 127 13 32 3 70 -16 63 -22 -9 -27 23 -7 43 11 10 30 32 43 49 22 27
26 29 58 19 25 -8 40 -8 54 1z m579 -52 c0 0 3 -46 6 -101 7 -123 17 -153 52
-157 23 -3 27 -7 24 -31 -3 -27 -1 -28 25 -23 28 5 91 9 126 7 37 -2 15 -21
-25 -21 -58 0 -88 -9 -88 -27 0 -8 5 -11 10 -8 6 3 10 0 10 -7 0 -10 2 -10 9
1 5 8 16 11 25 8 8 -3 18 -2 21 3 3 6 15 6 30 0 14 -5 31 -7 38 -4 8 3 13 -3
13 -15 0 -16 -6 -19 -43 -16 -24 1 -43 -2 -43 -7 0 -7 -5 -6 -13 1 -8 6 -17 8
-20 4 -13 -13 -71 -4 -80 12 -8 15 -11 15 -28 -4 -26 -28 -48 -25 -63 9 -4 9
-5 7 -2 -6 3 -18 -6 -23 -62 -38 -46 -12 -68 -14 -75 -7 -8 8 2 11 33 11 24 0
40 3 36 8 -4 4 -13 7 -19 7 -6 0 -14 11 -18 25 -6 23 -7 23 -8 3 -1 -24 -16
-39 -25 -25 -3 5 -27 8 -53 6 -30 -3 -50 0 -55 8 -6 10 -8 10 -8 0 0 -9 -7
-11 -22 -6 -13 4 -30 8 -38 9 -63 8 -117 19 -126 26 -6 5 -18 7 -27 3 -12 -4
-14 -1 -10 16 5 20 10 21 71 16 36 -3 69 -11 73 -17 5 -8 8 -8 13 0 12 18 25
12 32 -14 3 -14 10 -25 16 -25 5 0 7 9 3 19 -5 16 -1 19 15 18 13 -1 20 -8 20
-22 1 -20 1 -20 19 2 15 18 31 22 82 25 35 1 69 -1 76 -5 7 -4 27 -5 45 -1 55
10 73 10 80 -1 4 -5 8 0 8 13 0 15 -11 29 -32 42 -40 24 -42 24 -62 5 -8 -8
-21 -12 -29 -9 -8 3 -17 -2 -20 -10 -8 -21 -33 -20 -41 1 -5 12 -9 14 -18 5
-17 -17 -35 -15 -42 5 -12 30 15 39 94 31 29 -4 37 23 44 150 6 100 12 123 32
115 7 -3 14 -6 14 -7z"/>
<path d="M2080 3000 c0 -5 20 -10 44 -10 43 0 45 -1 42 -27 -3 -20 -8 -27 -21
-25 -13 3 -15 -2 -11 -16 4 -13 1 -22 -9 -26 -16 -6 -21 -46 -6 -46 11 0 22
27 13 33 -4 2 -1 2 6 0 7 -1 24 10 37 25 14 15 25 21 25 15 0 -7 -4 -13 -9
-13 -5 0 -13 -15 -16 -32 -4 -18 -16 -51 -26 -72 -10 -22 -17 -42 -14 -45 11
-11 33 -8 29 3 -3 7 3 20 13 29 15 13 26 14 63 6 24 -5 51 -9 61 -7 30 5 -3
66 -46 84 -19 8 -35 19 -35 26 0 8 47 9 178 4 97 -4 194 -9 215 -12 32 -4 37
-2 37 15 0 11 5 23 10 26 21 13 -4 27 -39 21 -21 -3 -30 -2 -23 3 9 5 -10 11
-50 15 -34 4 -85 10 -112 13 -36 4 -47 3 -42 -6 5 -8 -9 -11 -50 -11 -46 0
-54 2 -45 14 9 11 0 14 -50 20 -91 9 -169 7 -169 -4z"/>
<path d="M2315 2699 c-58 -22 -85 -24 -85 -6 0 6 -8 2 -18 -10 -14 -17 -31
-22 -95 -27 -71 -5 -117 -18 -117 -32 0 -3 12 -3 28 0 36 8 141 10 147 4 12
-12 -9 -39 -29 -36 -11 1 -28 -2 -36 -7 -8 -5 -28 -8 -45 -7 -16 1 -37 -3 -45
-8 -16 -11 -8 -12 82 -15 54 -2 61 -5 52 -29 -4 -10 -18 -16 -38 -17 -54 -1
-62 -9 -56 -58 4 -40 6 -43 19 -27 11 13 11 20 3 28 -7 7 -12 18 -12 25 0 19
33 16 46 -4 12 -19 100 -50 111 -39 4 3 1 12 -5 18 -11 11 -17 48 -9 48 2 0
30 -9 62 -20 60 -21 130 -26 139 -11 3 4 -11 13 -32 19 -20 6 -61 27 -91 45
l-53 34 37 6 c65 11 89 46 33 48 -18 1 -44 4 -58 8 -23 7 -21 8 17 15 44 8
103 42 111 64 5 15 -2 14 -63 -9z"/>
<path d="M2804 2632 c-26 -22 -54 -74 -54 -101 0 -24 17 -36 33 -23 21 18 83
25 107 12 30 -16 36 -5 18 33 -17 35 -66 97 -76 97 -4 -1 -17 -9 -28 -18z"/>
<path d="M3957 1469 c-80 -79 -320 -147 -637 -181 -150 -15 -548 -15 -675 1
-316 39 -537 100 -628 171 l-27 21 0 -20 c0 -12 5 -21 10 -21 6 0 10 -8 10
-17 0 -14 -2 -15 -9 -4 -12 18 -18 -3 -13 -40 3 -19 9 -26 18 -22 8 3 14 -1
14 -10 0 -8 -4 -17 -8 -19 -5 -1 -12 -19 -15 -38 -5 -24 -4 -30 3 -20 7 11 11
4 16 -28 4 -23 11 -45 15 -48 5 -3 9 -14 9 -25 0 -11 -4 -17 -10 -14 -21 13
-9 -16 21 -50 24 -27 37 -34 53 -30 16 5 18 4 6 -4 -19 -13 -6 -23 100 -80
102 -54 214 -91 339 -112 304 -50 681 -50 947 0 211 40 386 153 450 291 9 19
23 48 31 63 8 16 17 50 19 75 2 26 7 70 12 97 9 48 1 96 -15 94 -5 -1 -21 -14
-36 -30z"/>
</g>
</svg>
