<?xml version="1.0" standalone="no"?>
<!DOCTYPE svg PUBLIC "-//W3C//DTD SVG 20010904//EN"
 "http://www.w3.org/TR/2001/REC-SVG-20010904/DTD/svg10.dtd">
<svg version="1.0" xmlns="http://www.w3.org/2000/svg"
 width="1280.000000pt" height="912.000000pt" viewBox="0 0 1280.000000 912.000000"
 preserveAspectRatio="xMidYMid meet">
<metadata>
Created by potrace 1.15, written by Peter Selinger 2001-2017
</metadata>
<g transform="translate(0.000000,912.000000) scale(0.100000,-0.100000)"
fill="#000000" stroke="none">
<path d="M10610 5953 c0 -13 -8 -24 -20 -28 -15 -5 -19 -12 -15 -26 7 -21 -14
-26 -43 -10 -24 13 -49 -8 -54 -44 l-4 -30 -15 32 c-14 30 -16 31 -28 14 -13
-18 -14 -18 -32 0 -11 11 -19 23 -19 28 0 14 -18 23 -31 15 -8 -4 -7 -9 2 -15
7 -4 10 -11 7 -14 -4 -4 -13 -3 -20 1 -22 14 -48 11 -48 -5 0 -13 -2 -13 -9
-2 -7 11 -11 9 -20 -8 -7 -12 -15 -20 -19 -17 -4 3 -9 -7 -10 -21 -3 -36 -11
-44 -32 -33 -14 7 -20 6 -24 -7 -4 -9 -9 -13 -13 -9 -9 8 -44 -25 -37 -35 3
-5 -2 -9 -11 -9 -8 0 -20 -11 -27 -25 -6 -13 -14 -23 -17 -20 -4 2 -13 -5 -20
-17 -10 -16 -10 -19 1 -12 7 4 4 -2 -6 -14 -11 -12 -25 -22 -32 -22 -14 0 -40
-25 -89 -84 -16 -20 -38 -45 -47 -56 -24 -27 -23 -30 12 -25 17 2 30 -1 30 -7
0 -5 7 -8 15 -4 15 5 12 -2 -21 -52 -1 -2 -24 -5 -50 -7 -39 -2 -54 -9 -76
-34 -15 -17 -32 -31 -37 -31 -30 0 -161 -157 -161 -192 0 -13 3 -18 8 -12 9
15 52 37 59 31 2 -3 7 -19 9 -36 5 -29 4 -30 -35 -28 -23 2 -41 -1 -41 -5 0
-3 -9 -8 -20 -10 -14 -2 -17 -7 -10 -18 7 -12 12 -12 22 -2 16 16 36 15 54 -2
20 -21 18 -30 -16 -50 -30 -17 -31 -20 -26 -73 5 -49 2 -59 -16 -75 -12 -10
-28 -18 -36 -18 -9 0 -12 -6 -8 -16 3 -9 6 -19 6 -23 0 -16 60 2 65 20 8 26
45 25 45 -1 0 -20 -32 -44 -44 -33 -3 3 -6 -5 -6 -20 0 -35 -10 -57 -25 -57
-8 0 -16 -9 -20 -19 -3 -10 -16 -22 -28 -26 -21 -6 -20 -7 9 -16 24 -7 54 -41
54 -63 0 -7 -38 -46 -44 -46 -4 0 -18 12 -31 26 -16 17 -25 22 -26 13 0 -8 -4
-4 -9 8 -6 14 -15 21 -24 17 -15 -6 -16 -20 -3 -41 4 -6 3 -14 -3 -18 -6 -4
-8 -10 -5 -14 2 -5 -1 -16 -8 -25 -15 -21 -67 -13 -67 10 0 8 3 13 8 13 35 -6
45 23 13 40 -21 12 -31 5 -31 -21 0 -10 -7 -18 -16 -18 -9 0 -18 -9 -21 -20
l-6 -21 -14 21 c-18 26 -43 26 -43 0 0 -24 -8 -25 -31 -4 -16 14 -20 15 -33 1
-8 -8 -12 -19 -8 -23 4 -5 1 -4 -7 3 -11 9 -19 8 -38 -4 l-24 -16 25 -22 c30
-26 32 -37 11 -55 -13 -11 -13 -15 -3 -21 10 -7 10 -9 1 -9 -7 0 -22 9 -33 20
-16 16 -24 18 -50 9 -16 -6 -30 -18 -30 -26 0 -12 -6 -13 -27 -8 -16 4 -38 7
-50 7 -15 -1 -23 4 -23 15 0 14 -2 14 -19 -3 -13 -13 -15 -23 -9 -31 7 -9 5
-14 -6 -18 -9 -3 -24 -8 -33 -12 -10 -3 -22 -7 -28 -7 -5 -1 -24 -9 -41 -18
-17 -10 -34 -15 -37 -12 -2 3 -18 -9 -35 -26 -17 -16 -38 -30 -46 -30 -9 0
-15 -6 -14 -12 2 -7 -4 -13 -12 -13 -23 -1 -80 -26 -80 -36 0 -5 -6 -9 -14 -9
-8 0 -21 -6 -28 -14 -8 -7 -25 -17 -38 -21 -14 -4 -27 -11 -30 -15 -5 -7 -55
-33 -195 -103 -169 -83 -224 -127 -160 -127 25 0 101 35 110 51 3 4 19 6 36 2
24 -4 33 -1 45 15 8 12 21 19 28 16 8 -3 17 3 20 14 8 24 28 33 45 23 10 -6 9
-12 -3 -24 -21 -21 -21 -22 14 -23 19 -1 30 3 30 12 0 8 5 14 11 14 6 0 9 9 6
20 -6 23 12 39 23 20 6 -9 11 -8 19 6 9 13 14 15 17 7 8 -18 25 -16 18 2 -4
10 0 15 14 15 15 0 22 8 24 27 2 14 9 29 17 31 8 3 11 0 8 -5 -8 -13 11 -40
21 -28 10 14 42 18 42 6 0 -5 10 -8 22 -6 20 4 21 3 6 -11 -9 -9 -28 -16 -42
-16 -15 0 -29 -4 -32 -9 -3 -5 -16 -9 -29 -9 -13 0 -26 -4 -30 -9 -10 -17 31
-21 67 -7 42 18 78 11 78 -15 0 -11 5 -19 11 -19 5 0 7 5 4 10 -4 6 5 10 20
10 15 0 24 4 20 10 -3 5 -15 10 -26 10 -10 0 -19 6 -19 13 0 18 36 19 51 1 6
-8 21 -14 33 -14 12 0 28 -6 35 -12 10 -10 15 -10 18 -2 2 7 12 10 21 7 13 -3
21 6 30 31 8 20 19 37 25 38 7 0 17 2 22 2 6 1 16 5 23 10 16 9 31 -2 17 -12
-24 -17 -46 -52 -40 -62 5 -8 11 -6 20 6 10 15 17 16 36 7 13 -7 18 -12 12
-12 -7 -1 -13 -8 -13 -17 0 -12 6 -11 29 8 15 13 27 25 25 28 -1 3 8 7 22 8
15 1 29 -6 36 -18 7 -11 18 -20 25 -20 16 0 16 -5 2 -31 -9 -17 -13 -18 -26
-7 -14 11 -15 11 -11 -2 3 -10 16 -14 39 -12 37 4 61 26 52 48 -5 13 14 20 40
15 5 -1 7 4 4 11 -2 7 -11 12 -21 10 -25 -4 -19 24 11 52 21 19 31 23 45 15
23 -12 14 -29 -15 -29 -12 0 -29 -5 -37 -11 -11 -8 -5 -9 23 -4 27 4 37 3 32
-4 -3 -6 -1 -11 4 -11 6 0 11 5 11 11 0 8 5 8 15 -1 8 -7 15 -18 15 -26 0 -7
5 -25 12 -39 8 -18 14 -22 20 -13 5 9 8 4 8 -14 0 -15 -6 -33 -14 -41 -11 -11
-12 -17 -3 -26 23 -23 33 -11 30 38 -2 35 1 52 13 62 13 10 17 10 24 -1 5 -8
7 -17 5 -21 -3 -3 7 -4 20 -1 14 2 23 8 20 12 -6 9 64 19 83 12 8 -3 2 -12
-17 -27 -24 -17 -28 -24 -18 -35 7 -8 7 -10 1 -7 -6 4 -20 -1 -31 -11 -20 -17
-20 -17 5 -36 14 -11 39 -22 56 -25 35 -8 66 -55 48 -73 -13 -13 14 -58 34
-58 8 0 17 -6 20 -14 3 -8 19 -14 39 -13 31 1 41 17 10 17 -19 0 -26 15 -19
35 5 13 8 14 15 3 10 -16 44 1 44 23 0 8 9 13 22 12 16 -2 20 2 16 17 -4 15
-11 18 -28 14 -13 -3 -26 -1 -29 5 -10 16 -36 13 -36 -3 0 -21 -18 -30 -34
-17 -7 6 -16 8 -19 4 -4 -3 -7 5 -8 18 0 22 -1 23 -9 4 -8 -17 -8 -16 -7 7 1
18 5 24 11 18 6 -6 19 -10 29 -10 16 0 17 3 7 15 -30 37 23 61 67 30 19 -13
22 -13 29 3 4 9 8 22 8 27 1 6 10 9 20 8 13 -1 15 2 7 10 -15 15 -14 42 3 56
20 17 33 90 15 84 -3 -1 -12 9 -19 23 -10 18 -11 27 -2 36 14 14 42 -7 42 -32
0 -10 7 -21 16 -24 17 -7 11 -40 -12 -67 -8 -9 -12 -24 -8 -34 4 -10 1 -21 -7
-27 -10 -7 -8 -8 8 -3 12 3 24 2 27 -4 3 -5 13 -8 21 -7 19 3 65 43 65 56 0 5
5 10 10 10 14 0 12 -48 -2 -52 -7 -3 -5 -7 6 -11 9 -4 15 -3 11 2 -3 5 -1 12
4 15 12 8 -9 78 -29 93 -13 10 -12 13 10 22 l25 10 -27 0 c-34 1 -47 20 -19
28 17 4 19 9 10 25 -6 11 -9 31 -6 44 3 17 0 24 -11 24 -12 0 -13 3 -5 11 9 9
21 8 47 -5 34 -16 51 -34 22 -23 -8 3 -18 -5 -25 -19 -11 -26 -3 -32 18 -11 7
6 12 8 11 2 -6 -29 1 -36 29 -30 21 4 30 2 34 -9 4 -9 2 -16 -3 -16 -6 0 -10
-5 -10 -12 0 -8 5 -7 15 3 20 20 9 80 -16 86 -14 4 -16 10 -9 29 8 20 6 24
-10 24 -25 0 -35 17 -20 36 10 11 16 12 28 2 12 -11 17 -9 30 10 8 12 22 22
32 22 20 0 42 -43 34 -65 -4 -8 -2 -15 4 -15 5 0 12 7 16 15 3 8 12 12 21 9
19 -8 20 -24 1 -24 -7 0 -16 -11 -19 -25 -6 -32 22 -54 59 -47 17 3 22 7 14
12 -9 6 -9 9 0 12 8 2 15 11 16 19 2 7 6 25 10 38 5 17 4 22 -4 17 -7 -4 -12
-2 -12 4 0 6 12 9 27 8 25 -3 28 0 28 32 0 19 -3 38 -8 41 -5 4 4 19 22 34 31
28 32 47 3 44 -47 -4 -52 0 -47 38 3 21 -1 43 -8 52 -9 11 -9 13 0 8 7 -4 16
0 21 10 9 14 14 15 36 5 24 -11 25 -14 14 -34 -7 -13 -17 -26 -23 -30 -6 -5
-5 -12 3 -20 8 -8 12 -8 12 -1 0 6 8 13 18 17 62 22 77 25 88 15 9 -7 16 -5
23 10 6 11 11 24 11 30 0 10 -80 8 -97 -2 -5 -3 -18 10 -28 30 -18 33 -18 36
-2 48 23 17 22 28 -2 15 -38 -20 -44 -2 -10 29 12 11 18 25 14 31 -6 9 -10 9
-17 -1 -7 -11 -11 -11 -15 -1 -2 7 -14 17 -25 23 -15 8 -19 8 -14 0 10 -15
-21 -44 -38 -38 -8 3 -17 3 -21 -1 -4 -4 -10 -7 -13 -7 -13 0 -52 -40 -52 -52
0 -7 -5 -13 -11 -13 -5 0 -8 4 -4 9 3 5 -3 12 -14 16 -18 5 -22 37 -10 80 1 6
-4 23 -11 39 -14 27 -13 29 15 50 16 11 36 21 44 21 8 0 21 15 30 32 15 31 31
43 31 24 0 -5 8 -7 18 -4 12 3 25 -4 36 -21 18 -28 41 -34 50 -13 3 6 4 -8 2
-33 -4 -31 -2 -39 4 -25 5 11 9 32 9 48 1 22 6 27 25 27 14 0 28 5 31 10 4 6
16 10 28 8 19 -3 22 3 25 35 2 28 -2 42 -15 52 -19 14 -37 10 -28 -6 4 -5 -5
-9 -19 -9 -14 0 -26 5 -26 11 0 5 -5 7 -12 3 -8 -5 -1 -12 20 -21 18 -7 32
-18 32 -24 0 -5 -4 -8 -9 -4 -5 3 -12 1 -16 -4 -9 -15 -48 28 -42 47 3 10 8
26 13 37 7 17 6 18 -8 7 -13 -10 -17 -10 -21 2 -6 15 11 36 29 36 7 0 10 8 7
20 -3 11 -10 20 -15 20 -5 0 -6 5 -3 11 8 12 -36 -11 -46 -24 -3 -5 -10 -9
-15 -9 -5 1 -24 -7 -43 -16 -26 -12 -36 -13 -39 -4 -2 7 -12 12 -23 12 -10 0
-19 5 -19 10 0 6 5 10 10 10 6 0 15 11 20 25 6 16 14 23 25 19 10 -4 15 0 15
10 0 9 -5 16 -12 16 -9 0 -9 3 -1 11 14 14 6 39 -12 39 -8 0 -17 -9 -20 -20
-4 -11 -11 -18 -16 -15 -5 4 -9 1 -9 -4 0 -25 -38 -10 -49 19 -10 29 -5 36 22
31 5 -1 11 8 14 20 4 13 8 16 13 9 7 -12 61 3 59 17 -6 35 15 45 24 12 7 -28
27 -15 27 18 0 18 -4 24 -15 19 -8 -3 -15 -1 -15 4 0 5 -7 7 -14 4 -11 -4 -14
1 -13 23 3 26 5 28 45 26 44 -2 49 5 31 39 -9 16 -8 19 2 13 8 -6 10 -4 4 5
-5 8 -9 25 -10 38 -1 20 1 21 11 8 6 -9 16 -16 22 -16 5 0 12 -7 15 -14 4 -11
1 -13 -11 -10 -13 4 -12 2 2 -7 16 -9 21 -9 24 0 2 7 13 2 28 -14 13 -14 24
-28 24 -31 0 -2 -15 -4 -32 -4 -27 -1 -38 -8 -59 -39 l-27 -38 20 -24 c11 -13
17 -18 13 -11 -3 7 0 12 8 12 20 0 25 -27 17 -80 -4 -25 -8 -36 -9 -25 -2 19
-2 19 -12 2 -12 -21 -12 -22 19 -31 16 -6 22 -3 22 8 0 9 5 16 11 16 5 0 7 5
4 10 -4 6 -11 8 -16 5 -5 -3 -6 1 -3 10 5 12 9 13 20 4 11 -9 14 -8 14 4 0 8
-5 17 -12 19 -6 2 -12 21 -13 41 -1 36 -1 36 22 22 21 -14 23 -14 23 0 0 20
14 19 36 -2 16 -16 16 -16 10 4 -4 13 -2 22 7 26 8 3 12 20 11 43 0 31 4 42
23 55 14 9 24 19 24 23 -4 31 0 38 14 26 12 -10 19 -10 27 -2 7 7 8 12 4 12
-5 0 -3 7 4 15 7 8 9 15 5 15 -4 0 -14 -8 -21 -17 -8 -11 -13 -13 -14 -5 0 6
9 21 20 32 11 11 20 25 20 31 0 5 5 7 11 3 8 -5 8 -1 0 14 -6 11 -16 22 -23
24 -9 3 -9 6 0 12 7 4 12 2 12 -3 0 -6 7 -11 15 -11 8 0 15 5 15 10 0 18 40
11 41 -7 4 -47 3 -59 -6 -65 -6 -4 -2 -8 8 -8 10 0 17 8 17 20 0 26 32 33 92
22 26 -5 45 -5 42 -1 -3 5 2 9 10 9 8 0 18 -9 21 -20 3 -11 11 -20 17 -20 6 0
5 -6 -3 -16 -9 -11 0 -9 30 7 28 14 45 18 49 11 4 -5 19 -8 33 -5 20 4 25 9
22 24 -3 11 -16 22 -29 25 -30 8 -49 30 -34 39 6 3 8 11 5 16 -4 5 6 4 22 -2
15 -6 39 -13 52 -15 14 -3 30 -13 37 -22 16 -20 18 -68 4 -77 -5 -3 -7 0 -4 8
3 8 1 18 -4 21 -17 10 -22 -23 -7 -38 8 -8 15 -19 15 -25 0 -6 9 -11 19 -11
11 0 22 -6 24 -12 4 -10 6 -10 6 0 1 8 6 10 14 6 7 -4 6 0 -3 12 -43 55 -46
92 -4 53 12 -12 20 -27 17 -35 -10 -28 12 -13 25 16 12 25 19 30 49 30 28 0
33 -3 24 -13 -8 -10 -7 -14 4 -14 7 0 13 3 13 6 -1 3 2 14 7 24 6 15 10 15 23
5 12 -10 14 -10 8 0 -4 7 -2 12 8 12 8 0 17 6 20 13 5 10 7 10 12 0 3 -7 10
-13 15 -13 6 0 7 5 4 10 -3 6 -4 10 -1 10 3 0 12 -13 21 -30 9 -18 11 -30 5
-30 -7 0 -6 -5 2 -14 9 -10 17 -11 25 -4 7 6 20 8 28 4 10 -3 13 -2 10 5 -4 6
1 9 11 7 11 -2 18 2 17 10 -4 15 7 15 27 -1 25 -20 23 -46 -4 -53 -14 -3 -29
-3 -34 0 -5 3 -7 -7 -4 -22 5 -24 4 -26 -11 -13 -10 7 -17 21 -17 30 -1 14 -2
14 -11 -1 -5 -10 -16 -15 -24 -12 -20 8 -19 -20 1 -51 15 -23 15 -25 0 -25
-18 0 -19 -5 -6 -35 8 -19 9 -18 9 4 1 18 4 21 14 13 10 -8 13 -6 14 10 3 29
11 34 26 14 11 -16 14 -15 36 5 20 19 27 20 43 10 15 -10 23 -8 44 8 14 11 20
22 14 26 -5 3 -10 12 -9 18 0 9 2 9 6 0 9 -25 25 -13 20 15 -5 23 -1 30 24 44
28 17 29 17 29 -5 0 -13 -7 -33 -16 -45 -9 -13 -11 -22 -4 -22 6 0 19 13 28
30 23 41 43 40 31 -2 -6 -21 -5 -34 2 -38 5 -4 7 -18 4 -31 -3 -13 -2 -42 3
-64 9 -39 10 -39 20 -15 8 19 11 21 11 7 1 -17 2 -17 17 -2 11 10 25 14 40 11
12 -3 25 -2 28 3 3 4 17 6 31 3 24 -4 25 -2 19 22 -4 16 -2 26 5 26 6 0 11
-11 11 -25 0 -20 5 -25 24 -25 25 0 43 -25 23 -34 -7 -2 -3 -5 8 -6 l20 -1
-20 -8 c-11 -5 -25 -4 -31 0 -8 6 -14 4 -18 -6 -8 -22 -26 -19 -26 5 0 25 -41
28 -61 4 -10 -12 -23 -14 -59 -9 -37 5 -48 3 -60 -12 -25 -30 -41 -63 -35 -72
3 -5 -1 -11 -9 -14 -10 -4 -15 6 -20 33 -7 44 2 102 15 94 5 -3 9 2 9 11 0 9
4 14 9 11 5 -3 13 7 19 22 8 24 7 29 -6 29 -19 0 -55 -34 -40 -39 6 -2 3 -9
-6 -17 -14 -11 -16 -11 -16 3 0 9 -4 16 -9 16 -6 0 -8 -9 -6 -20 2 -11 -1 -20
-6 -20 -6 0 -6 -7 1 -19 12 -24 13 -31 1 -31 -5 0 -13 17 -19 38 -5 20 -10 29
-11 20 -1 -18 -21 -26 -21 -9 0 5 -7 12 -16 15 -14 5 -15 4 -4 -9 11 -13 10
-14 -4 -9 -9 3 -23 0 -32 -7 -13 -10 -17 -10 -25 2 -5 8 -9 20 -9 27 0 6 -5
12 -11 12 -7 0 -10 -12 -7 -29 2 -17 1 -28 -4 -25 -17 11 -84 12 -97 1 -11 -9
-12 -7 -9 8 2 13 11 20 26 19 28 -1 40 33 19 53 -17 18 -37 10 -37 -15 0 -15
-2 -15 -10 -2 -8 13 -10 12 -10 -4 0 -13 -5 -17 -20 -13 -12 3 -20 0 -20 -7 0
-16 -35 -48 -43 -40 -3 3 -18 -5 -33 -19 -15 -14 -31 -24 -36 -21 -9 6 -15 -7
-22 -50 -5 -30 -26 -61 -26 -38 0 9 -5 9 -20 0 -14 -9 -23 -10 -28 -3 -11 16
-53 11 -63 -8 -8 -13 -6 -17 8 -18 10 -1 21 -1 26 0 4 0 7 -4 7 -10 0 -8 4 -8
13 -2 14 12 54 27 45 18 -3 -4 -2 -20 2 -36 8 -27 2 -38 -14 -22 -13 13 -48
14 -44 1 5 -14 51 -23 74 -14 11 4 12 10 3 23 -15 26 4 69 33 75 13 2 34 -2
48 -9 14 -7 21 -13 16 -13 -5 0 -2 -8 8 -19 15 -16 15 -19 1 -31 -8 -7 -15 -8
-15 -3 0 21 -26 44 -43 37 -9 -3 -17 -11 -17 -16 0 -6 6 -8 14 -5 10 4 18 -4
25 -24 9 -26 7 -33 -10 -31 -8 1 -4 -70 5 -90 14 -31 22 -20 21 30 -1 36 4 53
22 72 16 17 22 32 18 48 -3 12 -1 22 5 22 5 0 10 -7 10 -16 0 -19 24 -44 42
-44 10 0 10 -2 -1 -9 -11 -7 -11 -9 0 -14 10 -4 9 -6 -3 -6 -10 -1 -18 -6 -18
-11 0 -6 -8 -10 -17 -8 -14 2 -19 -5 -21 -29 -3 -28 0 -33 18 -33 11 0 23 -7
27 -16 5 -14 8 -15 17 -3 6 8 17 15 24 17 8 1 25 10 39 19 21 14 24 22 20 50
-6 36 -5 38 24 23 14 -8 16 -15 10 -28 -6 -9 -12 -29 -16 -44 -3 -16 -12 -28
-20 -28 -8 0 -15 -4 -15 -10 0 -5 5 -10 11 -10 5 0 7 -5 4 -10 -4 -6 -1 -9 7
-8 7 2 13 -6 13 -17 0 -13 -6 -19 -16 -17 -10 1 -19 -6 -22 -19 -3 -12 -13
-20 -24 -19 -33 4 -42 0 -54 -21 -8 -15 -8 -19 0 -15 6 4 11 1 11 -6 0 -8 7
-23 15 -34 13 -18 14 -18 8 6 -6 23 -5 24 12 10 10 -8 16 -10 12 -4 -6 11 11
24 41 30 20 4 24 10 26 41 2 15 8 38 14 50 9 17 9 22 -3 27 -24 9 -18 24 16
42 25 12 33 13 39 3 6 -8 9 -4 12 12 4 29 54 38 61 11 3 -9 5 -2 6 15 1 30 3
32 25 23 13 -5 26 -6 29 -4 3 3 14 1 25 -5 15 -8 21 -7 25 3 6 14 -25 50 -35
41 -9 -9 -30 23 -23 35 3 5 15 10 26 10 10 0 19 5 19 11 0 5 -4 8 -9 5 -5 -4
-7 3 -4 14 6 22 29 27 36 8 3 -10 7 -10 19 0 13 10 17 10 22 -4 4 -9 13 -14
21 -10 10 4 15 -1 15 -16 0 -17 3 -19 12 -10 17 17 28 15 28 -7 0 -11 5 -23
10 -26 6 -3 10 3 10 13 0 11 7 25 15 32 9 8 13 21 9 36 -4 15 -2 24 6 24 7 0
10 -6 7 -13 -3 -7 4 -24 14 -38 17 -21 21 -22 32 -8 14 17 52 35 42 19 -3 -5
-1 -18 4 -27 10 -17 10 -17 11 1 0 11 5 16 14 13 7 -3 19 0 25 6 15 15 14 30
-1 21 -7 -4 -10 -4 -6 1 4 4 3 14 -3 22 -9 9 -8 13 0 13 6 0 11 -4 11 -10 0
-5 4 -10 9 -10 5 0 6 21 3 46 -5 43 -4 46 16 40 17 -6 21 -2 24 21 2 20 9 29
26 31 12 2 22 10 22 17 0 20 21 30 31 14 5 -8 7 -25 4 -37 -4 -17 -2 -22 6
-16 7 4 9 3 6 -4 -4 -5 -3 -20 1 -33 9 -23 9 -23 16 4 3 15 11 27 17 27 6 0 8
-4 5 -9 -3 -5 3 -11 14 -14 12 -3 20 -1 19 6 -3 24 1 37 11 37 6 0 10 -8 11
-17 0 -10 3 -13 5 -6 8 17 34 4 34 -17 0 -10 6 -20 14 -23 10 -4 13 -20 11
-56 -2 -28 1 -48 6 -45 5 3 9 0 9 -5 0 -6 5 -11 11 -11 5 0 7 4 4 10 -3 5 1
20 9 32 15 25 11 92 -6 82 -6 -4 -5 3 1 15 11 19 14 20 27 6 9 -8 22 -15 29
-15 8 0 13 -9 12 -19 0 -11 -6 -17 -14 -14 -7 3 -13 4 -13 2 0 -2 -4 -19 -9
-37 -5 -17 -6 -32 -1 -32 4 0 10 10 13 21 4 15 11 20 22 15 9 -3 14 -2 11 3
-9 14 20 21 33 8 8 -8 11 -7 11 4 0 8 9 20 19 26 15 10 22 9 31 -2 7 -8 18
-15 25 -15 8 0 15 -6 18 -12 3 -9 11 -7 26 8 21 19 29 47 30 102 1 23 25 30
37 10 4 -6 7 -31 6 -55 0 -23 4 -43 9 -43 5 0 8 3 8 8 -4 21 3 32 20 32 11 0
22 -4 26 -10 3 -5 13 -6 21 -3 21 8 64 51 64 64 0 6 8 5 21 -1 11 -7 23 -9 27
-6 3 3 1 6 -3 6 -5 0 0 6 10 14 25 18 28 32 32 173 4 121 4 122 -21 139 -28
17 -62 12 -50 -8 4 -7 -6 -2 -23 10 -17 12 -35 22 -39 22 -21 0 -84 37 -84 49
0 8 -3 11 -7 8 -3 -4 -12 -2 -20 4 -9 9 -13 8 -13 0 0 -6 -7 -11 -15 -11 -8 0
-15 -6 -15 -12 -1 -7 -10 -2 -21 12 -19 22 -22 23 -30 7 -10 -17 -12 -17 -40
0 -16 9 -29 21 -29 26 0 4 -4 6 -9 3 -5 -4 -11 -1 -13 6 -8 23 -28 -3 -22 -29
7 -27 -7 -43 -40 -43 -16 0 -18 5 -13 38 9 55 -14 77 -86 85 -33 3 -57 2 -57
-4 0 -15 -46 -10 -60 6 -7 8 -23 15 -36 15 -14 0 -24 6 -24 15 0 9 -6 12 -15
9 -8 -4 -27 2 -42 12 -15 9 -40 18 -55 19 -31 3 -81 32 -74 43 3 5 1 14 -5 22
-7 13 -9 13 -10 0 0 -8 -6 2 -12 24 -7 22 -20 42 -32 46 -26 9 -65 -5 -65 -24
0 -8 -14 -22 -32 -30 -36 -18 -52 -20 -43 -6 3 6 -3 10 -14 10 -15 0 -21 -6
-21 -21 0 -11 -4 -18 -9 -14 -5 3 -12 1 -16 -5 -10 -16 -22 -12 -28 11 -5 18
-8 19 -28 8 -16 -8 -24 -9 -27 -1 -2 6 -10 8 -18 5 -8 -3 -14 0 -14 7 0 19
-27 40 -44 34 -9 -3 -16 -13 -16 -21 0 -8 4 -12 9 -9 5 3 11 -1 15 -9 3 -8 0
-15 -6 -15 -6 0 -6 -6 3 -16 11 -14 10 -18 -6 -30 -13 -10 -21 -11 -26 -3 -3
6 -9 -5 -13 -26 -4 -20 -14 -39 -21 -42 -23 -8 13 -63 42 -63 12 0 25 -4 28
-10 3 -5 1 -10 -6 -10 -11 0 -11 -2 0 -12 10 -11 14 -10 21 3 7 12 21 15 54
13 50 -4 80 -26 83 -62 2 -25 -9 -29 -27 -7 -9 11 -9 15 -1 15 7 0 9 5 5 11
-4 8 -9 7 -15 -2 -6 -10 -13 -10 -35 0 -21 9 -29 9 -34 0 -4 -6 -12 -9 -18 -5
-5 3 -13 -1 -16 -10 -3 -8 -11 -12 -17 -8 -8 4 -9 -1 -4 -17 l7 -24 -23 25
c-13 13 -23 28 -21 33 1 4 -6 7 -15 5 -12 -2 -17 3 -15 12 1 10 -2 9 -13 -4
-8 -11 -15 -17 -15 -14 0 3 -16 -10 -34 -28 -21 -21 -33 -41 -29 -49 3 -8 0
-15 -6 -15 -16 0 -51 42 -51 62 0 10 -5 18 -11 18 -5 0 -7 5 -3 11 3 6 0 15
-7 20 -11 7 -12 11 -1 17 7 5 14 18 15 30 1 20 3 21 25 6 21 -14 25 -13 47 8
14 13 25 30 25 38 1 11 4 10 16 -5 15 -20 15 -19 12 5 -2 14 -9 25 -16 25 -8
0 -19 8 -26 17 -7 10 -17 13 -25 9 -7 -5 -26 -4 -41 2 -33 12 -60 -3 -60 -34
0 -10 -4 -21 -10 -24 -5 -3 -10 1 -10 10 0 11 -5 15 -14 12 -10 -4 -13 -1 -9
9 4 10 0 12 -11 8 -11 -4 -16 -1 -16 10 0 9 -5 16 -11 16 -5 0 -7 5 -3 12 5 8
11 5 20 -7 8 -10 17 -15 21 -12 3 4 3 7 0 7 -4 0 1 9 10 20 13 14 20 17 30 8
9 -7 13 -7 13 1 0 7 4 10 9 6 13 -8 23 28 14 51 -15 40 -31 47 -55 25 -12 -12
-27 -21 -32 -21 -14 0 -38 -67 -37 -102 0 -21 -7 -32 -29 -43 -16 -8 -34 -15
-40 -15 -20 0 -40 28 -33 46 4 12 2 15 -8 12 -8 -3 -13 -13 -13 -22 1 -9 -1
-16 -5 -17 -50 -6 -60 -15 -35 -33 10 -8 16 -18 11 -22 -4 -4 -7 -2 -7 5 0 7
-5 9 -10 6 -6 -4 -7 -23 -4 -44 5 -32 2 -42 -17 -60 -25 -23 -39 -27 -39 -11
0 14 -57 -15 -63 -32 -3 -7 -6 -3 -6 10 -1 26 24 56 39 47 12 -7 50 30 50 50
0 9 -11 20 -24 25 -26 10 -44 30 -27 30 8 0 7 6 -1 19 -6 10 -18 17 -25 14 -7
-3 -13 0 -13 6 0 23 -18 10 -29 -20 -13 -39 -14 -42 -1 -34 6 3 7 -1 4 -10 -4
-11 -10 -12 -18 -6 -9 8 -16 1 -25 -24 -10 -29 -15 -33 -30 -26 -13 7 -16 18
-13 40 4 29 22 45 22 20 0 -8 5 -8 15 1 19 16 20 34 1 27 -9 -4 -16 1 -19 11
-4 20 22 94 37 104 7 5 8 8 1 8 -6 0 -11 9 -12 20 -1 11 3 20 8 20 6 0 7 5 3
12 -4 7 -3 8 4 4 7 -4 12 -14 12 -22 0 -8 4 -14 10 -14 6 0 8 18 6 43 -3 32
-8 43 -22 45 -14 2 -16 1 -6 -6 11 -7 10 -10 -3 -16 -24 -9 -27 -8 -19 6 5 8
2 9 -9 5 -10 -3 -17 -2 -17 3 0 5 -10 12 -22 16 -13 4 -26 12 -30 18 -5 6 -8
2 -8 -11z m1238 -358 c21 -21 21 -23 5 -36 -15 -12 -16 -12 -10 3 4 12 2 15
-9 11 -19 -7 -18 -20 4 -32 14 -8 14 -11 2 -12 -8 -1 -18 -1 -22 0 -5 0 -8
-10 -8 -24 0 -30 -36 -65 -67 -65 -13 0 -34 -7 -47 -15 -20 -14 -26 -13 -54 1
-18 8 -39 25 -47 37 -8 12 -15 16 -15 9 0 -17 -27 -15 -34 3 -7 19 3 47 15 39
5 -2 18 0 30 7 12 6 19 7 15 1 -3 -5 0 -12 8 -15 8 -3 21 8 32 29 22 40 26 41
49 10 18 -24 55 -25 55 -1 0 7 7 28 15 48 12 29 18 34 37 30 13 -4 33 -16 46
-28z m-1378 -15 c0 -23 -6 -33 -22 -39 -17 -6 -24 -5 -26 5 -4 16 -5 16 -26 8
-9 -3 -16 -14 -16 -23 0 -14 2 -14 10 -1 5 8 12 12 15 8 12 -12 26 -91 17 -97
-5 -3 -14 -15 -21 -26 l-12 -20 2 20 c1 11 1 29 0 40 -2 19 -2 19 -12 2 -6
-10 -8 -31 -4 -46 4 -20 1 -34 -10 -45 -18 -17 -40 -22 -30 -7 3 5 0 13 -6 17
-6 4 -9 19 -5 36 5 24 3 29 -10 24 -8 -3 -12 -2 -9 4 3 6 -1 10 -10 10 -9 0
-14 -4 -10 -9 3 -5 1 -12 -5 -16 -5 -3 -10 0 -10 7 0 9 -3 9 -10 -2 -8 -13
-10 -12 -10 4 0 12 -5 16 -15 12 -9 -3 -15 0 -15 10 0 8 7 22 15 30 13 14 15
14 15 -1 0 -9 4 -13 10 -10 5 3 18 1 29 -5 16 -8 20 -6 24 8 4 13 5 12 6 -5 1
-30 20 -39 36 -17 19 25 19 44 0 44 -8 0 -15 5 -15 11 0 6 -7 17 -15 25 -8 9
-15 23 -14 32 0 14 2 14 6 2 8 -20 53 -65 53 -53 0 5 -5 14 -11 20 -7 7 -9 19
-5 28 5 14 9 15 21 5 12 -10 15 -10 15 0 0 8 8 10 25 6 20 -5 25 -3 25 14 0
11 7 20 15 20 10 0 15 -10 15 -30z m2309 -84 c10 -11 10 -20 1 -37 -7 -13 -10
-38 -6 -61 4 -26 3 -37 -4 -33 -5 3 -10 2 -10 -4 0 -5 -5 -22 -10 -37 -10 -25
-12 -26 -26 -12 -14 14 -14 19 1 48 15 29 14 44 -3 45 -27 2 -53 19 -48 31 4
12 2 12 -14 4 -11 -6 -25 -8 -30 -5 -6 3 -10 2 -10 -3 0 -5 -7 -9 -15 -9 -17
0 -17 0 -9 21 3 9 11 16 18 16 6 0 22 6 36 13 14 8 38 13 53 13 16 -1 27 4 27
11 0 18 35 16 49 -1z m-869 -57 c0 -6 7 -9 15 -5 9 3 15 0 15 -9 0 -17 19 -21
21 -5 1 6 3 15 4 20 1 6 3 15 4 21 1 13 31 -15 31 -30 0 -16 17 -13 24 4 8 22
36 7 36 -20 0 -24 25 -41 36 -24 11 19 36 -14 32 -43 -3 -15 0 -30 6 -33 6 -2
2 -4 -9 -2 -11 1 -26 -2 -32 -6 -8 -5 -13 -3 -13 3 0 6 -4 8 -10 5 -6 -4 -10
8 -10 30 l0 35 -46 -4 c-37 -3 -49 0 -71 20 -33 31 -37 30 -55 -7 -9 -17 -18
-30 -22 -30 -27 3 -35 -1 -30 -14 4 -10 0 -15 -10 -15 -23 0 -31 26 -17 56 8
18 16 24 30 19 15 -4 20 1 25 30 6 31 9 34 26 25 11 -6 20 -16 20 -21z m-455
-322 c-4 -12 -3 -17 2 -11 13 17 42 24 49 13 3 -6 1 -16 -5 -22 -6 -6 -11 -21
-11 -33 0 -22 -19 -36 -42 -30 -7 1 -10 1 -6 -1 7 -4 1 -14 -31 -49 -16 -18
-37 -13 -35 10 1 9 -3 16 -8 16 -6 0 -8 9 -5 19 3 15 0 19 -13 16 -13 -3 -16
1 -13 16 7 24 41 49 58 43 7 -3 15 5 18 16 3 12 10 19 16 15 6 -3 11 -1 11 5
0 6 5 8 10 5 6 -4 8 -16 5 -28z m-1275 -572 c12 -7 25 -38 36 -82 6 -22 4 -25
-12 -21 -16 4 -19 0 -19 -21 0 -20 -5 -26 -22 -27 -14 -1 -23 4 -23 14 0 12
-9 13 -52 7 -29 -4 -64 -9 -78 -10 -16 -1 -25 -8 -24 -19 1 -9 -6 -16 -16 -16
-19 0 -57 37 -47 47 4 3 7 2 7 -4 0 -6 6 -13 14 -16 11 -4 13 1 10 18 -3 18 4
33 26 53 21 21 26 32 19 39 -14 14 -1 36 16 29 8 -3 19 1 25 9 11 13 118 13
140 0z"/>
<path d="M10841 5933 c-1 -7 -4 -12 -8 -12 -5 1 -21 1 -36 0 -24 -1 -26 -3
-17 -20 5 -11 7 -26 4 -34 -3 -10 3 -18 18 -22 13 -4 26 -13 31 -19 5 -8 10
-7 16 3 6 9 14 10 27 3 11 -5 25 -7 32 -5 6 3 12 0 12 -5 0 -5 11 -17 24 -25
22 -15 26 -15 46 3 13 11 27 17 31 14 20 -12 30 9 13 27 -16 18 -16 19 -1 13
22 -8 21 2 -4 37 -18 26 -59 41 -59 22 0 -5 -14 -9 -32 -10 -17 -1 -41 -12
-54 -24 l-22 -21 -10 43 c-5 24 -10 38 -11 32z"/>
<path d="M10555 5398 c3 -8 -1 -20 -9 -27 -17 -14 -11 -41 9 -41 8 0 10 -9 7
-26 -3 -16 -1 -25 5 -21 5 3 10 0 10 -8 0 -23 -17 -18 -26 8 -8 19 -10 20 -16
5 -4 -10 -14 -18 -21 -18 -12 0 -11 5 3 28 l17 27 -23 -22 c-24 -26 -41 -29
-59 -11 -9 9 -12 9 -12 0 0 -7 9 -21 20 -32 11 -11 20 -31 20 -44 0 -28 21
-49 43 -41 8 4 22 -3 33 -18 19 -23 19 -23 39 -4 11 11 15 17 8 13 -28 -16
-35 63 -8 90 17 17 17 19 -4 35 -13 10 -17 20 -11 24 16 10 12 42 -7 49 -13 5
-14 9 -5 15 10 6 10 11 -3 21 -13 11 -15 10 -10 -2z"/>
<path d="M10925 5374 c-14 -14 -30 -22 -35 -19 -6 3 -10 1 -10 -4 0 -6 -9 -11
-20 -11 -13 0 -20 -7 -20 -19 0 -17 4 -19 32 -10 18 5 34 9 35 9 2 0 3 -8 3
-19 0 -22 25 -46 34 -32 3 5 3 17 -1 27 -6 16 -4 15 14 -2 11 -10 18 -21 16
-23 -4 -6 18 -31 28 -31 5 0 9 12 9 26 0 20 4 25 16 20 12 -5 15 -2 10 11 -6
17 -5 17 8 1 16 -22 36 -23 36 -4 0 16 18 31 27 22 3 -3 -2 -12 -11 -21 -9 -9
-16 -22 -16 -28 0 -7 7 -4 14 6 10 12 15 14 18 6 7 -21 28 0 29 29 0 15 3 21
6 14 4 -10 8 -10 19 -1 11 9 14 8 14 -5 0 -9 5 -16 11 -16 6 0 8 9 4 20 -4 11
-2 20 4 20 15 0 9 20 -12 43 -19 19 -19 19 -34 -3 -15 -21 -16 -21 -35 -3 -16
14 -20 15 -18 3 5 -32 -1 -50 -14 -50 -8 0 -17 6 -19 13 -3 7 -6 5 -6 -5 -1
-10 -8 -18 -16 -18 -10 0 -15 7 -13 18 2 11 -3 17 -14 16 -10 -1 -15 2 -13 7
3 4 -7 7 -22 6 -22 -2 -27 2 -25 16 4 23 -3 22 -33 -9z"/>
<path d="M10901 5233 c-9 -16 -12 -16 -21 -3 -8 13 -10 13 -10 -1 0 -20 -52
-75 -79 -84 -12 -3 -21 -11 -21 -16 0 -6 -5 -7 -12 -3 -7 5 -8 3 -4 -5 5 -7
14 -10 22 -7 7 3 20 -1 28 -9 18 -18 36 -19 36 -2 0 6 5 4 11 -5 14 -25 32
-23 24 3 -5 15 -4 19 4 15 8 -5 8 0 1 19 -5 14 -6 24 -1 21 5 -3 11 1 15 9 8
23 28 18 21 -5 -4 -14 -1 -22 10 -26 22 -9 68 41 72 76 3 20 1 22 -8 10 -7
-11 -12 -12 -15 -3 -3 7 -11 10 -18 7 -8 -3 -16 2 -19 10 -8 21 -24 20 -36 -1z"/>
<path d="M10829 4963 c-1 -5 0 -21 1 -36 1 -18 -6 -35 -20 -47 -13 -11 -17
-21 -10 -25 5 -3 10 -11 10 -16 0 -6 -5 -7 -12 -3 -7 4 -8 3 -4 -4 4 -7 3 -12
-3 -12 -5 0 -11 -6 -13 -14 -3 -13 -6 -13 -23 0 -13 9 -16 17 -9 22 18 12 22
37 9 56 -12 16 -15 16 -37 2 -28 -19 -68 -11 -68 14 0 16 -3 16 -45 2 -25 -8
-45 -21 -45 -28 0 -8 -4 -14 -9 -14 -6 0 -6 -12 0 -32 13 -46 11 -58 -6 -52
-8 4 -15 1 -15 -5 0 -13 -2 -13 85 -16 54 -1 73 2 82 14 10 14 13 13 21 -8 6
-16 11 -20 16 -13 8 13 47 17 45 5 -5 -32 4 -55 24 -62 27 -10 44 -5 49 17 6
22 -1 44 -12 37 -4 -3 -14 3 -21 13 -13 16 -13 16 5 2 17 -13 19 -13 14 0 -3
8 2 21 11 28 14 11 13 12 -6 2 -18 -8 -24 -7 -33 9 -7 14 -7 22 1 26 6 4 8 13
5 20 -3 9 6 16 25 20 16 4 29 11 29 16 0 6 4 7 10 4 6 -3 7 1 4 9 -4 9 0 18 9
22 13 5 14 9 5 24 -7 10 -16 16 -20 14 -4 -3 -8 0 -8 5 0 12 -39 15 -41 4z"/>
<path d="M11020 4782 c-23 -4 -60 -36 -60 -53 0 -4 5 -11 11 -14 6 -5 4 -12
-8 -22 -10 -8 -11 -11 -3 -7 10 5 9 0 -4 -14 -11 -12 -25 -22 -31 -22 -8 0
-10 -10 -7 -25 4 -21 1 -24 -13 -19 -15 6 -16 4 -6 -14 14 -26 24 -27 41 -7 7
8 18 14 24 14 6 -1 19 1 29 6 9 4 28 5 42 3 19 -4 26 1 34 21 11 29 11 61 1
61 -4 0 -20 -10 -34 -21 -26 -20 -29 -21 -44 -5 -16 16 -16 18 2 28 10 6 26
18 35 27 10 10 22 16 28 14 6 -2 11 7 11 21 0 28 -11 34 -48 28z"/>
<path d="M8046 3405 c3 -6 -9 -30 -26 -54 -25 -34 -35 -41 -53 -35 -19 5 -17
1 11 -29 29 -30 32 -38 23 -56 -7 -12 -8 -21 -4 -21 4 0 2 -4 -6 -9 -9 -6 -5
-8 13 -8 15 0 34 -7 44 -15 21 -18 53 -12 45 8 -3 8 0 14 6 14 21 0 10 25 -29
68 -22 24 -40 47 -40 53 0 5 11 14 24 20 14 7 24 19 24 28 -1 9 1 22 3 30 2 8
-5 14 -18 16 -12 1 -19 -3 -17 -10z"/>
<path d="M9708 3380 c-21 -13 -34 -68 -19 -83 19 -19 13 -46 -8 -40 -30 8 -15
-33 21 -59 17 -11 36 -35 44 -52 l13 -31 1 38 c0 20 5 37 11 37 5 0 7 5 4 10
-3 6 -14 10 -24 10 -9 0 -25 6 -34 13 -15 10 -16 16 -5 39 16 34 45 42 61 17
6 -10 20 -19 30 -19 10 0 22 -10 27 -22 13 -35 12 -9 -2 29 -10 29 -10 36 2
43 13 8 12 10 -2 10 -10 0 -18 5 -18 11 0 6 -7 8 -16 5 -9 -4 -13 -2 -8 5 4 7
1 10 -7 7 -7 -2 -22 6 -34 19 -15 17 -24 20 -37 13z"/>
<path d="M8118 2873 c-16 -4 -19 -12 -18 -38 1 -3 -6 -12 -13 -20 -16 -15 -11
-65 7 -77 6 -5 2 -8 -10 -8 -18 0 -22 -8 -27 -42 -3 -24 -2 -45 4 -46 5 -2 6
-9 2 -15 -4 -7 0 -8 11 -4 10 4 22 7 27 7 5 0 6 17 3 40 -11 65 39 96 79 50
15 -18 19 -19 32 -6 22 22 18 65 -10 98 -14 16 -25 36 -25 44 0 9 -4 12 -10 9
-5 -3 -10 -1 -10 4 0 11 -11 12 -42 4z"/>
<path d="M8320 2664 c-20 -48 -22 -61 -12 -88 7 -18 12 -40 12 -49 0 -16 3
-16 29 -3 42 22 80 71 74 96 -3 11 -18 31 -34 44 -16 14 -29 29 -29 35 0 5 -4
12 -9 15 -5 3 -19 -19 -31 -50z"/>
<path d="M8076 2185 c4 -9 -3 -16 -20 -21 -35 -9 -46 -25 -51 -79 -4 -54 -16
-71 -55 -80 -16 -4 -32 -15 -35 -25 -3 -11 -19 -27 -36 -37 -16 -10 -32 -26
-35 -36 -4 -12 -11 -16 -22 -12 -9 3 -14 3 -10 0 3 -4 -7 -19 -23 -34 -16 -16
-29 -33 -29 -40 0 -6 -7 -11 -15 -11 -8 0 -15 -7 -15 -16 0 -8 -4 -13 -9 -10
-5 4 -22 -5 -38 -18 -15 -13 -38 -26 -50 -30 -13 -4 -22 -13 -20 -19 1 -7 -5
-10 -13 -9 -8 2 -12 1 -8 -3 8 -9 -16 -35 -31 -35 -21 0 -11 -38 14 -54 35
-23 38 -21 32 28 -6 39 -4 46 14 51 11 4 36 4 56 0 31 -6 34 -4 29 13 -8 25
32 61 76 68 32 6 39 2 77 -37 31 -33 41 -51 41 -76 0 -26 -4 -33 -20 -34 -11
-1 -24 -3 -30 -4 -5 -1 -14 -3 -20 -4 -5 0 -21 -13 -34 -28 -24 -25 -25 -29
-10 -51 12 -18 13 -26 3 -38 -16 -20 -28 -18 -50 9 -21 26 -24 48 -7 65 9 9 9
15 0 24 -9 9 -21 8 -53 -1 -29 -9 -44 -9 -48 -2 -5 7 -12 4 -21 -7 -17 -20
-18 -25 -27 -88 -5 -36 -3 -45 13 -51 10 -4 19 -2 22 5 3 10 84 52 99 52 3 0
0 -7 -7 -15 -9 -10 -9 -15 -1 -15 18 0 13 -39 -14 -91 -13 -27 -22 -49 -18
-49 3 0 -6 -9 -20 -20 -14 -11 -39 -20 -56 -20 -24 0 -31 -4 -31 -20 0 -11 5
-20 11 -20 7 0 18 -8 25 -17 13 -17 15 -17 29 1 8 10 16 23 18 29 2 6 17 10
34 9 19 0 38 7 49 19 9 10 23 19 30 19 7 0 19 10 25 23 7 12 21 30 32 39 13
12 19 31 20 62 1 46 13 61 41 50 8 -3 12 -12 10 -19 -4 -9 11 -17 46 -25 52
-12 57 -17 63 -57 2 -12 11 -31 20 -41 9 -10 18 -37 19 -60 1 -43 20 -61 44
-41 17 14 7 39 -18 39 -18 0 -18 2 6 42 l25 42 -22 41 c-12 22 -25 41 -29 43
-4 2 -4 10 -1 18 3 8 1 14 -3 14 -13 0 -10 106 3 122 16 20 26 58 15 58 -13 0
-36 56 -30 72 3 7 -3 22 -13 32 -11 11 -19 14 -19 8 0 -16 -40 -15 -41 1 0 6
-2 20 -4 30 -2 9 1 17 6 17 6 0 7 5 4 10 -3 6 -2 10 2 10 9 0 36 79 32 96 -7
37 18 78 43 69 20 -8 29 -40 15 -54 -8 -8 -8 -11 0 -11 6 0 14 -14 18 -30 5
-24 1 -37 -20 -62 -17 -20 -23 -34 -16 -41 5 -5 7 -16 4 -23 -4 -10 0 -12 11
-8 10 4 16 1 16 -9 0 -27 20 -29 45 -5 31 29 31 32 0 46 -33 15 -33 50 0 58
19 5 23 10 16 23 -7 11 -5 21 5 32 8 9 17 32 19 51 4 30 1 37 -18 42 -12 3
-24 5 -26 5 -2 0 -8 5 -12 13 -8 11 -10 11 -18 0 -6 -11 -10 -10 -15 3 -9 24
-8 25 14 25 13 0 20 7 20 20 0 11 4 20 8 20 5 0 14 12 21 26 10 22 9 30 -5 45
-21 23 -56 26 -48 4z"/>
<path d="M12722 693 c-6 -2 -10 -8 -7 -13 2 -4 -4 -15 -15 -25 -11 -10 -20
-24 -20 -30 0 -17 -32 -28 -40 -14 -10 15 -16 3 -25 -46 -4 -22 -11 -45 -16
-51 -7 -8 1 -14 27 -18 25 -5 34 -11 30 -21 -3 -8 -1 -17 5 -20 5 -4 7 -11 4
-16 -8 -12 12 -12 35 1 31 17 44 48 27 65 -8 8 -17 11 -21 8 -7 -7 -26 42 -26
68 0 11 8 23 18 26 23 9 47 34 55 56 4 10 11 15 17 12 6 -3 7 1 4 9 -6 16 -27
19 -52 9z"/>
<path d="M12283 487 c-33 -11 -40 -28 -27 -61 3 -9 10 -13 16 -10 5 3 14 -8
21 -25 12 -32 27 -41 27 -17 0 23 51 57 79 54 15 -2 25 -9 24 -15 -2 -7 3 -13
11 -13 8 0 16 -6 19 -12 3 -10 8 -10 21 1 15 12 15 16 1 31 -8 9 -15 23 -15
30 0 7 -3 10 -7 7 -3 -4 -13 2 -20 13 -16 23 -49 19 -69 -6 -10 -12 -13 -10
-18 11 -7 27 -13 28 -63 12z"/>
<path d="M12760 327 c0 -17 -26 -37 -80 -64 -26 -12 -37 -22 -27 -22 19 -1 20
-23 2 -22 -14 0 -27 -27 -20 -39 3 -6 3 -15 -1 -22 -14 -22 -15 -108 -1 -108
8 0 7 -4 -3 -10 -13 -8 -12 -10 3 -10 10 0 16 -4 13 -9 -3 -5 1 -12 10 -15 26
-10 132 -7 139 4 3 6 0 10 -7 10 -8 0 -9 3 -3 8 13 9 18 175 5 167 -6 -4 -10
-14 -10 -24 0 -10 -9 -21 -20 -24 -11 -3 -19 -11 -18 -18 2 -7 -4 -14 -13 -16
-22 -5 -36 46 -17 58 10 7 10 9 0 9 -10 0 -10 5 -2 20 6 11 17 20 25 20 7 0
15 6 17 12 3 7 13 13 24 13 15 0 19 9 22 48 3 42 1 47 -17 47 -12 0 -21 -6
-21 -13z"/>
</g>
</svg>
