<?xml version="1.0" standalone="no"?>
<!DOCTYPE svg PUBLIC "-//W3C//DTD SVG 20010904//EN"
 "http://www.w3.org/TR/2001/REC-SVG-20010904/DTD/svg10.dtd">
<svg version="1.0" xmlns="http://www.w3.org/2000/svg"
 width="1000.000000pt" height="1000.000000pt" viewBox="0 0 1000.000000 1000.000000"
 preserveAspectRatio="xMidYMid meet">
<metadata>
Created by potrace 1.15, written by Peter Selinger 2001-2017
</metadata>
<g transform="translate(0.000000,1000.000000) scale(0.100000,-0.100000)"
fill="#000000" stroke="none">
<path d="M5366 1964 c-13 -12 -16 -39 -16 -131 l0 -116 60 -63 c34 -36 60 -71
60 -83 0 -13 -24 -43 -60 -78 l-60 -56 0 -73 0 -74 105 0 105 0 0 95 0 95 105
0 106 0 -3 93 -3 92 -102 3 -102 3 -3 140 c-3 126 -5 142 -22 155 -28 20 -150
19 -170 -2z"/>
<path d="M3698 1743 c2 -48 7 -91 10 -95 10 -9 431 -73 647 -98 172 -19 429
-41 635 -55 l95 -6 43 36 c23 20 42 44 42 54 0 9 -19 36 -43 59 l-42 41 -159
11 c-311 21 -635 55 -951 101 -115 17 -226 33 -245 36 l-35 5 3 -89z"/>
</g>
</svg>
