<?xml version="1.0" encoding="UTF-8"?>
<svg width="270.18" height="270.18" viewBox="0 0 270.17657 627.80219" xmlns="http://www.w3.org/2000/svg">
 <defs>
  <clipPath id="a">
   <path d="m-53.102 272.36c53.533-199.74 337.18-203.02 369.06 0l4.0406 461.67c0 2.2385-2.8517 2.1439-4.0406 4.0406-41.116 65.594-326.99 64.843-369.06 0-1.2183-1.8779-4.0406-1.8021-4.0406-4.0406z"/>
  </clipPath>
  <filter id="d">
   <feGaussianBlur stdDeviation="9.06793"/>
  </filter>
  <filter id="c">
   <feGaussianBlur stdDeviation=".23602"/>
  </filter>
  <linearGradient id="b" x1="-61.2" x2="161.13" gradientUnits="userSpaceOnUse">
   <stop stop-color="#b4b4b4" offset="0"/>
   <stop stop-color="#b4b4b4" stop-opacity="0" offset="1"/>
  </linearGradient>
 </defs>
 <path d="m4.889 261.07c37.943-142.01 238.98-144.34 261.58 0l2.8639 328.23c0 1.5915-2.0212 1.5242-2.8639 2.8727-29.142 46.634-231.77 46.101-261.58 0-0.86352-1.3351-2.8639-1.2812-2.8639-2.8727z" fill="#fff" stroke="#848484" stroke-width="1.7037"/>
 <path transform="matrix(.65508 0 0 .6006 51.61 133.68)" d="m-55.959 275.22c162.1 128.83 320.04-74.453 369.06 0l4.0406 461.67c0 2.2385-2.8517 2.1439-4.0406 4.0406-41.116 65.594-326.99 64.843-369.06 0-1.2183-1.8779-4.0406-1.8021-4.0406-4.0406z" clip-path="url(#a)" fill="#fed2fe"/>
 <path transform="matrix(.70878 0 0 .71096 43.359 66.831)" d="m-55.959 275.22c53.533-199.74 337.18-203.02 369.06 0l4.0406 461.67c0 2.2385-2.8517 2.1439-4.0406 4.0406-41.116 65.594-326.99 64.843-369.06 0-1.2183-1.8779-4.0406-1.8021-4.0406-4.0406z" clip-path="url(#a)" fill="url(#b)" filter="url(#d)" opacity=".61062" stroke="#5a5a5a" stroke-width="5"/>
 <path d="m106.14 115.98c20.222 5.3932 41.595 7.9244 67.175 0 1.4861-0.46037 2.8639 1.0582 2.8639 2.3726v48.94c0 1.3144-1.2896 2.2089-2.8639 2.3726-25.58 2.6588-46.953 1.7772-67.175 0-1.5777-0.13867-2.8639-1.0582-2.8639-2.3726v-48.94c0-1.3144 1.3536-2.7754 2.8639-2.3726z" fill="#070107" stroke="#0f0f0f" stroke-width="1.5483"/>
 <path d="m128.42 39.659h18.573c1.5866 0 2.8639 1.0315 2.8639 2.3127v68.964c0 1.2812-1.2773 2.3127-2.8639 2.3127h-18.573c-1.5866 0-2.8639-1.0315-2.8639-2.3127v-68.964c0-1.2812 1.2773-2.3127 2.8639-2.3127z" fill="#939093" stroke="#555" stroke-width="1.5286"/>
 <path d="m122.35 19.346h30.706a2.8727 2.8727 0 0 1 2.8727 2.8727v24.724a2.8727 2.8727 0 0 1 -2.8727 2.8727h-30.706a2.8727 2.8727 0 0 1 -2.8727 -2.8727v-24.724a2.8727 2.8727 0 0 1 2.8727 -2.8727" fill="#939093" stroke="#555" stroke-width="1.7037"/>
 <path d="m108.36 3.2523c43.017 5.2642 78.542-16.001 117.08 14.695 6.1747 2.2206 12.434 18.016 11.523 23.186-36.624-31.874-93.83-10.82-132.85-13.77-4.7878-2.8045-1.939-24.727 4.2498-24.11z" fill="#939093" stroke="#555" stroke-width="1.8575"/>
 <path d="m118.29 92.473c9.507 2.5327 48.569-4.1088 48.848 5.1505l13.091 18.384c0.92219 1.295-1.354 2.3838-2.8639 2.8727-25.092 8.1252-50.183 8.1252-75.275 0-1.5099-0.48892-3.8072-1.593-2.8639-2.8727 7.1242-3.375 11.222-24.294 19.064-23.534z" fill="#939093" stroke="#555" stroke-width="1.7037"/>
 <path d="m23.756 352.58c86.023 18.525 200.5 5.0889 219.48 0 0 0 5.687 109.78 3.3314 111.25-15.916 20.318-192.52 17.666-222.81 2.3989 0 0 5.0995-113.17 2.7438-111.25 0-1.329-4.512-2.7797-2.7438-2.3989z" fill="#fefefe" stroke="#5a5a5a" stroke-width="3.4982"/>
 <path d="m180.69 396.87c-2.7618 5e-5 -6.0893 0.61733-9.9672 1.8663s-5.8253 2.7205-5.8253 4.399c0 1.7186 0.46529 2.9176 1.3954 3.577 0.10015 0.21986 0.15503 1.1363 0.15504 2.755-1e-5 1.4189-0.32418 5.7988-0.99672 13.153-0.82995 9.0926-1.2625 14.44-1.2625 16.019-1e-5 2.8577 0.89784 4.288 2.6579 4.288 0.81563 0 1.4548-0.45153 1.927-1.3108s0.70877-1.8336 0.70878-2.9327c-1e-5 -2.7977 0.17383-6.5169 0.53158-11.153 0.25756-0.13987 1.3214-0.46021 3.1673-0.99978 5.0369-1.4388 9.3043-3.8846 12.824-7.3318s5.2715-7.4633 5.2715-12.02c-3e-5 -3.1574-0.93982-5.651-2.8572-7.5095s-4.4962-2.7994-7.7301-2.7994zm-98.808 0.15552c-4.207 5e-5 -7.8666 1.6039-10.986 4.8212s-4.6735 6.7053-4.6735 10.442c0 2.0983 0.38757 3.8879 1.1961 5.3766s1.9991 2.68 3.566 3.5992 3.9162 2.0915 7.0213 3.5104c2.1321 0.97921 3.5365 1.7945 4.2305 2.4439s1.041 1.3224 1.041 2.0218c-2e-5 1.6786-1.3809 3.4059-4.1641 5.1544s-5.2985 2.6217-7.5307 2.6217c-1.3022 1e-5 -2.7059-0.45599-4.2084-1.3553-0.2862-0.15987-0.60899-0.24439-0.95242-0.24439-0.55807 0-1.039 0.42931-1.4397 1.2886s-0.59803 1.8002-0.59803 2.7994c0 1.259 0.44177 2.3178 1.329 3.1771s2.07 1.2886 3.5439 1.2886c4.5361 0 8.9054-1.6138 13.112-4.8212s6.3125-6.7409 6.3125-10.598c-3e-5 -2.3181-0.828-4.3056-2.4807-5.9543s-4.1694-3.1535-7.575-4.5324c-3.2483-1.3189-5.2669-2.4211-6.0468-3.3104s-1.1739-1.9625-1.1739-3.2215c0-1.9784 1.0332-3.7946 3.1009-5.4433s4.3151-2.4661 6.7334-2.4661c1.4166 3e-5 2.4818 0.38597 3.2116 1.1553s1.1074 2.1319 1.1075 4.1102c2.7617 4e-5 4.1419-1.7484 4.1419-5.2655-3e-5 -1.7186-0.70904-3.2601-2.1042-4.599s-3.2962-1.9995-5.7145-1.9996zm62.749 0.15553c-0.75842 4e-5 -1.5145 0.67293-2.2371 2.0218s-2.7099 6.1459-5.9582 14.419c-1.617 4.0967-3.3997 8.243-5.3601 12.42-3.5917 7.6338-5.3823 11.84-5.3823 12.62 0 0.83932 0.36269 1.6546 1.0853 2.4439s1.3454 1.1775 1.8605 1.1775c0.37204 0 0.79813-0.15906 1.2846-0.48879s1.3615-1.9313 2.6136-4.799 1.9938-4.715 2.2371-5.5544c0.30049 0.35972 0.72658 0.53323 1.2847 0.53322 0.31479 1e-5 0.67033-0.0867 1.0853-0.26661 1.617-0.7194 3.7767-1.4624 6.4454-2.2217s4.388-1.1331 5.1608-1.1331c0.0715 1e-5 0.11072 0.0311 0.11074 0.11108-2e-5 0.37971 0.48947 2.1214 1.484 5.1989s2.044 5.4843 3.1674 7.2429 2.2348 2.6439 3.3224 2.6439c0.78699 0 1.4653-0.3837 2.0377-1.1331s0.86378-1.6781 0.86382-2.7772c-4e-5 -0.59951-0.0791-1.0622-0.24364-1.4219s-0.6292-1.0715-1.3733-2.1106c-1.4882-2.0783-2.971-5.4161-4.452-10.042s-3.5389-12.533-6.1575-23.684c0.10014-0.47957 0.15502-1.1091 0.15505-1.8885-3e-5 -1.0591-0.12683-1.7198-0.39869-1.9996-0.54378-0.87924-1.4195-1.3108-2.6358-1.3108zm-33.202 0.0889c-3.0766 4e-5 -6.0114 1.6038-8.8376 4.8212s-5.144 7.366-6.9327 12.442-2.6801 9.6537-2.6801 13.73c0 3.4572 0.93842 6.795 2.813 10.042s4.0271 4.8878 6.4454 4.8878c3.7348 0 6.7552-0.88531 9.059-2.6439s4.5525-4.2477 6.7777-7.4651 3.9281-6.6374 5.0943-10.264 1.7498-6.7045 1.7498-9.2425c-3e-5 -2.8776-0.20592-5.1498-0.64232-6.7985s-1.3265-3.2502-2.6358-4.799-2.7444-2.711-4.297-3.5104-3.5242-1.1997-5.9138-1.1997zm69.106 5.5321c3.7777 4e-5 5.6702 1.6839 5.6702 5.0211-3e-5 2.7978-1.5762 5.417-4.6956 7.865s-6.732 4.1508-10.853 5.11l1.2625-15.774c3.1194-1.4788 5.9974-2.2217 8.6161-2.2218zm-69.106 0.39992c1.5311 3e-5 2.9812 0.41489 4.3191 1.2442s2.277 1.8615 2.8351 3.1104 0.84164 2.894 0.84167 4.9323c-3e-5 5.7753-1.6873 11.228-5.05 16.374s-6.9518 7.7317-10.787 7.7317c-1.3594 1e-5 -2.5658-0.82747-3.6103-2.4661s-1.5726-3.674-1.5726-6.132c-1e-5 -5.3756 1.4899-10.865 4.452-16.441s5.81-8.3537 8.5718-8.3538zm32.338 5.2211c0.0572 0.17988 0.15267 0.58474 0.31009 1.2442 1.6885 7.2141 2.7132 11.418 3.0566 12.597-0.62963 0.1399-1.2531 0.30894-1.8827 0.48878-2.5757 0.73941-4.1768 1.1443-4.8064 1.2442-0.94444 0.17987-1.8672 0.38007-2.7687 0.59987l6.091-16.174z"/>
 <path d="m218.71 261.07c0 2.2437-36.025 14.219-77.965 14.219s-73.915-11.975-73.915-14.219 34 4.0626 75.94 4.0626 75.94-6.3064 75.94-4.0626z" fill="#fefefe"/>
 <path transform="matrix(.70878 0 0 .71096 496.14 53.214)" d="m-526.26 109.51h3.9536a2.3089 2.3089 0 0 1 2.3089 2.3089v41.096a2.3089 2.3089 0 0 1 -2.3089 2.3089h-3.9536a2.3089 2.3089 0 0 1 -2.3089 -2.3089v-41.096a2.3089 2.3089 0 0 1 2.3089 -2.3089" fill="#fefefe" filter="url(#c)"/>
 <path d="m246.45 83.332c5.8117 14.683-4.722 29.454-10.547 29.454s-16.39-14.789-10.547-29.454c6.7116-16.845 10.547-29.454 10.547-29.454s4.794 14.92 10.547 29.454z" fill="#fed2fe"/>
 <g transform="matrix(.11355 0 0 .11146 277.54 402.6)" fill-opacity=".91373">
  <path d="m-568.57 332.36c0 88.366-31.98 160-71.429 160s-71.429-71.634-71.429-160 31.98-160 71.429-160 71.429 71.634 71.429 160z" fill="#fc09f8"/>
  <path transform="matrix(.053 .99859 -.99859 .053 -97.291 1121.6)" d="m-568.57 332.36c0 88.366-31.98 160-71.429 160s-71.429-71.634-71.429-160 31.98-160 71.429-160 71.429 71.634 71.429 160z" fill="#fc09f8"/>
  <path transform="matrix(-.99999 .00323 -.00323 -.99999 -1278.3 1021.1)" d="m-568.57 332.36c0 88.366-31.98 160-71.429 160s-71.429-71.634-71.429-160 31.98-160 71.429-160 71.429 71.634 71.429 160z" fill="#fc09f8"/>
  <path transform="matrix(-.03867 -.99925 .99925 -.03867 -1173.9 -110.31)" d="m-568.57 332.36c0 88.366-31.98 160-71.429 160s-71.429-71.634-71.429-160 31.98-160 71.429-160 71.429 71.634 71.429 160z" fill="#fc09f8"/>
  <path transform="matrix(.66584 -.74609 .74609 .66584 -594 -307.24)" d="m-568.57 332.36c0 88.366-31.98 160-71.429 160s-71.429-71.634-71.429-160 31.98-160 71.429-160 71.429 71.634 71.429 160z" fill="#fc09f8"/>
  <path transform="matrix(.65538 .7553 -.7553 .65538 164.27 658.98)" d="m-568.57 332.36c0 88.366-31.98 160-71.429 160s-71.429-71.634-71.429-160 31.98-160 71.429-160 71.429 71.634 71.429 160z" fill="#fc09f8"/>
  <path transform="matrix(-.68918 .72459 -.72459 -.68918 -711.89 1324.4)" d="m-568.57 332.36c0 88.366-31.98 160-71.429 160s-71.429-71.634-71.429-160 31.98-160 71.429-160 71.429 71.634 71.429 160z" fill="#fc09f8"/>
  <path transform="matrix(-.71186 -.70232 .70232 -.71186 -1453.4 422.72)" d="m-568.57 332.36c0 88.366-31.98 160-71.429 160s-71.429-71.634-71.429-160 31.98-160 71.429-160 71.429 71.634 71.429 160z" fill="#fc09f8"/>
  <path transform="matrix(1 0 0 1.1033 -271.43 345.46)" d="m-294.29 158.08c0 36.293-32.619 65.714-72.857 65.714s-72.857-29.421-72.857-65.714 32.619-65.714 72.857-65.714 72.857 29.421 72.857 65.714z" fill="#fcf5f8"/>
 </g>
</svg>
