<?xml version="1.0" standalone="no"?>
<!DOCTYPE svg PUBLIC "-//W3C//DTD SVG 20010904//EN"
 "http://www.w3.org/TR/2001/REC-SVG-20010904/DTD/svg10.dtd">
<svg version="1.0" xmlns="http://www.w3.org/2000/svg"
 width="400.000000pt" height="400.000000pt" viewBox="0 0 400.000000 400.000000"
 preserveAspectRatio="xMidYMid meet">
<metadata>
Created by potrace 1.15, written by Peter Selinger 2001-2017
</metadata>
<g transform="translate(0.000000,400.000000) scale(0.100000,-0.100000)"
fill="#000000" stroke="none">
<path d="M0 3427 l0 -573 30 -17 c28 -17 30 -17 30 -1 0 13 6 15 28 9 42 -10
59 -31 45 -55 -11 -17 -7 -23 39 -54 49 -32 54 -34 79 -20 15 7 34 11 42 8 8
-3 18 -1 22 5 9 16 35 13 41 -3 3 -8 -2 -26 -12 -41 -16 -24 -19 -25 -29 -11
-14 19 -75 34 -75 18 0 -11 127 -122 141 -122 5 0 9 -8 9 -18 0 -11 9 -27 20
-37 11 -10 20 -24 20 -30 0 -7 7 -19 17 -26 17 -15 16 -12 -6 34 -8 15 -12 29
-9 32 11 12 39 -9 44 -34 4 -14 13 -31 20 -37 15 -12 115 -7 124 6 3 4 15 12
28 19 28 15 29 35 1 28 -12 -3 -30 -1 -40 6 -15 9 -22 7 -39 -11 -23 -24 -29
-26 -48 -13 -11 6 -10 10 3 15 9 3 15 12 12 20 -4 9 3 16 15 20 16 4 19 8 11
18 -6 7 -9 25 -6 41 5 27 7 27 60 22 l56 -5 -7 32 c-5 26 -2 36 16 49 19 15
20 19 8 34 -13 15 -15 15 -26 -8 -8 -14 -29 -28 -56 -36 -23 -7 -47 -20 -54
-29 -6 -8 -20 -16 -31 -17 -11 0 -35 -13 -53 -28 -38 -32 -54 -31 -58 5 -2 20
4 28 38 43 22 10 40 21 40 24 0 4 14 12 30 18 42 16 38 27 -17 48 -47 18 -113
74 -113 96 0 8 6 6 18 -4 10 -9 27 -14 39 -11 11 3 24 1 27 -5 13 -21 28 -11
23 15 -3 20 0 28 14 31 11 3 19 10 19 17 0 6 9 22 20 36 11 14 20 33 20 44 0
13 5 16 16 12 13 -5 15 -2 11 14 -7 25 7 34 32 20 16 -8 26 -5 53 20 38 35 35
34 73 14 32 -16 60 -8 96 27 23 23 2 49 -34 42 -16 -3 -27 -1 -27 6 0 6 -7 11
-15 11 -22 0 -18 31 5 37 11 3 20 12 20 19 0 20 11 17 41 -12 35 -34 69 -26
69 16 0 16 -5 32 -10 35 -6 4 -8 11 -5 16 4 5 0 9 -7 9 -17 0 -68 64 -68 84 0
14 10 17 58 16 4 0 7 -8 8 -18 2 -33 4 -37 32 -66 43 -47 62 -79 62 -108 0
-22 5 -28 21 -28 18 0 20 5 16 26 -4 25 -3 26 34 21 32 -4 39 -2 37 10 -6 31
20 23 43 -13 12 -21 25 -32 27 -26 5 16 32 15 75 -3 40 -16 59 -64 37 -90 -10
-12 -10 -18 0 -30 18 -22 30 -18 30 9 0 28 13 39 63 55 34 12 37 16 37 50 0
20 6 45 13 56 8 11 17 34 20 51 5 26 2 33 -23 47 -15 9 -34 17 -42 17 -8 0
-24 19 -37 42 -21 40 -21 43 -5 55 23 16 42 17 26 1 -21 -21 -13 -30 23 -24
31 6 35 5 35 -15 0 -16 -5 -20 -20 -16 -33 8 -24 -20 12 -37 36 -18 43 -14 51
30 5 26 3 33 -14 37 -27 7 -15 27 17 27 15 0 24 -6 24 -15 0 -21 13 -19 28 5
14 23 37 26 45 7 3 -8 1 -35 -4 -61 -8 -42 -21 -74 -75 -178 -18 -33 -18 -38
1 -38 8 0 15 -7 15 -15 0 -24 26 -28 61 -11 18 9 40 16 50 16 10 0 30 11 45
25 24 23 26 28 14 49 -12 24 -6 51 10 41 4 -3 11 11 14 30 8 41 10 41 42 16
22 -17 27 -18 52 -5 15 8 33 14 40 14 7 0 24 7 37 16 14 9 37 17 52 19 16 2
40 7 55 10 21 6 27 3 33 -14 3 -12 17 -29 30 -37 22 -15 26 -14 47 5 30 28 54
23 51 -11 -1 -22 4 -28 30 -34 25 -5 34 -3 45 15 17 25 29 26 54 4 18 -16 19
-16 24 4 8 28 84 50 100 28 29 -38 123 -46 184 -15 22 11 40 16 40 11 0 -5 -6
-11 -12 -14 -10 -3 -10 -8 -2 -16 16 -18 42 -3 46 27 2 14 9 28 17 30 8 3 11
0 8 -5 -3 -5 12 -20 33 -34 45 -27 46 -42 4 -49 -34 -6 -39 -34 -7 -38 12 -2
24 -13 27 -27 5 -21 53 -52 106 -68 9 -3 1 -8 -17 -12 -38 -9 -43 -22 -10 -27
16 -2 23 -11 25 -32 3 -24 1 -28 -10 -18 -11 8 -16 7 -25 -6 -8 -14 -6 -23 7
-40 10 -12 21 -22 25 -22 4 0 2 7 -5 15 -7 9 -10 18 -6 22 11 11 20 -7 21 -40
3 -76 5 -87 19 -87 8 0 27 -5 43 -11 26 -10 26 -12 8 -19 -11 -4 -24 -5 -30
-1 -23 13 -75 6 -81 -11 -3 -10 -12 -24 -20 -33 -12 -11 -12 -18 -3 -33 10
-16 9 -28 -5 -62 -13 -34 -14 -45 -5 -51 7 -4 17 -5 22 -2 5 3 7 -8 5 -23 -2
-23 -9 -30 -33 -35 -16 -4 -24 -7 -17 -8 7 0 17 -13 23 -27 9 -25 10 -26 29
-9 10 9 16 23 14 30 -3 7 -1 16 5 20 6 3 11 2 11 -3 0 -18 38 -52 59 -52 12 0
24 -7 27 -15 4 -8 14 -15 24 -15 25 0 36 -20 19 -31 -21 -14 18 -40 48 -33 28
7 55 -12 48 -35 -7 -23 5 -37 45 -54 19 -8 45 -25 58 -37 16 -15 32 -21 48
-17 15 3 28 -1 33 -11 7 -12 11 -12 34 2 14 10 28 28 31 41 3 13 14 26 24 28
9 3 2 5 -15 6 -22 1 -33 -4 -33 -13 0 -20 -30 -29 -36 -11 -4 8 -4 22 0 30 6
17 -9 21 -19 5 -11 -17 -28 -11 -22 8 3 15 -1 19 -24 18 -22 -1 -29 -6 -29
-21 0 -18 -1 -18 -16 -3 -13 12 -14 20 -5 37 10 18 9 22 -6 28 -34 13 -46 32
-33 49 7 8 11 16 9 18 -20 15 -55 36 -61 36 -5 0 -5 -12 -2 -26 6 -24 5 -25
-15 -15 -11 7 -21 20 -21 29 0 10 -5 23 -12 30 -9 9 -8 12 4 12 9 0 19 -4 23
-10 3 -5 12 -7 20 -4 7 3 23 0 35 -6 17 -9 24 -9 30 0 8 12 34 2 72 -29 10 -8
27 -11 42 -7 25 6 45 -17 26 -29 -13 -8 -13 -45 0 -45 5 0 17 -8 27 -18 23
-23 58 -23 57 1 -2 24 15 21 38 -8 11 -14 28 -25 38 -25 10 0 22 -5 26 -12 9
-14 -26 -39 -75 -54 l-36 -10 33 -18 c39 -20 40 -49 2 -54 -14 -2 -32 -10 -40
-17 -8 -7 -20 -14 -26 -16 -6 -2 -32 -28 -57 -58 l-46 -54 24 -18 c29 -24 31
-24 39 3 5 21 7 21 18 6 7 -9 21 -18 31 -20 24 -4 23 -22 -3 -26 -22 -4 -26
-23 -9 -54 10 -18 7 -25 -25 -52 l-37 -31 21 -40 c12 -22 26 -39 31 -37 6 1 9
-10 7 -25 -2 -22 -9 -29 -33 -33 -26 -5 -30 -9 -27 -33 3 -19 -1 -27 -12 -27
-9 0 -16 5 -16 10 0 16 -22 12 -35 -7 -7 -9 -17 -13 -24 -9 -9 6 -8 11 5 20
20 15 11 36 -17 36 -13 0 -19 -7 -19 -23 0 -28 -17 -47 -42 -47 -14 0 -18 -8
-18 -40 0 -25 5 -43 14 -46 8 -3 16 -19 20 -36 3 -18 14 -32 25 -35 11 -3 19
-14 19 -26 2 -61 9 -96 21 -111 11 -13 11 -17 -2 -22 -23 -8 -37 4 -37 32 0
14 -7 27 -14 30 -8 3 -20 29 -26 57 -13 65 -22 80 -45 75 -26 -5 -31 -28 -6
-28 27 0 27 -26 1 -42 -21 -14 -27 -52 -9 -64 6 -3 8 -15 5 -26 -6 -23 18 -47
76 -78 47 -25 58 -25 58 1 0 15 4 19 16 15 9 -3 18 -6 21 -6 3 0 1 -6 -4 -13
-14 -17 -24 -89 -12 -82 5 4 9 13 9 21 0 25 44 13 48 -13 4 -24 -25 -38 -57
-28 -19 6 -33 -12 -36 -48 -3 -26 11 -30 45 -12 27 14 30 14 30 0 0 -25 -27
-47 -50 -40 -11 4 -20 2 -20 -4 0 -6 -6 -11 -13 -11 -17 0 -51 36 -44 47 3 5
-1 17 -9 27 -19 26 -46 4 -38 -30 5 -18 2 -24 -10 -24 -9 0 -16 -6 -16 -12 0
-7 -11 -18 -25 -25 -14 -6 -25 -10 -25 -9 0 0 4 15 9 33 7 25 6 33 -6 37 -21
8 -23 8 -23 -9 0 -8 -7 -15 -16 -15 -13 0 -14 -3 -5 -14 14 -17 3 -76 -14 -76
-7 0 -15 -8 -18 -18 -2 -11 -14 -21 -25 -24 -16 -4 -23 1 -32 23 -14 33 -35
37 -50 10 -15 -29 -12 -33 11 -21 17 9 23 8 35 -7 7 -10 14 -27 14 -37 0 -18
2 -18 25 4 23 22 25 22 25 4 0 -11 7 -29 15 -41 9 -12 11 -24 6 -27 -13 -8
-38 3 -45 20 -4 11 -11 8 -32 -11 -15 -14 -37 -25 -50 -25 -12 0 -26 -5 -29
-10 -12 -19 -26 -11 -15 9 19 36 11 51 -18 32 -10 -6 -11 -19 -6 -45 6 -33 9
-37 30 -32 12 3 25 3 28 -2 10 -17 -22 -39 -66 -46 -55 -8 -66 -20 -44 -45 14
-15 15 -23 5 -45 -7 -14 -16 -26 -21 -26 -12 0 -10 8 9 37 l18 26 -33 -6 c-17
-4 -32 -2 -32 2 0 5 -3 16 -6 25 -4 11 -1 16 10 16 9 0 16 5 16 10 0 6 -12 9
-27 8 -24 -3 -28 0 -26 19 3 28 -13 30 -29 3 -7 -11 -19 -20 -27 -20 -12 0
-12 3 -3 12 7 7 12 20 12 30 0 10 7 18 15 18 8 0 15 7 15 15 0 8 -7 15 -16 15
-14 0 -14 3 -4 15 8 10 21 13 33 9 12 -4 17 -2 13 4 -3 6 -2 13 3 16 15 10 0
79 -22 104 -21 23 -51 29 -61 13 -3 -5 -15 -7 -26 -4 -30 8 -26 -40 5 -71 31
-31 31 -46 -1 -70 -20 -14 -35 -17 -65 -12 -44 7 -54 -9 -14 -24 l25 -9 -25
-46 c-28 -49 -24 -60 7 -20 11 14 23 25 28 25 15 0 4 -97 -13 -115 -22 -21
-22 -37 0 -33 10 2 20 14 21 27 3 20 8 22 34 17 17 -3 37 -6 45 -6 15 0 34
-40 25 -54 -2 -5 -13 2 -23 15 l-18 24 3 -32 c3 -17 9 -41 16 -53 16 -31 9
-74 -14 -78 -16 -4 -18 0 -12 30 3 19 3 38 -1 42 -4 4 -8 15 -8 23 0 9 -7 17
-15 18 -8 2 -22 4 -30 6 -10 3 -16 -5 -18 -23 -4 -36 -32 -38 -32 -2 0 14 -4
34 -10 44 -7 13 -5 24 10 43 11 14 20 30 20 36 0 16 -26 13 -40 -4 -14 -17
-40 -20 -40 -5 0 6 -9 10 -19 10 -24 0 -37 -36 -20 -56 8 -10 9 -18 3 -22 -6
-4 -13 -14 -16 -23 -7 -17 -83 -43 -98 -34 -6 3 -10 12 -10 20 0 7 -7 16 -16
19 -8 3 -12 10 -9 16 9 15 25 12 25 -4 0 -15 24 -28 34 -19 13 13 5 24 -29 40
-19 9 -35 22 -35 30 0 7 -9 17 -19 22 -24 13 -42 -6 -43 -48 -1 -32 -28 -47
-58 -31 -13 7 -20 4 -28 -15 -16 -34 -32 -31 -32 4 0 20 -8 34 -26 46 -27 18
-46 13 -26 -7 7 -7 12 -19 12 -28 -1 -13 -3 -12 -14 3 -19 25 -40 21 -74 -13
-36 -35 -42 -37 -42 -10 0 11 5 20 11 20 8 0 8 5 -1 15 -7 8 -18 15 -24 15 -7
0 -22 11 -34 25 -12 14 -28 25 -35 25 -7 0 -18 14 -24 30 -8 20 -18 30 -32 30
-23 0 -29 -28 -9 -48 6 -6 8 -15 4 -19 -4 -4 -17 6 -30 22 -26 33 -51 29 -66
-10 -6 -16 -14 -23 -25 -19 -19 8 -19 38 0 54 8 7 15 19 15 27 0 11 -9 13 -45
7 l-46 -6 5 56 c5 51 -3 71 -19 46 -7 -12 -45 -13 -45 -2 0 12 34 42 48 42 15
0 15 10 1 30 -8 13 -12 12 -25 -7 -13 -19 -19 -20 -35 -10 -14 9 -24 9 -37 1
-22 -14 -22 -38 1 -42 9 -2 17 2 17 8 0 6 5 8 10 5 13 -8 -6 -45 -24 -45 -22
0 -66 47 -60 64 3 9 1 16 -5 16 -6 0 -12 -12 -13 -27 0 -16 -1 -35 -2 -43 -1
-21 -66 -27 -66 -6 0 21 -38 30 -57 15 -8 -8 -25 -13 -36 -14 -28 0 -34 -25
-8 -32 12 -3 21 -9 21 -14 0 -5 -6 -6 -14 -3 -9 3 -19 -4 -27 -18 -14 -26 -28
-38 -48 -38 -10 0 -12 9 -7 37 17 93 9 173 -15 173 -5 0 -17 -10 -28 -21 l-20
-22 -7 29 c-4 16 -11 35 -16 41 -6 7 -7 24 -4 39 5 18 0 37 -14 61 -11 19 -20
42 -20 52 0 19 -31 53 -46 50 -5 -1 -17 -1 -26 0 -22 1 -25 41 -3 41 18 0 111
87 102 96 -7 8 -98 -35 -150 -70 -19 -13 -44 -27 -55 -30 -10 -4 -27 -15 -37
-26 -18 -19 -55 -28 -55 -12 0 9 36 55 76 97 28 29 67 48 104 50 46 2 82 67
45 81 -8 4 -15 17 -15 30 0 31 -22 31 -36 0 -8 -18 -8 -30 2 -47 9 -18 9 -26
1 -31 -20 -13 -27 -9 -27 16 0 14 -4 27 -10 31 -5 3 -6 13 -3 23 5 15 4 16
-11 1 -23 -21 -76 -13 -76 12 0 14 -7 19 -25 19 -20 0 -25 5 -25 24 0 30 -28
56 -40 37 -4 -7 -5 -21 -3 -31 6 -21 -14 -37 -29 -22 -6 6 -6 12 1 16 6 4 11
11 11 17 0 14 -26 11 -40 -6 -10 -12 -16 -13 -27 -3 -12 10 -13 7 -7 -18 4
-16 11 -34 16 -41 12 -15 2 -33 -18 -33 -8 0 -14 9 -14 20 0 19 -10 24 -37 21
-7 -1 -17 8 -23 19 -6 11 -19 20 -29 20 -21 0 -36 40 -20 51 7 4 4 9 -6 13 -9
3 -13 11 -10 17 4 6 13 8 21 5 10 -4 14 4 14 30 0 40 16 77 31 69 5 -4 9 -18
9 -31 0 -36 22 -25 36 16 6 19 16 36 23 38 14 5 14 -26 0 -68 -13 -37 1 -54
36 -44 19 5 19 4 3 -9 -18 -15 -14 -27 9 -27 7 0 13 9 13 20 0 17 4 19 28 14
15 -4 35 -14 45 -22 16 -14 19 -14 31 3 7 10 18 15 23 12 6 -4 13 0 17 8 3 8
11 15 18 15 7 0 24 9 38 20 30 23 50 25 50 5 0 -8 6 -15 14 -15 25 0 28 19 6
37 -11 10 -20 27 -20 39 0 13 -13 30 -35 45 -35 24 -42 48 -16 57 10 3 12 0 8
-12 -5 -11 -1 -16 14 -16 15 0 20 5 17 23 -3 19 -9 22 -53 22 -41 0 -50 3 -49
18 1 9 -4 17 -12 17 -7 0 -18 9 -24 20 -8 15 -8 20 2 20 6 0 24 12 39 26 15
14 42 30 61 34 l33 7 -28 12 c-31 12 -28 31 6 31 15 0 18 3 10 11 -15 15 -65
-1 -70 -22 -3 -11 -12 -19 -21 -19 -12 0 -13 -3 -4 -12 16 -16 15 -28 -3 -28
-8 0 -15 9 -15 20 0 21 -19 25 -55 11 -19 -8 -19 -8 3 -20 12 -6 22 -18 22
-26 0 -18 -26 -20 -33 -2 -3 8 -10 6 -21 -8 -21 -27 -20 -27 14 -47 33 -19 44
-68 15 -68 -8 0 -15 8 -15 19 0 10 -11 26 -25 35 -15 10 -22 22 -19 31 4 10 0
15 -15 15 -15 0 -21 -6 -21 -24 0 -25 -36 -56 -65 -56 -9 0 -31 -11 -49 -25
-18 -14 -38 -25 -44 -25 -19 0 -14 -17 13 -46 28 -31 33 -49 9 -40 -9 3 -20 6
-25 6 -5 0 -9 8 -9 19 0 15 -7 18 -40 15 -22 -1 -49 -9 -61 -18 -17 -12 -27
-13 -43 -4 -43 23 -59 63 -28 72 9 3 22 16 27 28 6 13 19 24 30 26 68 10 67 9
60 65 -5 42 -4 56 9 66 23 19 30 7 18 -28 -13 -38 2 -41 42 -10 25 20 56 20
56 0 0 -15 32 -22 47 -10 11 10 10 14 -8 23 -38 19 -32 32 16 31 30 0 49 -5
55 -15 7 -11 14 -12 27 -4 25 16 30 37 6 30 -12 -4 -25 0 -33 9 -11 13 -8 15
17 15 16 0 34 5 40 11 8 8 17 7 31 -2 23 -14 38 -8 27 11 -4 6 -18 15 -31 21
-20 7 -23 12 -15 27 7 13 6 23 -1 30 -19 19 -49 14 -55 -8 -3 -11 -12 -20 -20
-20 -11 0 -11 4 -3 21 15 27 8 32 -24 18 -29 -14 -33 -24 -11 -33 8 -3 15 -18
15 -33 l0 -28 -19 24 -19 24 -11 -21 c-6 -12 -16 -22 -21 -22 -17 0 -11 26 15
64 13 20 19 36 13 36 -6 0 -19 7 -29 16 -23 21 -69 11 -76 -17 -5 -17 -8 -18
-22 -6 -9 8 -23 16 -32 19 -8 3 -21 24 -29 47 -14 44 -19 48 -37 30 -17 -17
-47 -3 -39 18 4 9 1 20 -6 25 -10 7 -8 13 9 25 24 16 30 33 13 33 -6 0 -21 10
-33 21 -19 20 -20 21 -3 15 12 -4 23 -2 27 6 4 7 11 9 16 5 4 -5 1 -12 -7 -17
-12 -8 -12 -10 2 -15 35 -14 53 -2 50 33 -4 38 16 51 54 34 23 -11 35 0 14 13
-15 9 -12 25 4 25 7 0 24 -20 37 -45 14 -26 35 -49 49 -54 18 -7 20 -10 7 -10
-10 -1 -16 -5 -13 -10 3 -5 16 -7 29 -4 31 8 83 46 69 51 -7 2 -12 7 -12 12 0
14 32 21 45 10 9 -8 14 -6 18 4 4 9 2 18 -3 21 -14 9 -62 -6 -89 -27 -13 -10
-28 -18 -33 -18 -13 0 -47 42 -48 57 -1 32 -29 68 -77 99 -29 19 -58 34 -63
34 -5 0 -13 6 -17 14 -4 7 -26 23 -47 34 -22 12 -42 25 -45 29 -8 10 -59 46
-88 62 -23 11 -23 11 -23 -44 0 -46 3 -55 18 -55 10 0 23 -5 30 -12 8 -8 15
-8 26 1 12 10 20 9 40 -6 14 -10 26 -26 26 -35 0 -10 5 -18 10 -18 12 0 13
-11 0 -30 -8 -12 -15 -9 -40 18 -31 34 -68 38 -56 7 4 -11 -2 -15 -24 -15
l-30 0 0 -124 c0 -74 4 -127 10 -131 16 -10 88 28 94 50 4 16 8 17 18 7 10
-10 7 -17 -17 -38 -17 -13 -47 -32 -67 -42 -33 -14 -38 -21 -38 -50 0 -18 4
-31 9 -27 5 3 12 1 16 -5 3 -5 -1 -10 -9 -10 -14 0 -16 -75 -16 -730 0 -703 1
-730 18 -730 11 0 27 -9 38 -21 24 -26 8 -55 -30 -52 l-26 2 0 -310 0 -309
2000 0 2000 0 0 1074 c0 1065 0 1074 -20 1079 -11 3 -20 10 -20 16 0 6 9 11
20 11 20 0 20 7 20 910 l0 910 -2000 0 -2000 0 0 -573z m1245 56 c0 -17 3 -34
6 -37 3 -4 4 -30 2 -59 -4 -46 -3 -50 10 -34 17 20 37 23 37 4 0 -20 -60 -127
-71 -127 -12 0 -12 23 0 35 5 6 12 20 16 33 5 19 3 22 -19 22 -26 0 -36 15
-14 22 8 3 8 12 -3 36 -10 23 -19 30 -31 26 -36 -11 -40 8 -8 36 33 28 33 50
2 50 -12 1 -10 5 8 15 40 24 65 15 65 -22z m2379 -1731 c12 -23 28 -42 38 -42
9 0 25 -11 36 -25 11 -13 22 -22 25 -19 8 8 -3 35 -21 57 -13 15 -13 17 -1 17
8 0 19 -4 25 -8 5 -5 30 -3 56 5 33 10 48 20 50 34 5 30 23 28 26 -3 2 -17 -8
-48 -24 -76 l-27 -49 33 -30 c21 -19 29 -32 22 -37 -6 -4 -21 5 -34 19 -24 28
-66 34 -73 10 -3 -8 -8 -23 -12 -32 -3 -10 -5 -23 -4 -29 1 -7 -5 -14 -14 -18
-9 -3 -15 -18 -15 -36 0 -34 -7 -38 -26 -12 -12 15 -15 15 -24 2 -14 -22 -12
-40 5 -40 17 0 20 -16 6 -25 -6 -3 -14 2 -19 11 -8 14 -12 14 -43 1 -19 -8
-48 -30 -63 -48 -34 -40 -59 -58 -50 -34 3 8 1 15 -5 15 -18 0 -12 23 14 54
21 26 26 28 40 16 14 -12 18 -12 26 1 5 8 9 20 9 28 0 11 -5 10 -20 -4 -24
-22 -28 -1 -5 29 25 34 16 39 -15 9 -16 -15 -30 -34 -30 -40 0 -16 -22 -17
-38 -1 -9 9 -12 6 -12 -15 0 -31 -20 -36 -45 -11 -9 9 -25 14 -35 11 -12 -3
-24 1 -30 11 -16 29 -12 -9 5 -42 8 -15 13 -32 10 -36 -3 -5 3 -13 12 -19 10
-5 15 -13 11 -17 -4 -4 -14 -1 -22 5 -12 10 -21 10 -42 -1 -30 -14 -55 -69
-35 -76 17 -6 3 -22 -20 -22 -10 0 -19 -4 -19 -10 0 -5 -5 -10 -12 -10 -6 0
-1 12 13 26 24 25 24 26 5 40 -11 8 -24 14 -29 14 -6 0 -2 9 9 21 14 16 15 22
5 28 -9 6 -7 10 8 14 16 4 21 13 21 36 0 31 -13 41 -25 21 -9 -14 -42 28 -50
63 -6 22 -4 27 12 27 19 0 53 -32 53 -50 0 -13 26 -13 51 0 19 11 27 40 10 40
-11 0 -36 37 -46 69 -7 22 -4 21 29 -11 20 -19 36 -40 36 -47 0 -15 27 -14 33
2 3 8 13 6 35 -10 33 -24 57 -29 66 -14 3 5 14 7 24 4 13 -3 24 7 40 35 24 43
28 62 12 62 -5 0 -10 -7 -10 -15 0 -9 -7 -18 -15 -21 -8 -4 -15 -12 -15 -20 0
-8 -4 -14 -10 -14 -5 0 -10 8 -10 18 0 9 -12 22 -27 29 -16 6 -44 19 -63 27
l-35 16 40 -5 c29 -4 36 -3 25 4 -8 6 -10 11 -4 11 6 0 23 -9 37 -20 33 -26
37 -26 80 14 36 33 37 53 3 40 -9 -3 -16 -2 -16 4 0 16 27 33 64 39 62 10 38
35 -46 47 -43 7 -47 5 -50 -16 -4 -20 -5 -21 -12 -5 -5 11 -2 26 8 42 18 27
36 33 36 12 0 -9 13 -14 37 -15 28 -1 34 1 25 10 -15 15 -15 31 -1 26 7 -2 21
-23 33 -46z m-200 -448 c3 -9 6 -31 6 -50 0 -29 3 -34 24 -34 14 0 37 -5 53
-11 15 -7 44 -12 63 -13 l35 -1 1 -52 c1 -38 -3 -53 -12 -53 -8 0 -14 -7 -14
-15 0 -21 -17 -19 -30 4 -14 28 -12 44 5 37 8 -3 15 -2 15 2 0 10 -50 27 -127
42 -41 8 -69 21 -84 36 -12 13 -17 24 -11 24 6 0 14 -5 17 -11 14 -22 30 -1
27 34 -6 60 16 102 32 61z m-2904 -169 c10 -12 9 -20 -4 -40 -21 -32 -20 -38
3 -25 32 16 38 12 37 -27 -1 -26 -8 -45 -25 -60 -13 -13 -26 -23 -28 -23 -14
0 -62 43 -58 50 3 5 -3 27 -15 49 -35 69 -27 81 34 55 16 -6 18 -4 14 14 -5
17 -2 22 12 22 10 0 23 -7 30 -15z m2703 -142 c4 -19 -2 -42 -17 -68 -12 -22
-20 -50 -18 -62 4 -25 51 -41 63 -21 16 26 20 -2 4 -35 -17 -36 -48 -56 -77
-49 -22 4 -24 22 -3 22 23 0 18 31 -6 37 -14 4 -19 12 -16 24 3 12 0 19 -8 19
-8 0 -23 12 -34 26 -19 24 -19 28 -5 56 23 45 50 68 63 55 16 -16 14 -37 -4
-37 -16 0 -21 -35 -5 -45 5 -3 16 5 24 18 12 18 14 31 6 57 -14 48 -13 52 9
41 10 -6 21 -23 24 -38z"/>
</g>
</svg>
