<?xml version="1.0" standalone="no"?>
<!DOCTYPE svg PUBLIC "-//W3C//DTD SVG 20010904//EN"
 "http://www.w3.org/TR/2001/REC-SVG-20010904/DTD/svg10.dtd">
<svg version="1.0" xmlns="http://www.w3.org/2000/svg"
 width="1024.000000pt" height="768.000000pt" viewBox="0 0 1024.000000 768.000000"
 preserveAspectRatio="xMidYMid meet">
<metadata>
Created by potrace 1.15, written by Peter Selinger 2001-2017
</metadata>
<g transform="translate(0.000000,768.000000) scale(0.100000,-0.100000)"
fill="#000000" stroke="none">
<path d="M3036 7279 c3 -5 0 -9 -6 -9 -6 0 -10 -6 -9 -12 5 -37 -4 -69 -26
-102 -39 -57 -20 -95 46 -96 10 0 20 11 23 25 4 14 12 25 19 25 20 0 64 51 71
83 4 19 2 33 -8 43 -9 8 -20 22 -25 31 -6 11 -24 17 -50 19 -22 1 -38 -2 -35
-7z"/>
<path d="M3232 7126 c5 -5 -5 -17 -22 -27 -19 -12 -28 -24 -24 -34 4 -10 0
-15 -15 -15 -12 0 -21 -4 -21 -10 0 -5 -11 -10 -24 -10 -41 0 -76 -18 -76 -39
0 -22 -59 -100 -77 -100 -19 -1 24 -41 43 -41 9 0 43 27 75 60 53 55 99 77 99
49 0 -5 5 -7 10 -4 6 4 13 -7 16 -24 4 -17 13 -36 20 -42 8 -6 14 -18 14 -26
0 -9 6 -13 14 -10 8 3 17 -1 21 -10 3 -10 9 -13 14 -7 12 13 23 174 12 174
-13 0 -45 52 -44 72 1 9 -8 24 -20 34 -12 11 -19 15 -15 10z"/>
<path d="M5765 7050 c-124 -9 -266 -33 -318 -55 -19 -8 -48 -30 -66 -50 -26
-30 -31 -44 -31 -88 0 -29 -4 -135 -9 -237 -6 -102 -12 -266 -16 -365 -11
-338 -16 -440 -21 -457 -3 -9 2 -21 12 -26 16 -9 15 -11 -4 -21 -33 -17 -46
-50 -48 -117 -1 -61 -1 -61 32 -74 32 -13 54 -40 32 -40 -7 0 -7 -4 1 -14 12
-15 12 -96 -1 -96 -4 0 -8 11 -8 24 0 19 -5 24 -27 24 -28 0 -150 -31 -188
-49 -28 -12 -104 -28 -137 -29 -15 0 -39 -5 -55 -12 -15 -6 -30 -12 -33 -13
-3 -1 -18 -7 -33 -13 -16 -7 -33 -12 -38 -12 -5 0 -9 -4 -9 -10 0 -5 -16 -9
-35 -8 -43 2 -45 -1 -55 -49 -5 -21 -13 -62 -19 -92 -13 -64 -15 -188 -2 -195
13 -9 4 -75 -20 -141 -17 -47 -22 -89 -25 -200 -2 -77 -7 -189 -10 -250 -7
-133 -7 -137 -3 -300 2 -71 0 -166 -4 -210 -4 -44 -9 -174 -12 -290 -8 -297
-23 -519 -40 -600 -8 -39 -19 -112 -25 -162 -12 -107 -28 -174 -63 -264 -48
-122 -76 -211 -70 -226 4 -11 16 -14 44 -10 20 3 42 0 48 -6 6 -6 32 -12 58
-14 67 -4 79 -7 95 -21 8 -6 18 -8 22 -4 4 4 13 0 19 -8 13 -17 97 -22 97 -6
0 6 5 5 12 -2 16 -16 31 -15 25 2 -6 16 18 42 26 29 3 -4 0 -100 -5 -213 -6
-132 -6 -211 1 -225 13 -28 21 -67 27 -138 3 -34 9 -75 13 -92 4 -16 8 -73 10
-125 2 -81 5 -97 22 -109 22 -16 26 -33 4 -25 -10 4 -15 0 -16 -12 -1 -11 -2
-23 -4 -29 -1 -5 -3 -68 -3 -138 -1 -78 -6 -126 -11 -122 -19 11 -34 -39 -36
-118 -3 -76 -4 -80 -34 -100 -29 -21 -55 -57 -29 -41 7 5 8 3 3 -6 -4 -7 -2
-16 6 -22 10 -6 5 -7 -16 -4 -46 9 -64 -8 -27 -25 17 -7 28 -17 26 -21 -7 -11
38 -10 55 1 11 7 10 11 -5 20 -15 8 -16 10 -3 11 8 0 20 -5 27 -12 9 -9 7 -14
-6 -24 -15 -11 -13 -14 20 -28 21 -9 61 -16 90 -16 29 0 96 -5 148 -11 52 -6
151 -12 220 -14 69 -1 262 -8 430 -15 489 -18 865 0 1150 57 69 14 133 29 142
34 43 23 63 64 33 71 -13 2 -11 10 10 41 14 20 23 37 19 37 -3 0 6 14 20 31
32 37 33 45 41 189 3 63 9 138 12 166 l6 52 31 -9 c17 -5 43 -9 57 -9 28 0 64
-32 64 -58 0 -13 9 -17 38 -17 21 0 42 -7 46 -14 7 -11 9 -11 13 0 2 7 9 9 17
5 10 -6 10 -10 1 -16 -21 -13 47 -33 89 -26 28 4 42 2 51 -9 7 -8 19 -15 26
-15 8 0 14 -4 14 -8 0 -5 14 -7 31 -4 22 3 37 -2 55 -19 20 -19 24 -20 24 -6
0 9 4 17 10 17 5 0 9 -5 7 -12 -1 -7 3 -12 8 -13 6 0 45 -17 87 -38 79 -38
104 -45 93 -27 -9 14 48 1 57 -13 4 -7 11 -7 20 0 15 12 63 -1 54 -15 -12 -19
58 -45 118 -45 35 1 72 -5 86 -13 l25 -14 -30 6 c-41 9 -23 -8 38 -34 41 -18
49 -19 54 -7 6 17 55 20 84 4 27 -14 14 -30 -19 -24 -15 2 -7 -2 18 -11 25 -9
64 -16 87 -17 31 -2 39 -5 31 -14 -8 -10 -4 -13 18 -13 16 0 47 -7 69 -14 22
-8 62 -13 88 -10 27 2 66 -3 90 -11 23 -8 52 -15 64 -15 12 0 24 -4 28 -10 3
-5 12 -7 19 -4 7 3 16 -2 19 -10 4 -9 18 -16 34 -16 44 0 72 -11 78 -29 4 -14
19 -17 73 -18 76 -2 203 -37 199 -56 -1 -7 7 -11 18 -10 11 1 27 0 35 -4 17
-7 29 -9 88 -18 58 -9 119 -35 103 -44 -6 -4 10 -6 36 -5 44 3 123 -14 123
-26 0 -3 -5 -12 -10 -20 -8 -13 -11 -13 -22 2 -17 22 -125 29 -120 7 5 -19 33
-49 46 -49 6 0 4 5 -4 10 -13 8 -13 10 2 10 9 0 20 -5 24 -11 4 -8 9 -7 14 2
6 9 12 9 25 -4 9 -10 20 -15 25 -12 5 3 11 1 15 -5 3 -5 15 -10 26 -10 15 0
19 5 14 19 -4 15 1 20 26 25 48 9 89 7 89 -5 0 -5 4 -8 10 -4 14 9 61 -6 57
-18 -2 -6 -28 -10 -64 -8 -50 2 -62 -1 -68 -16 -7 -17 -8 -17 -16 2 -9 20 -9
20 -6 0 3 -25 37 -33 49 -11 11 20 28 21 28 0 0 -8 4 -12 10 -9 6 4 7 -1 3
-11 -5 -13 -2 -15 16 -9 12 4 27 2 34 -3 7 -5 19 -10 27 -10 8 0 40 -8 70 -17
75 -22 121 -35 148 -42 l22 -5 0 3130 0 3130 -37 -9 c-21 -4 -85 -19 -143 -33
-58 -13 -139 -32 -180 -41 -84 -18 -131 -29 -340 -79 -206 -50 -372 -88 -395
-91 -11 -2 -69 -15 -130 -28 -60 -14 -150 -33 -200 -42 -49 -9 -110 -22 -135
-29 -25 -8 -72 -19 -105 -26 -33 -7 -96 -21 -140 -32 -103 -26 -129 -32 -250
-58 -55 -11 -107 -24 -115 -28 -8 -4 -27 -7 -42 -7 -16 1 -28 -2 -28 -5 0 -3
-39 -14 -87 -24 -49 -11 -153 -34 -233 -53 -210 -50 -351 -83 -380 -88 -14 -3
-56 -13 -95 -21 -144 -33 -196 -41 -202 -31 -3 5 -8 41 -11 79 -4 57 -9 72
-26 83 -24 14 -127 37 -259 56 -48 7 -90 16 -93 21 -3 4 0 8 5 8 8 0 11 134
11 429 0 418 0 429 -21 455 -27 35 -46 33 -54 -5 -4 -18 -7 -160 -7 -318 -1
-157 -4 -295 -9 -306 -4 -11 -8 125 -8 302 l-1 321 -32 28 -33 27 -15 -36
c-16 -40 -30 -48 -30 -18 0 20 -44 61 -65 61 -7 0 -15 -15 -19 -32 l-7 -33
-25 33 c-32 40 -84 46 -84 10 0 -18 -2 -19 -12 -10 -7 7 -13 18 -13 25 0 14
-259 19 -430 7z m950 -1285 c190 -24 264 -39 270 -53 9 -23 -4 -31 -33 -22
-37 13 -226 40 -277 40 -23 0 -55 6 -71 14 -16 8 -72 22 -124 30 l-95 15 110
-5 c61 -3 160 -12 220 -19z m-225 -235 c49 -6 76 -6 78 0 2 6 16 10 30 9 32
-1 75 -17 52 -19 -34 -4 50 -20 108 -21 64 -1 76 -10 43 -31 -15 -9 -17 -15
-9 -25 8 -10 5 -13 -11 -13 -11 0 -20 -6 -18 -12 1 -8 -11 -14 -30 -16 -47 -5
-41 -22 7 -22 22 0 40 -4 40 -10 0 -17 41 -34 50 -20 4 6 10 -6 13 -29 3 -27
25 -70 64 -128 45 -68 76 -101 138 -148 44 -33 86 -73 93 -89 13 -26 12 -29
-21 -63 -19 -19 -41 -35 -49 -36 -38 -6 -74 -29 -75 -49 -2 -25 -45 -68 -68
-68 -8 0 -15 -4 -15 -10 0 -5 -3 -9 -7 -9 -5 1 -16 1 -26 0 -17 -1 -17 -2 -3
-17 21 -21 20 -24 -8 -24 -14 0 -32 7 -41 16 -11 11 -28 15 -59 12 -24 -3 -51
-1 -60 4 -24 13 -19 -1 7 -22 l22 -18 -27 -7 c-16 -4 -28 -10 -28 -14 0 -17
-117 -31 -305 -36 -109 -4 -203 -9 -207 -11 -5 -3 -24 4 -43 16 -36 22 -47 37
-20 26 18 -7 20 5 3 22 -9 9 -9 15 0 24 12 12 199 13 435 3 102 -4 130 1 146
27 12 20 11 21 -18 15 -16 -4 -43 -2 -58 3 -15 5 -140 13 -278 17 -243 8 -251
9 -282 32 -31 23 -32 26 -16 43 10 11 30 18 55 18 21 0 38 4 38 9 0 5 99 10
221 13 165 3 222 7 228 17 5 7 14 12 22 11 8 -1 23 -2 34 -1 16 1 14 4 -10 15
-40 17 -96 36 -120 41 -11 2 -58 16 -105 30 -56 18 -126 30 -205 36 -66 5
-123 13 -128 18 -9 9 9 10 373 20 146 4 272 11 279 15 9 6 4 14 -19 28 -22 13
-87 27 -203 44 -94 14 -173 26 -175 28 -2 2 16 7 40 11 65 10 106 24 111 40 7
17 -11 24 -54 20 -111 -11 -260 -15 -298 -8 -36 7 -45 12 -46 31 -1 15 3 21
12 18 7 -3 13 -1 13 4 0 5 9 11 20 15 11 3 19 12 17 18 -1 8 32 14 113 18 139
8 127 5 133 29 4 15 14 20 39 20 29 0 34 -3 34 -22 -1 -21 4 -23 52 -26 28 -2
52 1 52 6 0 11 -45 32 -68 32 -10 0 -23 5 -28 10 -14 14 -124 16 -239 6 -73
-7 -88 -6 -78 4 8 9 9 19 3 31 -6 10 -6 20 -1 23 12 8 180 3 175 -5 -4 -7 89
-3 136 5 14 2 41 5 60 5 66 3 6 21 -101 31 -113 11 -141 20 -61 20 63 0 67 13
10 28 l-43 11 45 -5 c25 -3 79 -9 120 -14z m-1174 -290 c-8 -30 -17 -62 -20
-70 -5 -13 1 -15 29 -15 27 1 35 -2 33 -14 -4 -18 -56 -50 -101 -61 -49 -12
-98 -30 -146 -53 -53 -26 -128 -116 -153 -184 -16 -41 -17 -43 -13 -13 14 89
96 191 203 251 128 72 156 111 170 242 7 70 7 71 10 22 2 -28 -4 -75 -12 -105z
m408 -801 c-2 -4 0 -10 6 -14 5 -3 10 1 10 10 0 15 34 16 418 10 229 -4 507
-10 617 -15 110 -4 257 -7 327 -7 69 1 124 -1 121 -5 -2 -5 13 -9 34 -10 l38
-1 -37 -4 c-21 -2 -38 -8 -38 -12 0 -5 -25 -8 -55 -8 -30 0 -55 2 -55 6 0 12
-59 11 -66 -1 -5 -8 -2 -9 10 -5 10 4 15 3 11 -3 -3 -6 6 -15 22 -20 15 -6 38
-15 50 -21 11 -6 26 -8 32 -5 6 4 11 3 11 -2 0 -5 10 -12 21 -15 20 -5 21 -11
17 -104 -4 -99 -17 -139 -48 -145 -10 -3 -11 -6 -4 -11 7 -4 22 1 34 11 18 15
25 37 36 108 7 50 20 106 29 125 14 32 15 19 11 -191 -3 -173 -7 -234 -19
-265 -9 -22 -16 -66 -17 -98 l0 -58 -177 1 c-217 2 -213 2 -213 -8 0 -4 93 -8
206 -7 118 0 208 -4 212 -9 3 -6 0 -12 -6 -14 -7 -2 -9 -9 -5 -15 4 -7 8 -29
9 -49 1 -29 -4 -41 -21 -52 -35 -23 -74 -191 -60 -255 10 -46 25 -27 19 23 -7
49 11 116 31 116 19 0 27 -58 21 -168 -3 -53 -8 -175 -11 -271 -4 -95 -10
-181 -15 -190 -5 -9 -16 -41 -25 -72 l-15 -57 -37 10 c-37 9 -65 14 -90 17
-19 2 -16 82 4 111 9 14 22 28 27 32 16 11 -16 10 -33 -1 -8 -5 -22 -51 -32
-108 -20 -108 -23 -139 -9 -108 8 18 9 17 9 -7 1 -16 6 -28 12 -28 5 0 8 -3 6
-7 -3 -5 16 -24 42 -43 54 -41 121 -108 121 -121 0 -5 -6 -10 -12 -10 -7 -1
-22 -3 -33 -5 -11 -2 -36 -6 -56 -8 -20 -2 -41 -6 -46 -9 -6 -4 -21 14 -33 38
-13 25 -30 45 -38 45 -8 0 -12 6 -9 15 4 8 2 17 -3 20 -5 3 -10 -6 -12 -20 -2
-18 -7 -22 -17 -16 -12 8 -12 12 2 26 21 21 22 41 1 49 -10 4 -14 12 -10 22 5
14 4 15 -9 4 -12 -10 -15 -10 -15 4 0 9 7 19 16 23 11 4 14 13 9 31 -5 19 -3
23 9 19 18 -7 42 18 26 28 -5 3 -10 -1 -10 -10 0 -9 -4 -14 -9 -11 -18 11 -42
-6 -36 -25 4 -11 2 -19 -4 -19 -14 0 -11 62 4 73 7 6 6 10 -2 14 -17 6 -16 23
1 23 7 0 16 9 19 21 3 12 3 18 0 15 -10 -10 -35 33 -27 46 5 7 3 8 -7 3 -12
-7 -12 -6 -1 7 10 13 10 17 -3 22 -22 8 -19 26 5 26 22 0 27 19 9 37 -8 8 -5
15 11 26 14 9 17 17 11 22 -6 3 -9 11 -6 16 3 5 -1 6 -9 3 -9 -3 -16 -1 -16 4
0 6 -8 13 -17 15 -15 4 -14 6 5 12 23 7 24 11 17 64 -8 63 -12 72 -25 51 -7
-12 -10 -9 -10 12 0 22 4 25 23 21 16 -3 18 -2 8 5 -10 8 -9 12 9 25 l22 15
-24 8 c-22 7 -22 7 -3 15 15 6 16 8 4 8 -18 1 -33 27 -23 42 3 5 0 9 -7 9 -7
0 -4 7 7 15 16 13 16 14 2 9 -10 -3 -18 -1 -18 5 0 6 5 11 10 11 6 0 9 10 9
23 -1 16 -2 18 -6 5 -2 -10 -9 -18 -14 -18 -5 0 -9 -12 -9 -26 0 -14 -4 -22
-10 -19 -12 7 -10 55 4 73 7 9 6 16 -4 22 -8 5 -11 18 -7 38 4 21 2 32 -8 36
-9 3 -15 -3 -18 -17 -4 -19 -4 -18 -6 5 0 14 5 29 12 31 6 3 2 6 -10 6 -25 1
-39 -15 -21 -22 9 -4 10 -6 1 -6 -20 -2 -25 18 -9 35 9 9 14 20 11 25 -7 11
-26 12 -23 2 1 -5 -3 -18 -10 -29 -6 -12 -8 -24 -5 -28 3 -3 2 -6 -4 -6 -6 0
-13 9 -16 20 -3 11 -2 20 3 20 4 0 10 9 13 20 4 14 0 20 -11 20 -15 0 -15 2
-2 10 9 6 10 10 3 10 -6 0 -14 -4 -17 -8 -4 -8 -14 -8 -58 -3 -4 1 -3 12 2 25
7 18 5 28 -6 37 -13 10 -17 10 -24 0 -10 -18 -31 -5 -23 14 3 8 0 15 -7 15 -6
0 -8 -5 -4 -11 4 -7 1 -10 -7 -7 -29 10 -14 33 24 36 50 4 47 22 -4 22 -24 0
-38 4 -34 10 3 6 2 10 -3 10 -6 0 -8 10 -4 23 5 19 3 20 -11 9 -13 -11 -17
-10 -27 7 -6 12 -16 21 -23 21 -7 0 -6 -4 3 -10 17 -11 16 -11 -27 -15 -28 -2
-31 0 -28 25 4 33 -9 59 -18 36 -4 -9 -2 -16 4 -16 6 0 8 -4 5 -9 -3 -5 -15
-7 -26 -4 -11 3 -20 0 -20 -6 0 -18 -19 -12 -31 10 -8 15 -8 19 0 15 6 -4 11
0 12 11 0 10 3 13 6 6 8 -21 33 -15 33 7 0 17 -5 19 -24 14 -34 -8 -57 7 -28
17 12 5 22 13 22 18 0 7 -9 7 -25 1 -16 -6 -25 -6 -25 0 0 6 5 10 10 10 6 0
10 7 10 15 0 8 -4 15 -10 15 -5 0 -10 -4 -10 -10 0 -5 -7 -10 -15 -10 -8 0
-15 5 -15 10 0 6 4 10 9 10 8 0 25 55 23 72 -1 4 7 6 18 5 10 -1 16 -5 14 -9
-3 -4 0 -8 6 -8 6 0 8 -10 4 -27 -4 -16 -3 -25 1 -21 5 4 14 3 22 -3 9 -9 13
-8 13 0 0 6 -5 11 -10 11 -6 0 -9 12 -7 27 4 32 54 53 64 26 3 -8 2 -18 -4
-22 -14 -9 -24 -41 -13 -41 5 0 12 9 15 20 3 11 12 20 20 20 7 0 15 7 18 14 4
11 1 13 -11 10 -11 -4 -13 -3 -5 3 19 14 268 9 297 -7 36 -19 35 -63 -1 -96
-24 -22 -35 -25 -75 -21 -46 4 -61 -4 -36 -19 23 -15 79 -4 113 21 62 48 64
106 3 142 -33 20 -46 21 -252 26 -34 1 -61 7 -63 13 -5 15 63 23 78 9 9 -7 10
-6 5 3 -5 8 2 21 18 33 14 11 26 29 26 40 0 10 4 19 10 19 5 0 9 -3 9 -7 -4
-22 3 -43 17 -57 8 -9 12 -21 8 -27 -4 -8 -3 -9 5 -5 6 4 18 3 25 -3 8 -6 28
-10 46 -9 47 4 90 64 90 125 0 42 -39 125 -58 121 -4 0 -15 2 -25 7 -22 9 -85
-18 -92 -40 -3 -8 -8 -23 -12 -32 -3 -10 -5 -21 -5 -25 1 -5 -3 -8 -9 -8 -7 0
-10 13 -7 35 3 25 1 32 -8 24 -14 -11 -28 16 -17 33 3 7 1 8 -5 4 -6 -4 -19 1
-29 11 -10 10 -26 17 -36 15 -11 -2 -17 3 -18 15 0 14 -2 15 -7 3 -10 -22 -72
-24 -88 -3 -7 10 -14 14 -14 10 0 -10 -30 19 -30 29 0 5 5 3 11 -3 8 -8 17 -5
31 9 17 17 18 22 7 29 -12 8 -12 10 0 18 9 6 10 11 2 15 -6 4 -8 12 -5 18 4 7
2 8 -4 4 -7 -4 -10 -22 -7 -42 4 -36 0 -40 -25 -24 -13 9 -13 11 0 21 10 7 11
12 4 15 -6 3 -20 11 -30 19 -18 15 -18 15 1 9 17 -6 18 -5 7 7 -11 12 -16 11
-29 -6 -11 -14 -14 -15 -10 -4 5 15 -9 17 -131 17 -75 0 -145 -5 -156 -10 -12
-7 -22 -6 -29 1 -7 7 -14 7 -24 0 -10 -9 -13 -8 -13 1 0 9 -7 7 -22 -6 -19
-15 -20 -16 -9 -1 12 15 11 17 -8 17 -15 0 -20 -4 -15 -12 6 -10 5 -10 -7 -1
-15 12 -43 12 -55 0 -4 -3 -20 1 -36 9 -17 9 -27 11 -24 6 4 -6 2 -13 -4 -17
-5 -3 -10 -2 -10 4 0 10 -18 10 -37 -2 -6 -4 -14 -3 -17 2 -4 5 -32 9 -64 9
-74 1 -74 1 -68 10 2 4 34 8 70 8 35 0 63 -3 60 -7z m-799 -140 c2 -41 9 -103
15 -138 6 -35 9 -70 6 -77 -3 -7 2 -15 10 -18 8 -3 14 -15 14 -26 0 -16 6 -20
35 -20 24 0 35 -5 35 -15 0 -8 5 -15 10 -15 12 0 9 22 -5 32 -5 4 -20 8 -33 8
-13 0 -21 4 -18 8 3 5 23 7 45 5 35 -2 41 0 41 16 0 18 27 37 38 26 3 -3 0 -5
-7 -5 -7 0 -9 -5 -5 -11 3 -6 0 -15 -7 -20 -11 -7 -11 -9 3 -9 17 0 35 -36 24
-47 -3 -4 -6 -1 -6 5 0 7 -4 12 -10 12 -18 0 -10 -32 9 -37 11 -3 22 -12 25
-21 3 -10 9 -23 12 -30 4 -8 0 -10 -10 -6 -12 5 -16 0 -16 -20 0 -20 -4 -24
-17 -19 -12 4 -10 -1 7 -17 25 -23 25 -23 2 -17 -12 3 -20 2 -17 -3 3 -4 6
-28 6 -53 2 -37 5 -44 18 -39 14 5 14 4 -1 -11 -13 -14 -35 -17 -107 -17 l-91
0 0 70 c0 56 -4 73 -20 88 -16 14 -19 28 -16 63 3 24 5 116 7 204 2 229 15
310 24 154z m1836 -86 c16 -19 24 -167 9 -158 -6 4 -10 -3 -10 -13 0 -15 -5
-19 -20 -15 -23 6 -52 42 -44 54 2 4 0 10 -4 13 -10 6 -5 77 8 112 11 28 41
32 61 7z m-1847 -453 l1 -65 75 -5 c78 -5 85 -23 7 -20 -65 3 -79 1 -72 -10 3
-5 33 -10 66 -10 35 0 73 -7 91 -16 28 -15 30 -15 25 0 -5 13 2 16 46 16 37 0
48 -3 37 -10 -8 -5 -11 -10 -6 -10 4 0 1 -11 -8 -24 -15 -23 -14 -25 4 -31 11
-3 17 -12 14 -20 -4 -10 0 -12 15 -8 12 3 21 1 21 -6 0 -11 -18 -15 -51 -12
-10 1 -16 -6 -16 -16 0 -40 -4 -52 -20 -69 -17 -17 -17 -18 0 -11 13 5 17 3
15 -5 -3 -7 -11 -13 -19 -13 -8 0 -14 -10 -14 -25 0 -16 5 -24 14 -22 9 2 11
-3 7 -14 -3 -9 -1 -23 5 -30 6 -7 8 -18 4 -24 -9 -15 -25 -12 -19 4 3 8 1 17
-5 21 -6 3 -11 1 -11 -4 0 -6 -7 -11 -15 -11 -9 0 -15 -9 -15 -25 0 -18 5 -25
19 -25 11 0 23 -5 26 -10 4 -6 11 -7 17 -4 7 4 8 2 4 -5 -4 -6 -2 -19 5 -27
11 -14 10 -15 -11 -12 -35 5 -35 -18 0 -26 38 -7 62 -29 54 -50 -3 -9 1 -23
10 -31 19 -19 20 -31 4 -41 -15 -9 -40 26 -34 49 5 19 4 19 -18 11 -9 -3 -16
-12 -16 -19 0 -7 -6 -15 -12 -18 -7 -2 -9 -8 -5 -13 4 -5 12 -2 17 6 8 13 11
12 24 -5 8 -11 12 -23 10 -27 -3 -5 0 -8 6 -8 7 0 10 -7 6 -15 -3 -8 -2 -23 2
-32 5 -14 8 -9 12 16 3 19 12 37 20 39 13 5 13 3 1 -12 -11 -13 -11 -20 -3
-28 9 -9 12 -9 12 1 0 7 4 10 9 7 9 -6 -10 -76 -21 -76 -5 0 -8 -8 -8 -17 0
-15 4 -13 20 7 14 18 20 20 20 9 0 -22 -39 -61 -56 -55 -8 3 -14 1 -14 -3 0
-5 7 -12 16 -15 8 -3 13 -10 9 -15 -3 -6 4 -15 16 -21 16 -9 19 -17 14 -37 -5
-21 -3 -24 10 -19 16 6 25 -1 54 -37 12 -15 12 -17 -4 -11 -16 6 -17 3 -11
-22 5 -21 4 -25 -4 -14 -5 8 -10 11 -10 6 0 -5 -6 -4 -12 2 -25 19 -46 -1 -39
-40 0 -4 15 -3 31 2 32 9 36 5 20 -20 -7 -11 -10 -11 -10 -2 0 7 -5 10 -11 6
-7 -4 -10 -27 -7 -59 4 -49 3 -52 -14 -42 -10 7 -18 15 -18 19 0 5 -4 8 -10 8
-5 0 -7 -8 -4 -17 4 -11 3 -14 -3 -7 -4 6 -23 19 -40 29 -22 13 -33 27 -33 42
0 13 -5 23 -11 23 -6 0 -8 9 -4 21 5 15 4 19 -4 15 -18 -11 -13 6 7 20 16 13
16 14 -1 8 -16 -6 -17 -3 -11 22 4 16 12 33 18 37 8 6 7 10 -1 14 -7 2 -13 11
-13 19 0 8 -4 14 -10 14 -5 0 -7 6 -4 14 3 7 -6 20 -20 30 -31 20 -36 20 -36
0 0 -8 4 -13 9 -9 13 8 18 -3 26 -61 l7 -52 -34 -11 c-18 -6 -50 -13 -70 -15
-21 -2 -42 -7 -48 -11 -6 -3 -10 4 -10 17 0 35 -20 98 -30 98 -6 0 -10 -18
-10 -40 0 -22 4 -40 9 -40 16 0 20 -43 6 -69 -11 -23 -19 -108 -27 -293 -1
-27 -6 -48 -11 -48 -5 0 -7 51 -3 123 3 67 8 250 12 407 3 157 9 373 13 480 5
107 8 204 8 215 0 11 1 92 2 180 2 125 5 155 13 135 6 -14 11 -54 12 -90z
m889 -435 c57 -24 73 -75 42 -135 -15 -29 -26 -35 -84 -45 -49 -8 -51 -11 -51
-65 0 -48 0 -48 -32 -47 l-33 2 1 85 c0 47 1 115 2 153 l2 67 59 0 c32 0 75
-7 94 -15z m167 -145 l0 -150 -35 0 -35 0 0 150 0 150 35 0 35 0 0 -150z m189
53 c25 -50 48 -92 51 -92 3 -1 5 41 5 91 l0 93 30 0 30 0 0 -135 c1 -74 -3
-143 -7 -152 -9 -18 -45 -21 -65 -5 -7 5 -35 55 -63 110 l-50 100 0 -106 0
-107 -33 0 -33 0 2 53 c1 28 2 96 3 150 l1 98 41 -3 42 -3 46 -92z m359 65
c-3 -32 -3 -33 -58 -33 -52 0 -55 -1 -55 -25 0 -23 5 -25 50 -30 45 -5 50 -7
50 -30 0 -23 -5 -25 -50 -30 -48 -5 -50 -6 -50 -35 0 -29 2 -30 45 -31 72 -2
72 -2 68 -31 l-3 -28 -93 -2 -93 -2 2 147 c1 81 3 150 6 155 2 4 45 7 94 7
l90 0 -3 -32z m-557 -518 c76 -39 101 -129 59 -216 -45 -92 -181 -104 -237
-21 -46 67 -39 158 15 212 49 50 99 57 163 25z m196 -137 c-2 -135 -4 -147
-22 -153 -11 -4 -28 -5 -38 -2 -17 4 -18 15 -13 141 2 75 5 142 5 149 1 7 15
12 36 12 l35 0 -3 -147z m124 135 c0 -7 0 -61 -1 -120 l-1 -108 38 -1 c21 -1
45 -1 54 0 21 2 32 -25 20 -48 -10 -17 -24 -18 -153 -12 l-28 1 0 150 0 150
35 0 c21 0 35 -5 36 -12z m-1182 -218 c-15 -4 -16 -7 -4 -24 8 -10 18 -16 23
-13 4 4 16 -3 26 -14 10 -13 26 -19 41 -17 13 2 23 -1 22 -7 -1 -5 -12 -9 -24
-7 -20 2 -22 -1 -17 -26 4 -18 1 -32 -6 -37 -16 -10 -26 3 -12 17 16 16 15 28
-3 28 -8 0 -15 -5 -15 -12 0 -6 -3 -9 -6 -6 -3 4 0 16 6 28 13 25 4 42 -10 20
-8 -13 -10 -12 -10 3 0 9 -4 17 -10 17 -12 0 -12 -2 0 -35 8 -22 7 -25 -7 -23
-11 2 -19 -6 -23 -22 -7 -28 -26 -32 -102 -20 -26 4 -52 4 -59 0 -7 -5 6 -11
30 -15 47 -8 51 -31 5 -29 -69 3 -67 2 -60 34 8 42 53 96 106 127 25 15 51 33
58 40 8 7 18 11 23 8 5 -4 9 2 9 11 0 16 2 16 18 -2 18 -18 18 -19 1 -24z
m2484 -393 c4 2 13 1 20 -4 6 -4 17 -8 24 -9 6 -1 53 -12 105 -23 51 -12 110
-22 131 -23 20 -1 42 -7 48 -14 6 -7 16 -11 23 -8 7 3 19 -2 26 -11 7 -8 19
-15 28 -15 8 0 13 -3 10 -6 -4 -3 -21 -1 -40 4 -38 10 -58 -3 -58 -38 0 -13
-9 -24 -25 -30 -15 -6 -23 -15 -19 -24 5 -14 -8 -15 -113 -8 -13 1 -23 8 -23
16 0 8 -10 22 -21 30 -19 13 -20 16 -7 30 11 11 18 12 26 4 7 -7 14 -9 17 -6
11 10 -46 39 -65 33 -25 -8 -26 -43 -2 -61 16 -13 16 -14 0 -8 -12 4 -18 1
-18 -10 0 -19 -11 -21 -28 -4 -9 9 -13 8 -17 -4 -5 -13 -13 -13 -60 -2 -30 6
-64 10 -75 7 -11 -3 -20 -1 -20 4 0 5 -16 9 -36 8 -19 0 -37 2 -40 6 -2 4 -23
6 -46 5 -24 -1 -51 2 -60 6 -12 6 -18 5 -19 -4 -1 -21 -18 25 -18 50 -1 16 3
21 12 16 10 -6 10 -4 0 7 -7 7 -13 27 -13 44 0 23 3 26 10 15 8 -12 10 -10 10
9 0 21 2 22 17 10 10 -8 14 -9 10 -2 -10 16 57 20 193 12 58 -4 108 -4 113 -2z
m-1277 -172 c7 -9 9 -26 6 -38 -5 -21 -4 -21 16 3 17 21 18 26 6 33 -27 15
-14 27 30 27 25 0 48 -4 51 -10 3 -5 -2 -10 -12 -10 -15 0 -16 -2 -3 -10 13
-8 12 -10 -2 -10 -21 0 -25 -36 -5 -43 9 -4 8 -8 -3 -16 -20 -14 -63 -14 -77
0 -8 8 -17 8 -29 1 -23 -13 -61 4 -70 31 -3 11 -1 30 6 42 10 18 19 22 44 19
17 -2 36 -11 42 -19z m-1225 -648 c24 -7 78 -14 119 -16 41 -1 78 -6 82 -10 4
-3 -10 -5 -32 -3 -35 4 -39 2 -33 -14 4 -11 8 -13 11 -6 2 7 11 12 19 12 13 0
13 -3 3 -15 -7 -8 -10 -22 -6 -30 3 -8 0 -15 -7 -15 -7 0 -2 -8 9 -18 12 -9
24 -24 27 -32 4 -11 6 -9 7 5 1 17 3 16 16 -7 10 -19 23 -28 39 -28 13 0 27
-5 30 -11 4 -6 13 -8 21 -5 7 3 16 0 20 -5 3 -6 15 -9 25 -6 10 3 22 1 25 -5
4 -6 25 -8 50 -4 24 3 46 1 49 -4 3 -6 25 -10 48 -10 23 0 49 -5 57 -10 12 -8
9 -10 -12 -10 -15 0 -39 -5 -53 -10 -15 -6 -100 -12 -188 -15 -151 -4 -212
-10 -262 -23 -19 -4 -46 -5 -107 -2 -35 2 -40 32 -29 175 4 61 6 116 4 123 -6
15 12 15 68 -1z m913 -359 c45 -9 60 -16 66 -34 6 -15 15 -21 28 -18 10 3 25
-2 32 -11 13 -16 9 -17 -43 -13 -31 2 -57 1 -57 -2 0 -12 -349 37 -367 51 -20
17 -16 31 6 20 10 -6 21 -7 25 -4 3 3 34 5 69 4 34 -1 73 2 87 8 34 13 86 13
154 -1z"/>
<path d="M5851 2714 c-23 -29 -29 -101 -11 -134 39 -72 134 -18 125 70 -1 14
-3 31 -4 38 -2 21 -40 52 -65 52 -15 0 -33 -11 -45 -26z"/>
<path d="M6656 6993 c-3 -10 -6 -139 -6 -288 -1 -148 -3 -342 -5 -430 -3 -172
-2 -175 48 -175 l28 0 -3 434 c-3 434 -3 435 -25 455 -27 25 -30 26 -37 4z"/>
<path d="M6747 6974 c-2 -11 -5 -183 -6 -384 0 -201 -2 -393 -4 -427 -5 -65 0
-73 44 -73 20 0 20 6 15 432 -4 412 -5 432 -24 451 -19 19 -20 19 -25 1z"/>
<path d="M6820 6670 c-1 -168 -2 -368 -3 -445 -2 -138 -2 -140 21 -143 l22 -3
0 425 c-1 404 -2 426 -20 448 -19 23 -19 20 -20 -282z"/>
<path d="M6880 6505 c0 -390 2 -435 16 -435 14 0 15 41 13 408 -2 410 -4 462
-20 462 -5 0 -9 -193 -9 -435z"/>
<path d="M1724 5525 c-9 -34 3 -75 22 -75 8 0 12 -4 9 -10 -3 -5 -2 -10 3 -10
6 0 13 -11 16 -25 7 -26 20 -32 31 -15 10 15 25 12 25 -6 0 -24 25 -43 54 -40
18 2 26 -1 26 -12 0 -8 3 -12 6 -9 14 13 47 -47 61 -110 11 -48 20 -67 34 -70
14 -4 19 -14 19 -37 0 -17 6 -48 14 -69 11 -33 14 -36 21 -20 4 10 8 27 9 38
1 16 9 21 38 23 27 2 35 7 31 18 -3 8 1 14 8 14 10 0 10 3 3 8 -12 8 -28 92
-18 92 16 0 73 -52 79 -71 4 -13 12 -18 21 -15 8 3 13 2 9 -3 -3 -5 1 -12 7
-14 10 -4 9 -8 -2 -17 -12 -9 -10 -11 12 -6 14 3 34 9 45 12 14 5 15 4 4 -4
-13 -9 -11 -14 10 -31 13 -11 28 -20 32 -21 5 0 6 -4 2 -9 -9 -16 15 -24 30
-11 12 10 15 9 15 -4 0 -9 -4 -16 -10 -16 -5 0 -10 -6 -10 -12 1 -7 9 -3 20
10 15 18 25 21 52 17 18 -3 38 -12 44 -20 6 -8 16 -15 22 -15 6 0 12 -4 14 -9
5 -15 41 -17 46 -2 3 10 0 12 -12 8 -25 -10 -19 8 9 23 14 7 31 23 39 35 14
22 35 25 69 10 24 -10 31 -1 23 30 -6 23 -10 25 -44 19 -32 -5 -45 0 -89 30
-28 19 -73 41 -100 47 -26 7 -59 20 -73 29 -14 9 -52 27 -85 39 -33 12 -69 28
-80 34 -58 32 -137 67 -173 76 -23 7 -66 33 -99 61 -32 27 -74 57 -93 66 -19
9 -51 30 -71 45 -45 36 -67 37 -75 4z"/>
<path d="M1509 4808 c-9 -7 -26 -53 -37 -101 -24 -98 -26 -111 -13 -103 5 3
15 -14 22 -39 10 -34 16 -42 26 -33 7 5 11 14 8 18 -3 5 11 38 30 74 47 88 46
125 -3 140 -17 6 -21 12 -16 32 7 27 4 29 -17 12z"/>
<path d="M523 3894 c-32 -16 -44 -34 -23 -34 5 0 7 -12 5 -27 -13 -79 -13 -93
3 -102 11 -6 16 -26 17 -73 1 -36 6 -71 11 -79 10 -17 23 -119 13 -114 -14 10
-50 -43 -45 -66 3 -13 9 -36 12 -51 3 -15 3 -44 0 -63 -6 -31 -10 -35 -37 -35
-23 0 -32 5 -36 21 -4 16 -12 20 -29 16 -18 -3 -24 0 -24 14 0 11 -7 19 -16
19 -12 0 -14 3 -6 13 13 16 9 101 -7 140 -6 16 -9 33 -5 38 3 5 0 9 -7 9 -8 0
-6 6 5 18 13 16 16 34 12 108 -5 100 -7 110 -24 140 -6 12 -9 23 -7 26 3 3 -1
5 -7 5 -17 0 -19 -22 -24 -207 -2 -85 -7 -186 -10 -225 -8 -98 10 -302 31
-346 15 -31 57 -72 54 -52 -1 5 -1 17 1 28 l1 20 9 -20 c7 -16 9 -13 9 17 1
20 -4 38 -11 41 -10 3 -10 7 -1 17 9 10 9 17 0 33 -9 15 -9 21 1 24 6 3 12 11
12 20 0 12 8 13 40 8 26 -4 40 -3 40 4 0 6 7 11 15 11 8 0 15 -9 15 -20 0 -11
7 -20 15 -20 9 0 15 -9 15 -23 0 -13 4 -27 10 -33 5 -5 11 -25 12 -44 3 -33 1
-34 -37 -41 -22 -4 -42 -4 -45 0 -3 3 -15 7 -28 8 -21 3 -23 -1 -20 -33 2 -24
10 -41 23 -48 11 -6 22 -14 25 -17 12 -15 73 -21 80 -8 7 10 11 10 24 0 20
-17 146 -11 146 7 0 7 12 12 28 12 77 0 97 5 97 23 0 10 8 23 18 28 12 7 17 7
17 -1 0 -16 22 -35 48 -42 24 -7 52 22 52 54 0 9 9 22 19 28 13 6 22 26 27 55
4 28 11 45 20 45 8 0 14 7 14 16 0 13 6 15 28 10 15 -4 34 -7 44 -7 9 0 19
-12 23 -27 16 -69 38 -112 57 -112 11 0 29 -5 40 -11 14 -8 23 -8 31 0 6 6 18
11 27 11 9 0 22 11 28 25 11 25 32 34 32 15 0 -15 51 -45 58 -34 4 5 16 11 27
12 11 2 26 9 33 14 7 6 32 8 57 6 29 -4 51 -1 62 8 22 17 50 18 55 2 3 -9 20
-7 64 5 33 9 70 17 83 17 18 0 21 4 17 23 -3 12 -3 17 -1 11 4 -6 28 -9 63 -7
72 5 104 12 98 21 -2 4 16 7 41 7 24 0 47 3 49 7 3 5 18 8 35 8 16 0 29 5 29
11 0 5 4 8 9 5 5 -3 28 1 50 9 23 8 39 10 36 5 -4 -6 2 -13 11 -17 12 -4 22 1
32 15 8 12 21 22 29 22 8 0 12 4 9 9 -6 9 27 42 57 58 17 9 17 11 -5 27 -13 9
-57 33 -98 54 -56 28 -75 42 -75 57 0 43 66 81 126 71 26 -4 46 -2 55 5 8 6
14 8 14 4 0 -4 12 4 26 18 28 29 27 58 -3 51 -12 -3 -23 5 -35 26 -9 16 -13
30 -8 30 6 0 10 7 10 15 0 9 6 12 15 9 11 -5 15 1 15 24 0 17 6 32 15 36 17 6
21 76 4 76 -5 0 -7 5 -3 11 3 6 2 21 -4 32 -6 12 -12 29 -15 38 -6 17 -81 34
-108 24 -27 -10 -124 -12 -136 -3 -7 6 -90 12 -185 14 -95 3 -216 6 -268 9
-418 21 -435 21 -477 7 -24 -8 -43 -18 -43 -23 0 -5 -9 -4 -20 3 -16 11 -23 9
-40 -10 -11 -12 -16 -22 -10 -22 5 0 10 -6 10 -14 0 -8 7 -17 16 -20 13 -5 13
-9 -3 -31 -14 -19 -26 -24 -53 -22 -37 2 -40 4 -83 41 -31 27 -32 47 -2 60 16
7 17 9 5 13 -8 3 -23 12 -32 20 -12 11 -38 14 -95 12 -43 -1 -136 1 -208 5
-112 6 -135 5 -162 -10z"/>
<path d="M3846 3325 c-15 -8 -45 -15 -66 -15 -36 0 -67 -20 -53 -33 3 -4 0 -7
-7 -7 -21 0 -40 -33 -28 -47 6 -8 7 -13 1 -13 -6 0 -11 -12 -11 -27 -2 -65
-12 -181 -18 -218 -11 -70 -10 -80 6 -77 12 3 13 1 3 -9 -7 -7 -13 -23 -13
-34 0 -12 -3 -24 -6 -28 -4 -3 -7 -39 -6 -79 0 -40 -5 -78 -10 -85 -5 -6 -8
-17 -7 -25 1 -7 -3 -26 -9 -41 -7 -16 -13 -44 -15 -62 -1 -18 -5 -31 -8 -29
-4 2 -9 -18 -12 -43 -3 -26 -10 -49 -16 -51 -6 -2 -11 -18 -11 -36 0 -18 -3
-36 -6 -39 -7 -7 -43 -106 -44 -119 0 -11 73 -29 80 -20 3 5 22 16 42 25 20
10 40 22 43 27 3 6 13 10 21 10 8 0 22 8 32 18 41 41 59 127 63 297 1 66 6
128 11 138 5 10 5 17 -1 17 -12 0 -3 67 13 95 6 11 11 27 11 35 1 8 6 14 13
12 15 -3 15 0 2 32 -6 17 -6 26 0 26 6 0 10 9 10 21 0 13 -4 18 -12 14 -7 -4
-4 1 6 9 11 9 21 24 22 33 8 56 53 162 82 191 17 18 33 49 42 83 17 58 -72 91
-144 54z"/>
<path d="M1155 2062 c-47 -3 -75 -15 -75 -32 0 -26 202 -48 505 -55 132 -3
276 -10 320 -15 224 -26 745 -18 745 11 0 5 -5 9 -11 9 -5 0 -7 5 -4 10 3 6 1
10 -4 10 -6 0 -20 9 -31 20 -16 16 -41 22 -113 29 -104 10 -759 7 -776 -3 -6
-4 -86 -2 -178 4 -223 13 -318 17 -378 12z"/>
</g>
</svg>
