<?xml version="1.0" standalone="no"?>
<!DOCTYPE svg PUBLIC "-//W3C//DTD SVG 20010904//EN"
 "http://www.w3.org/TR/2001/REC-SVG-20010904/DTD/svg10.dtd">
<svg version="1.0" xmlns="http://www.w3.org/2000/svg"
 width="1024.000000pt" height="1536.000000pt" viewBox="0 0 1024.000000 1536.000000"
 preserveAspectRatio="xMidYMid meet">
<metadata>
Created by potrace 1.15, written by Peter Selinger 2001-2017
</metadata>
<g transform="translate(0.000000,1536.000000) scale(0.100000,-0.100000)"
fill="#000000" stroke="none">
<path d="M0 15040 c0 -176 3 -320 8 -320 4 0 17 -3 28 -6 19 -5 21 -2 17 20
-3 14 -10 26 -15 26 -5 0 -7 4 -3 10 3 5 12 7 20 4 7 -3 24 0 36 7 23 12 23
12 4 20 -14 5 -15 8 -5 9 8 1 26 3 40 4 14 2 29 -2 33 -8 5 -7 7 -3 5 9 -2 11
-11 19 -21 19 -11 -1 -16 5 -14 20 3 26 28 46 65 50 15 2 30 4 35 5 4 0 7 10
7 21 0 13 7 20 20 20 24 0 26 25 3 39 -14 7 -15 12 -5 23 6 8 9 18 5 21 -3 4
13 25 36 47 22 22 35 40 29 40 -7 0 -5 5 5 11 13 8 21 6 33 -5 17 -18 28 -21
19 -7 -8 14 9 21 25 10 13 -7 13 -9 0 -9 -8 -1 -2 -8 13 -16 30 -16 52 -10 27
7 -12 8 -9 9 10 7 20 -2 25 1 25 22 0 14 6 31 13 39 12 12 11 16 -2 23 -20 11
-21 28 -1 28 20 0 19 8 -5 48 l-21 34 32 -7 c28 -6 31 -5 25 10 -3 10 -1 24 5
31 10 12 -31 14 -260 14 l-271 0 0 -320z"/>
<path d="M4819 11039 c-387 -13 -598 -46 -670 -106 -37 -32 -64 -88 -73 -155
-4 -26 -12 -50 -17 -54 -6 -3 -68 -10 -139 -14 -149 -10 -184 -23 -207 -78
-24 -56 -29 -196 -10 -283 24 -109 32 -567 12 -652 -29 -121 -17 -182 43 -219
56 -35 67 -72 65 -240 -1 -140 -16 -254 -63 -463 -5 -22 -6 -43 -2 -47 4 -4
44 -9 89 -10 79 -3 83 -2 113 27 17 17 49 66 71 109 38 77 39 81 33 153 -5 52
-3 73 5 73 6 0 11 10 11 23 0 12 9 30 20 40 11 9 20 23 20 31 0 8 7 19 16 24
21 12 53 129 61 225 l6 77 -31 11 -31 10 17 44 c10 28 23 45 36 48 39 9 163 8
188 -2 16 -6 29 -6 35 0 5 5 49 9 98 7 l88 -3 0 -43 c0 -23 -3 -45 -6 -48 -3
-4 -45 -3 -92 1 -81 6 -85 8 -85 31 0 13 -4 24 -9 24 -13 0 -20 -63 -9 -77 6
-7 4 -13 -4 -15 -9 -3 -9 -6 -1 -11 7 -5 17 1 23 13 9 16 20 20 63 19 116 -1
177 -30 132 -63 -11 -8 -16 -18 -12 -22 4 -5 12 -3 16 5 6 9 10 4 14 -16 3
-15 1 -30 -3 -33 -5 -3 -8 -39 -6 -80 2 -41 -1 -81 -6 -87 -6 -7 -8 -13 -5
-13 2 0 -2 -30 -9 -66 -8 -36 -12 -69 -9 -73 5 -10 -16 -81 -25 -81 -6 0 -8
-8 -12 -50 -1 -11 -5 -20 -8 -20 -9 0 -80 -150 -80 -170 0 -15 17 -12 24 5 3
8 11 15 18 15 7 0 23 15 36 34 l23 33 88 -5 89 -5 46 47 c43 44 66 52 66 22 0
-15 47 -39 61 -30 5 3 7 9 4 14 -3 4 2 10 10 14 8 3 15 16 15 29 0 28 -34 72
-49 62 -6 -3 -11 -1 -11 5 0 7 -11 25 -25 42 -30 35 -32 61 -6 87 27 27 45 62
35 70 -5 3 -14 15 -21 27 -9 17 -8 23 9 35 11 8 24 24 28 35 5 14 28 28 61 40
30 11 54 26 57 36 2 10 8 16 12 13 10 -6 8 15 -3 32 -4 7 0 14 11 17 10 3 18
16 19 28 1 12 11 34 22 49 l20 27 -32 13 c-18 8 -42 12 -54 11 -24 -4 -53 18
-53 40 -1 8 -6 6 -15 -6 -15 -19 -15 -19 -15 2 0 12 1 22 3 22 51 0 183 26
216 42 l43 22 37 -21 c34 -19 112 -39 138 -35 7 2 9 -6 6 -19 -4 -16 -8 -17
-14 -7 -6 9 -9 2 -9 -19 0 -25 -5 -32 -21 -35 -17 -2 -25 -14 -34 -50 -7 -27
-10 -48 -7 -48 2 0 -1 -7 -8 -15 -7 -8 -10 -21 -7 -29 3 -8 -1 -17 -9 -20 -8
-3 -14 -10 -14 -17 0 -6 6 -9 13 -6 24 9 104 -13 123 -34 23 -25 54 -25 54 1
0 11 -4 20 -10 20 -5 0 -8 6 -6 13 3 6 7 24 10 40 6 26 5 27 -41 27 -33 0 -43
3 -33 9 8 6 26 7 41 4 29 -5 38 3 45 44 6 34 7 35 38 37 14 0 26 5 26 9 0 5
-8 7 -17 6 -38 -5 -52 10 -46 49 3 20 11 40 17 44 6 4 96 8 200 8 l189 0 -6
-77 c-3 -43 -3 -69 0 -58 3 11 9 25 13 30 4 6 11 31 14 57 l7 46 57 5 c49 4
137 24 152 35 24 17 -121 21 -805 22 -813 0 -995 4 -1032 24 l-23 11 25 29
c17 20 23 36 19 52 -10 38 39 52 226 68 155 12 160 13 73 15 -55 0 -93 5 -93
11 0 6 32 10 76 10 43 0 73 4 70 9 -4 5 -63 9 -134 10 -70 0 -133 0 -139 1 -7
0 -13 7 -13 15 0 20 62 35 140 33 36 -1 100 6 143 15 45 10 93 15 112 11 43
-8 63 3 38 20 -12 9 -73 13 -188 14 -277 3 -314 18 -100 41 61 7 124 15 140
18 17 3 46 5 65 5 35 -1 132 38 157 64 11 11 10 15 -4 23 -14 8 -8 10 28 11
38 0 48 4 52 20 3 13 0 20 -9 20 -8 0 -14 5 -14 10 0 6 -10 8 -23 5 -35 -9
-137 32 -137 55 0 10 -6 21 -12 23 -10 4 -10 6 0 6 6 1 12 8 12 16 0 10 -9 13
-36 10 -23 -3 -40 0 -50 10 -12 12 -12 15 -2 15 10 0 9 3 -2 10 -12 8 -9 10
12 10 15 0 30 -5 34 -12 5 -8 10 -7 18 4 6 8 40 22 76 29 53 12 66 18 68 35 3
22 3 22 -178 40 -67 6 -69 7 -65 15 3 4 33 10 67 13 95 10 149 27 136 43 -8
10 -2 13 28 14 22 1 50 4 63 8 l23 6 -26 14 c-36 20 -39 41 -32 183 4 93 9
124 20 130 8 5 22 15 30 23 10 10 17 12 21 5 9 -15 12 -349 3 -344 -5 3 -8 0
-8 -5 0 -6 16 -11 35 -11 l34 0 -21 36 c-22 37 -22 38 -5 312 0 6 3 12 6 13
101 14 378 15 424 2 25 -7 47 -62 47 -119 0 -65 8 -52 12 19 1 31 6 57 10 57
5 0 8 7 8 16 0 14 -3 14 -16 3 -13 -10 -17 -10 -24 2 -8 11 -1 15 32 17 67 5
71 -4 72 -174 1 -147 1 -148 -23 -160 -29 -15 -48 -9 -57 18 -6 19 -6 19 -29
-2 -29 -27 -71 -29 -90 -4 -8 11 -15 14 -15 8 0 -21 -48 -34 -93 -25 -31 5
-46 4 -55 -6 -11 -11 -4 -13 35 -14 158 -4 290 -16 297 -28 3 -4 21 -7 40 -6
19 0 33 -2 30 -6 -2 -4 24 -10 59 -14 34 -5 73 -10 87 -12 14 -2 79 -8 145
-13 118 -11 134 -14 122 -26 -5 -5 -359 -18 -424 -15 -15 0 -23 -5 -23 -15 0
-11 6 -13 20 -9 14 5 20 2 20 -9 0 -12 10 -16 35 -16 19 0 35 -5 35 -11 0 -6
17 -9 43 -8 24 2 48 0 54 -4 7 -4 24 -7 40 -7 15 0 39 0 53 0 38 0 144 -21
155 -30 6 -5 23 -10 40 -12 19 -2 34 -11 41 -26 14 -28 27 -42 18 -19 -5 13
-2 16 11 11 12 -5 16 -2 13 12 -2 11 2 18 10 17 14 -3 16 9 3 23 -5 5 -14 27
-21 49 -7 22 -18 43 -23 47 -6 3 -12 12 -13 20 -1 7 -3 20 -5 28 -3 12 6 15
43 15 69 1 88 25 87 107 0 100 -16 222 -28 226 -6 2 -11 9 -11 16 0 29 -57 76
-115 95 -172 56 -732 88 -1256 70z m31 -253 c0 -98 -4 -157 -11 -161 -5 -4
-21 -4 -35 -1 -24 6 -24 7 -24 137 0 125 1 131 25 154 13 14 29 25 35 25 6 0
10 -54 10 -154z m799 122 c8 -16 11 -66 9 -153 l-3 -130 -25 0 -25 0 -3 130
c-2 71 0 140 3 152 7 29 28 29 44 1z m-907 -10 c3 -7 4 -26 3 -43 -1 -16 -3
-74 -4 -128 l-1 -98 -27 3 -28 3 -3 95 c-3 104 5 172 17 151 6 -9 10 -7 14 8
6 23 22 28 29 9z"/>
<path d="M5763 10304 c-3 -10 -15 -26 -25 -36 -10 -10 -18 -31 -18 -48 0 -19
-7 -33 -19 -40 -27 -14 -41 -13 -41 5 0 8 -5 15 -10 15 -6 0 -13 -7 -16 -15
-8 -20 -63 -20 -70 0 -6 14 -8 13 -19 -1 -8 -12 -18 -15 -31 -10 -12 5 -15 9
-7 14 6 4 11 16 10 26 -2 14 6 19 31 22 18 2 40 11 49 19 19 20 38 14 38 -10
0 -10 6 -20 14 -23 9 -3 11 2 6 17 -5 16 -1 23 17 30 19 8 13 10 -29 10 -29 1
-53 -3 -53 -9 0 -5 -13 -10 -29 -10 -17 0 -33 5 -36 10 -3 6 -11 10 -17 10 -7
0 -6 -6 2 -15 9 -10 9 -15 1 -15 -6 0 -11 -13 -11 -29 0 -27 -21 -61 -39 -61
-4 0 -12 5 -19 12 -8 8 -14 5 -22 -17 -8 -22 -15 -26 -35 -23 -14 3 -25 1 -25
-3 0 -15 57 -10 70 6 17 20 31 19 23 -2 -6 -17 -5 -17 13 -2 20 17 84 31 84
18 0 -4 -11 -10 -25 -13 -24 -6 -36 -36 -15 -36 6 0 10 3 10 8 0 4 15 7 33 7
26 0 31 3 29 19 -3 17 -2 18 12 7 13 -11 16 -11 16 0 0 9 5 7 11 -5 7 -10 14
-14 18 -8 3 5 21 13 40 17 24 5 31 4 27 -4 -5 -7 4 -14 23 -17 17 -4 31 -10
31 -14 0 -15 53 -18 67 -4 17 16 69 19 78 4 4 -7 13 -7 26 0 10 6 19 8 19 4 0
-3 6 -1 14 5 10 8 16 9 21 2 4 -7 13 -7 27 2 16 9 22 9 25 0 6 -16 33 -17 33
-2 0 6 6 9 14 6 16 -7 76 63 77 90 0 16 1 16 8 -2 7 -17 9 -16 13 10 6 29 -7
49 -24 39 -4 -3 -8 3 -8 13 0 15 -2 16 -10 3 -5 -8 -15 -15 -22 -15 -8 0 -15
-18 -19 -45 -4 -28 -7 -34 -7 -17 -1 15 -1 29 1 30 1 2 -5 12 -13 22 -14 17
-16 15 -26 -20 -15 -54 -34 -64 -78 -40 -42 23 -43 26 -16 45 11 8 20 18 20
22 0 4 -9 8 -20 8 -11 0 -20 7 -20 15 0 8 -4 15 -8 15 -14 0 -22 -12 -15 -23
12 -20 10 -77 -5 -89 -12 -11 -14 -6 -11 35 3 33 0 47 -8 47 -7 0 -13 7 -13
15 0 8 -6 15 -14 15 -17 0 -30 -27 -27 -55 3 -18 -1 -17 -27 9 -17 15 -28 34
-26 41 3 7 1 16 -5 20 -6 3 -14 -2 -18 -11z"/>
<path d="M5888 10088 c-3 -8 -38 -15 -94 -20 -87 -8 -134 -14 -144 -19 -3 -1
-31 -3 -62 -4 -45 -1 -61 -6 -73 -21 -13 -17 -14 -17 -15 -1 0 9 -5 17 -11 17
-5 0 -7 -4 -4 -10 3 -5 0 -10 -9 -10 -8 0 -16 4 -18 9 -8 21 -47 21 -67 0 -25
-27 -27 -39 -6 -39 8 0 15 5 15 10 0 17 48 11 59 -7 8 -14 12 -15 25 -4 10 8
27 11 46 7 32 -6 74 -14 127 -22 23 -3 30 -9 26 -19 -3 -9 1 -15 11 -15 10 0
13 6 10 15 -6 14 11 20 45 16 7 -2 10 2 6 8 -3 6 -2 11 3 11 6 0 13 -7 16 -16
5 -13 9 -14 21 -4 11 9 21 8 46 -4 39 -20 43 -20 36 -2 -4 10 -1 13 9 9 7 -3
14 -1 14 4 0 5 16 10 37 11 20 2 41 6 47 10 20 12 35 10 40 -5 5 -12 9 -13 20
-4 10 9 15 8 19 -2 7 -18 64 -30 85 -17 11 6 12 10 4 10 -7 0 -12 6 -11 13 3
18 -11 49 -34 75 -19 20 -27 22 -86 16 -36 -3 -76 -7 -88 -10 -16 -3 -23 0
-23 11 0 18 -17 20 -22 3z"/>
<path d="M5173 9210 c-28 -12 -29 -25 -2 -43 11 -8 19 -23 17 -33 -2 -15 4
-19 31 -20 26 0 41 -8 62 -33 23 -28 30 -31 48 -22 19 10 41 65 41 102 0 41
-81 54 -88 15 -6 -28 -30 -49 -48 -42 -10 4 -14 17 -12 43 3 41 -9 49 -49 33z"/>
<path d="M3627 8508 c-34 -36 -86 -105 -116 -154 -29 -49 -102 -168 -161 -264
-59 -96 -121 -197 -137 -225 -28 -45 -128 -214 -173 -290 -10 -16 -41 -70 -70
-120 -30 -49 -79 -135 -110 -190 -32 -55 -74 -129 -95 -165 -262 -454 -423
-933 -489 -1456 -32 -257 -40 -399 -40 -764 -1 -405 1 -504 14 -735 5 -82 14
-319 19 -525 6 -206 13 -440 16 -520 2 -80 7 -377 10 -660 3 -283 7 -585 10
-670 3 -85 7 -279 10 -430 3 -151 7 -333 10 -405 3 -71 7 -227 11 -345 3 -118
7 -271 9 -340 2 -69 4 -153 4 -187 l1 -63 2580 0 2580 0 1 78 c1 42 2 91 4
107 1 17 5 165 9 330 3 165 9 361 11 435 10 248 34 1062 40 1330 4 146 8 330
10 410 5 193 15 620 18 747 1 56 -1 99 -5 97 -5 -3 -8 2 -8 10 0 8 4 18 10 21
13 8 13 92 0 97 -6 2 -7 16 -1 38 5 19 8 71 7 115 l-2 80 -28 -3 c-24 -3 -26
-1 -17 15 6 10 22 29 36 42 16 14 25 34 25 52 0 34 -8 36 -43 9 -14 -11 -28
-20 -31 -20 -15 0 -4 29 20 50 21 21 27 22 34 10 7 -11 9 -10 7 8 0 12 -7 22
-14 22 -7 0 -13 7 -13 16 0 10 -6 14 -15 11 -28 -11 -25 12 5 40 33 31 56 98
38 109 -6 4 -14 0 -19 -7 -7 -11 -9 -10 -9 4 0 9 -8 17 -17 18 -15 0 -15 2 2
8 27 12 53 42 55 66 4 35 -1 101 -7 88 -5 -15 -33 -18 -33 -4 0 5 9 12 19 16
20 6 35 45 22 58 -4 4 -19 3 -33 -2 -31 -12 -38 -6 -38 30 0 28 15 48 22 29 1
-5 8 -6 15 -2 11 7 7 62 -6 62 -35 -1 -56 -100 -50 -245 4 -107 3 -134 -10
-245 -10 -82 -14 -194 -11 -265 2 -51 -8 -143 -18 -168 -17 -40 -15 -57 7 -57
18 0 19 -7 17 -92 -2 -57 -8 -101 -16 -114 -12 -19 -11 -24 3 -39 9 -9 17 -23
17 -31 0 -21 -29 -74 -40 -74 -16 0 -11 -19 10 -40 17 -17 18 -24 8 -45 -6
-14 -15 -25 -20 -25 -4 0 -8 -13 -8 -30 0 -29 13 -40 25 -20 12 19 25 10 25
-18 0 -18 -12 -41 -35 -65 -46 -49 -48 -81 -3 -40 17 15 20 15 28 3 14 -22 13
-25 -23 -53 -24 -18 -34 -34 -35 -54 0 -27 2 -29 29 -25 40 6 39 -25 -2 -61
-27 -24 -30 -31 -25 -64 4 -23 0 -54 -8 -78 -12 -33 -12 -43 -1 -61 11 -17 11
-26 -1 -53 -13 -30 -27 -148 -24 -196 0 -11 0 -41 0 -67 0 -27 4 -48 10 -48
13 0 13 -53 -1 -67 -9 -9 -15 -80 -23 -298 -2 -49 -7 -98 -11 -108 -4 -11 -2
-29 5 -43 11 -20 10 -30 -5 -65 -15 -31 -16 -45 -8 -59 14 -21 1 -186 -15
-202 -6 -6 -17 -8 -26 -5 -12 5 -14 44 -12 279 2 150 7 317 10 372 5 62 4 96
-2 92 -11 -7 -28 -277 -37 -596 -4 -131 -13 -250 -21 -287 -6 -24 -42 -37 -61
-21 -14 11 -18 68 -5 68 4 0 8 69 10 153 2 143 6 235 16 437 3 47 7 175 11
285 3 110 10 245 15 300 5 55 12 151 15 213 3 63 7 118 11 123 3 5 7 28 10 51
9 71 23 80 24 16 0 -32 5 -58 10 -58 6 0 10 8 10 18 0 10 3 21 6 25 7 6 15 87
13 127 -2 27 -2 30 8 140 3 41 5 102 4 135 0 33 4 72 10 86 7 17 7 34 -1 53
-6 18 -7 34 0 45 5 10 12 121 15 247 11 470 17 638 22 647 12 20 0 555 -17
757 -6 69 -19 202 -30 295 -17 149 -25 289 -20 320 8 44 81 -389 85 -505 1
-30 7 -84 13 -120 6 -36 12 -129 14 -207 2 -122 4 -143 17 -143 19 0 21 48 21
385 -1 391 -8 519 -32 593 -12 37 -23 85 -24 107 -3 46 -20 165 -25 170 -4 3
-82 8 -106 6 -7 -1 -18 -19 -24 -41 -14 -47 -22 -49 -52 -14 l-23 26 -52 -18
c-29 -10 -52 -22 -52 -26 0 -5 -11 -8 -25 -8 -18 0 -28 8 -36 28 -6 15 -20 46
-31 69 -10 23 -25 63 -32 90 -137 482 -165 555 -287 738 -27 41 -49 76 -49 79
0 9 -87 143 -130 201 -100 136 -364 365 -419 365 -11 0 -26 6 -33 13 -13 12
-40 24 -123 54 -22 7 -67 27 -100 43 -33 17 -64 30 -68 30 -5 0 -15 6 -22 14
-8 7 -31 17 -52 20 -21 4 -54 13 -73 20 -43 17 -186 39 -199 32 -5 -4 -31 -2
-58 4 -114 23 -282 50 -311 50 -18 0 -32 3 -32 8 0 4 -17 6 -37 5 -21 -1 -48
-2 -61 -2 -15 -1 -21 -5 -16 -12 5 -8 -1 -10 -18 -7 -13 2 -30 -1 -36 -9 -7
-7 -18 -13 -25 -12 -9 0 -9 2 1 6 18 7 15 24 -5 21 -12 -2 -19 6 -23 27 -8 39
-1 62 12 43 7 -9 8 -7 5 10 -3 14 0 22 9 22 10 0 11 6 5 23 -7 17 -3 36 15 73
24 50 37 131 23 140 -9 5 -89 11 -279 20 -74 3 -146 7 -160 9 -14 1 -38 3 -53
4 -16 0 -26 5 -22 11 3 6 1 10 -4 10 -6 0 -11 5 -11 10 0 6 -8 20 -19 31 -10
11 -17 29 -14 39 3 10 0 27 -6 37 -6 10 -11 12 -11 6 0 -7 -6 -13 -14 -13 -11
0 -14 -13 -12 -60 l3 -60 -74 0 c-41 0 -167 9 -280 20 -191 19 -207 20 -230 4
-14 -9 -28 -25 -30 -35 -3 -10 -10 -16 -16 -12 -6 4 -7 1 -2 -7 4 -7 3 -15 -2
-19 -11 -8 -73 -105 -73 -115 0 -4 -13 -26 -29 -49 -42 -63 -91 -153 -155
-287 -11 -25 -24 -46 -28 -48 -15 -7 -8 -23 8 -20 10 2 19 -3 21 -9 3 -7 1
-13 -5 -13 -5 0 -8 -14 -7 -30 1 -23 -2 -30 -12 -26 -10 4 -13 1 -8 -14 4 -13
-2 -28 -18 -44 -14 -14 -20 -27 -14 -29 6 -2 -2 -23 -21 -51 -18 -26 -32 -53
-32 -60 0 -6 -13 -32 -28 -57 -16 -24 -35 -57 -44 -74 -8 -16 -27 -52 -41 -79
-15 -27 -27 -55 -27 -63 0 -8 -4 -11 -10 -8 -5 3 -10 -1 -10 -9 0 -9 -4 -16
-10 -16 -5 0 -10 -14 -10 -31 0 -16 -4 -28 -9 -25 -5 4 -12 -7 -16 -24 -4 -16
-11 -30 -16 -30 -6 0 -9 -8 -8 -17 1 -10 -5 -35 -15 -55 -9 -21 -16 -43 -16
-49 0 -6 -11 -32 -24 -58 -13 -25 -32 -73 -42 -106 -9 -33 -20 -64 -24 -70 -4
-5 -13 -31 -21 -57 -7 -27 -17 -48 -21 -48 -4 0 -5 -6 -2 -14 3 -8 0 -17 -5
-21 -6 -3 -9 -11 -5 -16 3 -5 0 -16 -6 -24 -7 -8 -10 -24 -7 -35 3 -11 2 -22
-3 -25 -4 -3 -11 -34 -15 -70 -6 -63 -5 -67 23 -99 16 -19 38 -53 48 -75 11
-25 24 -41 35 -41 10 0 20 -4 24 -9 8 -13 65 -41 83 -41 9 0 12 -3 9 -6 -13
-14 44 -45 85 -47 l42 -2 9 45 c6 30 6 50 -2 63 -14 22 -6 37 20 37 22 0 69
91 76 147 6 52 84 275 105 303 10 14 37 48 59 76 21 29 39 57 39 63 0 5 9 15
20 21 11 6 20 17 20 25 0 8 7 15 15 15 8 0 14 4 13 8 -2 5 16 28 39 52 24 23
40 46 37 51 -3 5 4 9 15 9 11 0 33 16 48 35 15 19 34 35 41 35 7 0 12 8 10 18
-2 11 4 18 20 20 13 2 22 10 22 21 0 10 14 35 30 56 17 21 30 42 30 47 0 6 9
21 20 35 11 14 20 32 20 40 0 22 27 46 33 30 3 -6 6 4 6 25 1 31 4 35 21 31
18 -5 50 16 50 34 0 5 17 26 37 47 31 31 42 37 68 33 32 -5 58 1 51 11 -5 9
57 7 71 -1 5 -3 22 -5 38 -3 15 2 45 -6 67 -16 31 -15 39 -24 35 -39 -3 -10
-1 -17 3 -14 11 7 21 -43 16 -73 -3 -12 -1 -20 3 -17 5 3 12 -6 15 -20 4 -14
13 -25 22 -25 8 0 13 -4 9 -9 -3 -5 4 -12 15 -16 11 -3 20 -13 20 -22 0 -8 10
-23 23 -34 l22 -19 -23 -6 c-17 -5 -22 -13 -20 -29 1 -12 -4 -30 -12 -40 -28
-33 -22 -51 25 -74 29 -15 43 -27 38 -34 -4 -7 -9 -36 -10 -65 -1 -38 2 -55
13 -59 8 -3 14 -12 14 -20 0 -8 4 -11 10 -8 6 3 10 2 10 -4 0 -5 -8 -15 -17
-20 -14 -8 -8 -10 24 -7 46 4 83 -18 83 -47 0 -17 -37 -20 -58 -4 -7 6 -15 7
-19 3 -3 -3 -1 -6 5 -6 7 0 12 -7 12 -15 0 -9 12 -18 30 -21 31 -7 42 -24 14
-24 -24 0 -6 -20 33 -36 22 -10 33 -20 31 -31 -2 -13 7 -19 34 -24 35 -5 103
-59 75 -59 -7 0 7 -9 31 -21 23 -12 42 -25 42 -30 0 -5 7 -9 15 -9 9 0 33 -18
54 -40 33 -35 41 -39 73 -34 21 4 38 2 42 -5 11 -18 32 -13 45 12 11 22 11 22
6 -3 -5 -25 -5 -25 6 -2 7 12 16 22 21 22 5 0 17 7 25 16 12 11 18 12 23 4 5
-8 9 -8 12 2 7 17 58 22 54 5 -1 -6 -1 -9 1 -5 3 5 15 5 27 2 16 -4 23 -1 23
10 0 12 -4 13 -14 5 -10 -9 -13 -6 -12 17 0 16 3 23 6 17 6 -16 43 -17 43 -2
0 5 5 7 12 3 8 -5 6 -11 -5 -19 -9 -7 -14 -15 -11 -18 10 -9 32 18 40 48 6 23
8 25 16 11 5 -9 7 -25 3 -35 -3 -11 -1 -22 5 -26 5 -3 10 0 10 8 0 8 11 14 29
14 25 0 28 -3 21 -17 -6 -11 -5 -22 3 -31 7 -7 2 -5 -10 5 -20 17 -23 17 -23
3 0 -9 5 -19 10 -22 6 -4 8 -11 5 -16 -4 -5 -1 -17 4 -26 9 -16 10 -16 11 5 0
12 5 22 10 22 6 0 10 -6 10 -13 0 -8 11 -20 25 -27 14 -7 25 -17 25 -22 0 -16
20 -7 20 10 1 9 10 0 22 -23 11 -22 30 -48 42 -57 11 -10 15 -18 9 -18 -7 0
-13 -7 -13 -15 0 -8 6 -15 13 -15 7 -1 5 -6 -6 -14 -16 -13 -16 -15 9 -30 14
-10 32 -15 40 -12 7 3 13 0 11 -6 -4 -23 31 -20 38 3 7 20 9 20 17 6 15 -27
-20 -78 -57 -83 -5 0 -17 -2 -25 -3 -13 -1 -13 -2 0 -11 10 -6 11 -10 3 -10
-7 0 -13 -5 -13 -11 0 -6 6 -9 14 -6 8 3 17 -1 20 -9 4 -9 -1 -14 -14 -14 -11
0 -20 -5 -20 -11 0 -6 9 -9 20 -6 27 7 36 -10 10 -18 -20 -7 -28 -25 -10 -25
6 0 10 -6 10 -14 0 -11 -9 -13 -35 -9 -23 4 -35 2 -35 -6 0 -6 5 -11 12 -11 9
0 9 -3 0 -12 -7 -7 -12 -22 -12 -34 0 -12 -5 -24 -11 -26 -6 -2 -8 -14 -4 -31
6 -21 13 -27 34 -27 33 0 56 14 47 29 -4 6 -2 11 3 11 6 0 11 -9 11 -19 0 -18
3 -19 30 -9 17 5 47 8 68 5 20 -2 51 2 67 9 17 7 61 20 98 27 61 12 72 12 100
-2 45 -23 59 -55 54 -126 -2 -33 0 -73 6 -90 5 -16 11 -79 13 -140 4 -130 7
-152 22 -186 6 -15 16 -81 23 -148 10 -97 10 -142 0 -228 -7 -60 -12 -146 -12
-193 2 -111 -5 -199 -18 -233 -7 -18 -7 -44 -1 -77 6 -34 6 -59 -2 -78 -10
-25 -15 -78 -18 -182 -1 -25 -8 -67 -16 -95 -7 -27 -13 -66 -13 -85 1 -19 -2
-69 -5 -110 -4 -41 -8 -100 -10 -130 -4 -59 -14 -145 -22 -197 -3 -18 0 -42 7
-54 8 -16 8 -33 0 -63 -19 -77 -35 -433 -21 -485 3 -14 1 -36 -6 -49 -7 -14
-10 -59 -8 -125 7 -189 6 -242 -3 -267 -5 -14 -7 -38 -3 -55 3 -16 3 -45 -1
-63 -4 -18 -4 -45 0 -60 4 -15 5 -53 1 -85 -3 -32 -2 -61 2 -63 5 -3 6 -15 2
-27 -4 -11 -6 -46 -6 -76 0 -31 -4 -61 -9 -67 -5 -6 -5 -54 2 -120 5 -60 7
-123 4 -141 -3 -19 -1 -34 6 -39 8 -5 9 -33 4 -98 -4 -50 -9 -145 -11 -211 -2
-66 -6 -148 -10 -181 -4 -35 -2 -69 4 -80 6 -12 6 -27 -2 -48 -14 -38 -14 -99
1 -146 6 -19 14 -64 17 -99 5 -54 3 -67 -15 -93 -16 -22 -19 -32 -10 -41 14
-14 14 -70 0 -84 -8 -8 -8 -17 0 -31 7 -13 7 -31 1 -51 -5 -18 -6 -54 -3 -81
4 -37 2 -53 -11 -65 -13 -14 -15 -33 -11 -119 l5 -103 -27 -18 c-29 -19 -62
-9 -54 17 2 7 5 33 6 58 1 28 6 44 14 42 6 -1 11 3 11 9 0 6 -7 9 -15 5 -8 -3
-19 3 -25 13 -13 25 24 75 51 68 24 -6 24 -1 0 25 -16 16 -19 33 -17 82 1 47
-3 71 -21 105 -15 29 -20 49 -14 60 5 9 6 22 4 29 -3 7 3 22 12 32 16 18 16
21 1 44 -20 31 -21 62 -1 70 9 3 12 12 8 22 -3 9 0 20 8 24 10 7 8 13 -11 28
-20 16 -22 23 -12 34 13 16 0 124 -18 142 -15 15 -12 46 5 46 18 0 20 16 4 26
-6 4 -9 20 -6 38 4 25 1 35 -14 44 -15 9 -18 20 -14 49 2 20 9 39 14 42 7 5 8
31 2 63 0 4 -10 10 -21 13 -25 8 -26 27 0 50 20 18 15 41 -17 73 -21 21 -15
48 13 60 32 15 30 55 -3 60 -13 2 -23 7 -23 12 0 4 -8 6 -17 4 -10 -2 -24 0
-31 4 -23 15 -2 39 41 48 33 7 43 14 45 32 2 15 -2 22 -12 22 -9 0 -16 -6 -17
-12 0 -7 -4 -3 -9 10 -10 23 1 65 19 77 18 10 13 39 -9 53 -25 15 -25 30 -1
56 16 18 18 28 11 66 -6 33 -4 52 6 72 11 21 12 33 4 48 -9 16 -20 20 -66 19
-30 -1 -57 1 -59 3 -9 9 37 59 49 55 20 -8 76 21 76 38 0 9 -10 25 -21 34
l-22 17 27 27 c31 31 32 46 6 77 -23 26 -23 30 -10 64 9 24 6 27 -28 41 -45
19 -90 12 -72 -10 8 -10 9 -15 2 -15 -13 0 -17 7 -26 42 -5 23 -2 30 24 43 17
9 39 13 49 10 25 -7 51 4 51 22 0 10 -6 13 -16 9 -8 -3 -12 -2 -9 4 7 12 -39
24 -65 17 -11 -3 -24 1 -31 9 -6 8 -24 14 -40 14 -37 0 -43 13 -16 38 18 17
28 20 59 13 20 -5 40 -5 45 0 4 4 22 10 38 12 17 2 31 10 33 19 2 12 -11 16
-57 21 -33 4 -71 3 -83 -2 -30 -11 -75 5 -75 26 0 20 27 53 42 53 6 0 18 9 27
20 16 18 16 21 -6 47 l-24 28 24 28 c23 27 23 29 7 53 -11 17 -23 24 -35 21
-11 -3 -18 0 -18 9 0 7 6 11 14 8 8 -3 27 7 42 23 22 22 29 38 30 76 1 26 6
55 10 65 16 36 12 72 -9 87 l-21 15 24 25 c13 14 29 25 36 25 16 0 14 37 -3
70 -11 21 -11 26 2 28 19 4 28 37 26 95 -1 37 2 47 15 47 11 0 14 5 10 16 -4
9 -1 23 6 31 10 12 9 18 -5 28 -22 16 -21 28 4 51 18 16 20 25 14 77 -7 57 -6
60 21 82 27 21 28 24 17 60 -7 22 -9 45 -4 54 15 28 10 72 -10 84 -11 7 -19
16 -19 20 0 12 26 37 39 37 18 0 22 39 6 64 -19 29 -9 58 26 77 19 9 21 17 15
55 -3 24 -2 44 3 44 16 0 29 70 20 104 -6 22 -6 43 1 61 5 14 10 42 10 61 0
49 -23 54 -66 13 -32 -31 -46 -69 -24 -69 6 0 10 -7 10 -15 0 -16 -78 -55
-108 -55 -9 0 -26 8 -37 16 -20 15 -20 15 0 30 11 8 20 25 20 39 1 13 7 30 14
38 9 12 8 18 -5 32 -13 13 -27 15 -61 10 -24 -3 -43 -2 -43 3 0 5 21 12 48 15
64 8 122 26 122 37 0 5 -10 20 -22 34 -56 60 -62 80 -27 91 14 5 18 12 13 23
-3 10 -9 27 -11 38 -3 12 -20 30 -38 39 -27 15 -38 16 -66 6 -27 -9 -36 -9
-48 4 -13 13 -11 16 18 26 19 7 36 22 42 36 14 37 11 80 -6 87 -8 3 -15 12
-15 21 0 8 7 15 15 15 8 0 15 5 15 10 0 6 -4 10 -10 10 -5 0 -7 6 -4 14 6 16
-45 68 -59 59 -24 -15 -104 -11 -134 7 -17 10 -52 22 -77 25 -42 7 -46 10 -46
36 0 16 4 29 9 29 5 0 14 21 19 47 12 52 6 61 -38 64 -108 7 -137 17 -149 51
-6 17 -11 39 -11 49 0 12 -7 19 -20 19 -11 0 -20 7 -20 15 0 17 -9 19 -30 5
-9 -5 -19 -5 -27 1 -8 7 -18 7 -31 0 -11 -6 -22 -7 -26 -4 -3 3 -6 -6 -6 -21
0 -23 -3 -26 -25 -20 -15 4 -25 2 -25 -4 0 -6 9 -12 20 -14 13 -2 17 -7 11
-16 -6 -10 -16 -5 -39 19 -18 18 -35 29 -39 26 -3 -4 2 -14 13 -23 18 -14 17
-15 -18 -9 -38 6 -52 -2 -39 -24 11 -18 1 -61 -14 -61 -14 0 -28 -31 -29 -65
-1 -11 -8 -21 -16 -21 -8 -1 -23 -2 -32 -3 -12 -1 -16 -10 -16 -29 1 -38 -19
-72 -42 -72 -10 0 -26 -10 -34 -22 -12 -16 -16 -18 -16 -7 0 13 -13 15 -74 13
-41 -1 -83 -7 -94 -13 -13 -7 -31 -7 -56 0 -20 5 -41 7 -48 3 -21 -13 -98 -11
-98 2 0 11 -39 31 -43 22 -22 -42 -24 -43 -82 -52 -11 -2 -22 -4 -25 -5 -3 0
20 -16 50 -35 44 -27 57 -31 66 -20 20 25 59 26 97 4 26 -15 41 -19 54 -12 10
5 33 12 51 15 26 5 34 3 39 -11 3 -9 13 -25 21 -35 12 -13 17 -15 24 -5 6 10
8 8 8 -4 0 -14 -9 -17 -53 -15 -30 1 -65 10 -80 20 -31 20 -41 22 -34 5 5 -14
-24 -14 -131 -4 -47 4 -55 2 -78 -22 -34 -36 -48 -62 -34 -62 6 0 8 -4 5 -10
-3 -5 -2 -10 4 -10 6 0 17 -13 26 -30 14 -27 14 -30 -5 -40 -11 -6 -20 -17
-20 -25 0 -16 -16 -20 -24 -7 -2 4 -26 9 -53 10 -26 1 -63 6 -82 12 -30 8 -38
7 -53 -10 -22 -24 -20 -23 -53 -8 -22 10 -27 9 -40 -8 -8 -10 -12 -25 -10 -31
2 -7 0 -13 -6 -13 -6 0 -8 -7 -5 -16 3 -8 2 -12 -3 -9 -16 9 -25 -16 -10 -26
12 -8 11 -11 -4 -20 -16 -9 -16 -12 -2 -32 8 -12 31 -27 50 -32 l35 -10 -26
-28 c-23 -25 -30 -27 -82 -22 -31 3 -118 9 -192 15 -160 11 -177 15 -207 49
-32 37 -29 41 21 35 25 -4 52 -2 65 6 17 9 26 9 36 0 17 -14 38 -3 31 16 -3 8
1 17 9 20 12 5 12 9 -2 30 -8 13 -24 24 -34 24 -28 0 -43 35 -23 55 18 18 18
18 -13 34 -12 6 -23 21 -25 32 -2 17 -15 25 -53 35 -27 6 -53 10 -57 8 -3 -2
-9 2 -12 8 -5 10 -7 10 -12 1 -8 -19 -34 -16 -34 3 0 14 -3 14 -15 4 -21 -18
-57 -18 -76 0 -44 41 -65 51 -91 46 -19 -4 -30 0 -37 12 -9 16 -11 16 -28 -1
-27 -24 -43 -21 -43 7 0 14 -5 37 -10 52 -8 21 -7 38 6 75 15 41 15 53 4 93
-7 26 -17 49 -21 52 -16 9 -9 31 16 55 25 24 31 53 16 77 -7 11 -9 10 -15 -3
-8 -23 -26 -9 -26 21 0 29 -21 40 -49 24 -16 -8 -28 -7 -51 5 -17 9 -34 14
-38 11 -4 -2 -14 9 -21 25 -7 16 -19 29 -27 29 -25 0 -23 106 3 130 14 14 14
13 4 -7 -14 -28 9 -79 27 -61 9 9 12 6 12 -15 0 -15 4 -27 8 -27 17 0 32 53
26 89 -10 64 -15 74 -27 62 -17 -17 -25 -13 -29 12 -2 12 -9 21 -16 19 -6 -1
-12 5 -12 14 0 25 -23 11 -31 -19 -6 -21 -4 -27 9 -28 11 0 12 -2 5 -6 -7 -2
-13 -11 -13 -19 0 -8 -4 -14 -9 -14 -5 0 -8 -11 -7 -25 0 -14 5 -25 10 -25 6
0 2 -6 -8 -13 -13 -10 -20 -31 -23 -78 -8 -119 -10 -883 -2 -999 8 -129 18
-367 24 -605 3 -88 7 -239 10 -335 9 -250 10 -1049 2 -1057 -4 -3 -7 171 -8
388 0 217 -2 423 -4 459 -2 36 -6 173 -10 305 -3 132 -10 317 -15 410 -40 722
-49 1571 -20 1895 41 460 174 923 373 1300 81 154 345 612 533 928 41 68 74
125 74 127 0 2 20 38 45 79 25 42 45 84 45 94 0 21 -56 139 -71 147 -5 4 -38
-22 -72 -57z"/>
<path d="M5649 8333 c-1 -16 0 -36 1 -46 3 -33 -59 -49 -163 -40 -51 4 -105 7
-122 6 -173 -3 -225 -7 -225 -14 0 -5 -6 -9 -14 -9 -7 0 -19 -7 -26 -15 -9
-11 -9 -15 -1 -15 9 0 9 -5 1 -20 -8 -15 -8 -20 2 -21 7 -1 18 -2 23 -4 6 -1
17 -3 25 -4 12 -1 11 -5 -4 -16 -13 -10 -23 -11 -31 -5 -9 7 -17 5 -26 -7 -9
-11 -10 -14 -1 -9 6 4 12 3 12 -2 0 -12 -25 -22 -54 -22 -13 0 -26 -3 -30 -7
-8 -8 -12 -9 -43 -12 -15 -1 -14 -4 5 -15 20 -11 22 -15 10 -27 -21 -23 -21
-63 2 -92 12 -15 26 -24 32 -21 23 14 208 27 353 24 125 -2 398 -30 480 -49
159 -38 181 -42 236 -50 36 -6 64 -16 78 -30 11 -11 28 -21 36 -21 15 0 66
-21 170 -71 33 -16 68 -29 78 -29 9 0 26 -9 36 -19 10 -10 32 -22 47 -25 51
-12 122 -64 166 -123 37 -50 43 -55 46 -35 l3 22 47 -27 c26 -15 49 -31 50
-35 2 -4 9 -8 15 -8 7 0 30 -18 52 -40 22 -21 45 -39 52 -40 19 0 73 -57 73
-76 0 -10 3 -14 7 -11 8 9 53 -32 53 -48 0 -19 40 -65 53 -62 7 1 11 -8 9 -26
-2 -15 2 -35 8 -43 7 -7 9 -14 5 -14 -4 0 0 -12 10 -26 9 -14 14 -32 11 -39
-2 -7 2 -19 10 -25 8 -7 14 -19 14 -26 0 -7 6 -11 13 -8 9 3 13 -3 13 -18 -1
-16 5 -23 19 -23 12 0 21 -8 23 -20 3 -16 1 -17 -7 -5 -6 8 -11 10 -11 4 0 -6
6 -17 14 -23 7 -6 16 -24 19 -39 3 -15 16 -49 28 -77 25 -57 27 -64 35 -122 3
-24 10 -43 14 -43 4 0 13 -30 20 -67 6 -37 15 -72 19 -78 5 -5 11 -23 15 -40
17 -77 41 -145 52 -149 21 -8 26 29 9 75 -9 24 -18 62 -21 83 -2 22 -8 44 -13
49 -5 5 -7 16 -4 23 3 8 0 14 -7 14 -6 0 -10 10 -9 23 3 28 -11 77 -21 77 -4
0 -16 27 -26 59 -9 33 -22 59 -28 58 -6 -1 -11 12 -11 28 0 18 -8 37 -20 46
-11 10 -20 30 -20 50 -1 19 -13 58 -28 88 -15 30 -27 61 -27 68 0 7 -4 13 -8
13 -5 0 -14 16 -22 35 -8 19 -17 35 -22 35 -4 0 -8 7 -8 15 0 8 -4 23 -9 33
-21 39 -42 92 -47 121 -4 17 -10 31 -14 31 -4 0 -17 22 -28 48 -12 27 -28 55
-37 62 -8 7 -15 19 -15 28 0 17 -104 202 -150 268 -16 22 -31 53 -34 68 -3 15
-29 69 -59 119 -30 51 -66 112 -79 137 -14 25 -46 80 -72 122 -52 86 -67 93
-147 71 -25 -7 -94 -15 -155 -17 -60 -3 -132 -10 -160 -15 -61 -12 -351 -32
-449 -31 -38 0 -125 -2 -192 -5 -84 -3 -123 -1 -123 6 0 6 7 8 16 5 8 -3 24
-1 34 4 11 6 61 13 112 15 93 5 290 43 233 44 -22 1 -26 4 -16 10 17 11 -1 20
-77 40 -37 11 -42 14 -36 35 7 29 -11 66 -31 66 -9 0 -15 -11 -16 -27z"/>
<path d="M4573 8230 c-32 -8 -57 -19 -56 -25 2 -5 40 -10 85 -12 46 -1 101 -5
123 -9 95 -15 108 -15 126 2 20 18 26 44 10 44 -5 0 -12 -6 -14 -12 -4 -8 -8
-4 -13 10 -6 22 -10 23 -105 20 -54 -1 -124 -9 -156 -18z"/>
<path d="M3085 5086 c-28 -43 20 -99 68 -80 9 3 18 -2 21 -14 7 -21 52 -46 67
-37 5 4 9 17 9 30 0 26 25 45 58 45 14 0 19 6 18 18 -2 12 -20 21 -65 31 -58
14 -62 13 -77 -5 -8 -10 -17 -14 -20 -9 -20 45 -57 55 -79 21z"/>
<path d="M7436 3785 c-3 -8 -8 -88 -12 -177 -3 -90 -8 -166 -10 -170 -3 -4 -6
-136 -9 -295 -2 -158 -7 -321 -11 -360 -3 -43 -2 -73 4 -73 5 0 12 71 15 158
4 86 11 249 16 362 13 256 22 570 17 570 -2 0 -6 -7 -10 -15z"/>
<path d="M88 1824 c4 -25 3 -26 -24 -22 -16 3 -37 9 -46 13 -17 7 -18 -40 -18
-904 l0 -911 855 0 c620 0 855 3 855 11 0 8 -16 10 -45 7 -33 -4 -45 -2 -45 8
0 7 5 16 10 19 13 8 13 35 0 35 -5 0 -10 -9 -10 -20 0 -11 -4 -20 -10 -20 -5
0 -10 -7 -10 -16 0 -8 -4 -13 -9 -10 -5 3 -7 15 -4 26 3 12 -1 22 -11 26 -9 3
-16 15 -16 26 0 15 -5 18 -20 13 -16 -5 -20 -2 -20 19 0 29 -18 44 -26 22 -8
-20 -24 -21 -24 -2 0 8 11 17 25 20 26 7 35 26 12 26 -7 0 -23 9 -35 20 -25
24 -32 25 -32 5 0 -8 9 -15 19 -15 32 0 33 -16 2 -49 -32 -34 -45 -32 -30 6
13 34 13 34 -32 28 -38 -5 -40 -4 -28 12 8 9 9 14 3 10 -6 -3 -20 0 -30 8 -15
11 -16 15 -4 16 8 1 19 1 23 0 5 -1 6 3 3 8 -4 5 -2 12 4 16 12 7 4 25 -11 25
-6 0 -7 -5 -3 -12 4 -7 3 -8 -4 -4 -7 4 -12 20 -12 36 0 21 -4 28 -14 24 -14
-6 -16 -21 -3 -40 3 -6 4 -14 0 -18 -4 -3 -12 6 -18 22 -15 34 -49 39 -62 9
-6 -13 -12 -17 -16 -9 -4 6 1 19 12 29 10 10 21 27 23 37 2 15 -3 19 -26 20
-16 1 -31 7 -34 14 -2 7 -10 12 -17 12 -7 0 -16 10 -20 23 -6 19 -8 19 -12 5
-8 -31 -23 -19 -23 18 0 20 -4 33 -10 29 -6 -3 -7 1 -4 9 7 17 -11 22 -21 6
-3 -5 -11 -10 -16 -10 -6 0 -7 5 -4 10 3 6 1 10 -4 10 -6 0 -11 14 -11 31 0
27 -3 31 -22 26 -14 -4 -26 0 -34 11 -10 14 -14 14 -28 3 -10 -8 -16 -9 -16
-3 0 6 4 14 10 17 15 9 12 28 -3 22 -8 -3 -20 -1 -28 4 -11 7 -9 10 8 15 27 7
21 21 -15 35 -21 8 -29 7 -39 -7 -12 -16 -13 -16 -13 5 0 13 -6 29 -14 35 -7
6 -16 26 -20 44 -4 26 -2 32 12 33 14 0 14 2 -3 9 -11 4 -29 17 -41 28 -12 11
-30 22 -40 24 -10 2 -18 10 -17 16 4 19 -15 14 -20 -5 -4 -17 -5 -17 -6 -1 0
10 8 23 19 30 29 18 26 42 -4 34 -15 -4 -28 0 -37 10 -13 16 -58 38 -71 36 -3
-1 -4 12 -1 28 2 17 0 30 -6 30 -6 0 -11 5 -11 10 0 6 7 10 16 10 14 0 14 3 4
15 -15 18 -37 19 -43 3 -4 -10 -8 -9 -16 2 -15 21 -7 35 18 33 19 -3 20 -1 9
17 -16 24 -26 25 -50 3 -17 -15 -18 -15 -18 1 0 9 5 14 10 11 13 -8 12 2 -3
47 -14 40 -29 62 -21 31 3 -10 1 -29 -5 -43 -9 -23 -10 -22 -11 15 -1 39 -1
39 -14 16 -11 -21 -14 -21 -20 -6 -8 21 9 44 42 56 13 5 20 14 17 19 -5 8 -12
7 -22 -2 -22 -18 -47 -20 -33 -3 7 8 9 19 5 25 -3 5 -1 10 6 10 8 0 8 4 -1 15
-13 16 -32 11 -28 -8 2 -7 -2 -12 -7 -12 -6 0 -10 13 -10 29 0 16 -6 31 -13
34 -7 2 -12 -5 -12 -16 0 -14 -7 -19 -25 -19 -23 0 -24 1 -8 12 16 12 16 14
-1 40 -10 14 -23 24 -30 22 -7 -3 -19 -2 -26 3 -9 6 -7 10 9 15 12 3 21 15 21
26 0 10 6 20 13 20 6 1 -1 4 -18 8 -16 3 -28 11 -25 16 3 6 9 9 13 7 5 -1 6 2
2 8 -4 6 -15 8 -26 5 -14 -5 -17 -3 -13 9 4 11 1 16 -10 16 -10 0 -16 9 -16
25 0 14 5 25 10 25 6 0 10 9 10 20 0 11 -4 20 -10 20 -5 0 -10 -9 -10 -20 0
-28 -19 -25 -30 5 -5 13 -18 33 -29 44 -11 11 -18 27 -15 34 3 9 -3 17 -16 20
-29 7 -16 27 13 20 17 -4 19 -3 11 6 -6 7 -25 13 -42 13 -29 1 -31 3 -25 31 6
27 4 30 -15 25 -17 -5 -22 -2 -22 14 0 16 3 18 13 9 17 -13 27 -5 27 22 0 16
-3 17 -15 7 -12 -10 -16 -9 -21 4 -10 27 -32 19 -26 -10z"/>
<path d="M10202 575 c-16 -35 -15 -43 6 -48 10 -3 6 -5 -10 -6 -16 0 -28 4
-28 9 0 6 -6 10 -14 10 -9 0 -12 -8 -8 -25 3 -19 0 -25 -14 -25 -15 0 -16 -2
-5 -9 12 -8 11 -12 -3 -27 -15 -14 -19 -15 -27 -3 -5 8 -9 9 -9 4 0 -6 7 -21
16 -33 18 -26 7 -30 -12 -4 -8 10 -13 12 -14 5 0 -7 -5 -13 -10 -13 -7 0 -7 6
-1 18 6 9 12 29 16 45 3 15 12 27 19 27 14 0 31 29 22 37 -8 9 -46 -22 -46
-38 0 -23 -24 -41 -45 -33 -15 6 -16 3 -10 -25 6 -30 6 -32 -13 -22 -17 9 -23
6 -36 -13 -8 -14 -24 -27 -35 -31 -21 -6 -34 -52 -17 -59 6 -2 -1 -4 -16 -3
-25 1 -42 17 -19 17 5 0 11 9 14 20 3 13 0 20 -9 20 -8 0 -14 -4 -14 -9 0 -5
-7 -17 -16 -25 -11 -11 -12 -16 -3 -16 7 0 4 -7 -7 -15 -17 -14 -18 -16 -2
-25 17 -10 14 -50 -4 -50 -5 0 -6 4 -3 10 3 6 -1 7 -9 4 -9 -3 -16 -10 -16
-15 0 -5 -8 -9 -17 -9 -9 0 -25 -8 -35 -17 -16 -14 -23 -15 -38 -5 -11 7 -26
12 -33 12 -16 0 -49 -55 -45 -76 4 -25 -15 -27 -40 -4 -24 23 -28 19 -11 -11
5 -11 7 -29 4 -40 -5 -16 -10 -18 -21 -8 -15 12 -9 33 7 24 5 -4 9 -2 9 3 0 5
-9 12 -20 15 -17 4 -22 0 -27 -24 -3 -16 -10 -32 -14 -35 -5 -3 -9 -14 -9 -25
0 -13 -7 -19 -21 -19 -11 0 -17 5 -14 10 4 6 11 8 16 5 5 -4 9 5 9 19 0 13 6
27 13 29 7 3 5 6 -5 6 -9 1 -22 -7 -27 -16 -6 -10 -11 -13 -11 -7 0 13 -50 16
-50 3 0 -5 6 -9 14 -9 10 0 12 -7 8 -22 -4 -16 -7 -18 -10 -8 -7 22 -24 30
-49 24 -15 -4 -25 0 -33 17 -11 20 -13 20 -22 5 -5 -9 -13 -14 -18 -11 -5 3
-12 0 -16 -7 -13 -21 -11 -48 3 -48 7 0 13 7 13 15 0 10 10 15 34 15 43 0 57
-17 19 -23 -16 -2 171 -5 415 -6 l442 -1 0 300 c0 244 -2 300 -13 300 -8 0
-19 -11 -25 -25z"/>
</g>
</svg>
